<?xml version="1.0" encoding="UTF-8"?>
<svg version="1.1" xmlns="http://www.w3.org/2000/svg" width="826" height="451">
<path d="M0 0 C1.08578842 0.06385391 1.08578842 0.06385391 2.19351196 0.1289978 C58.09547083 3.52104943 58.09547083 3.52104943 74.9453125 22.3828125 C79.94520946 29.2112432 81.42680825 35.86947339 80.3125 44.25 C74.06769925 71.80518332 42.39435475 92.1243141 20.0625 106.3125 C12.73554985 110.89698645 5.26045799 115.2244119 -2.25 119.5 C-3.25643555 120.07371338 -4.26287109 120.64742676 -5.29980469 121.23852539 C-6.70020996 122.0253772 -6.70020996 122.0253772 -8.12890625 122.828125 C-8.96107666 123.29637695 -9.79324707 123.76462891 -10.65063477 124.24707031 C-12.6875 125.25 -12.6875 125.25 -14.6875 125.25 C-14.0275 122.94 -13.3675 120.63 -12.6875 118.25 C-17.98844216 116.44695845 -23.29058488 114.74276376 -28.6875 113.25 C-24.75339548 109.94263382 -20.62781545 107.28216572 -16.25 104.625 C19.59009645 82.60987406 19.59009645 82.60987406 41.88671875 48.328125 C43.20967968 41.87110466 42.96377787 35.82030416 39.625 30.05859375 C30.88119144 18.00983374 13.54309367 14.31652002 -0.3125 12.0625 C-60.36555498 3.2602029 -124.88369277 15.66948819 -183.6875 27.25 C-184.58639954 27.42702454 -185.48529907 27.60404907 -186.41143799 27.78643799 C-212.82179815 33.00928733 -239.0220178 38.98358322 -265.11712646 45.59893799 C-267.70063624 46.25332734 -270.28506859 46.90397282 -272.86962891 47.55419922 C-307.61607834 56.31719038 -341.91207953 66.31338069 -375.75 78.125 C-377.06881668 78.58525574 -377.06881668 78.58525574 -378.41427612 79.05480957 C-388.4218307 82.56062051 -398.35584601 86.21829566 -408.21485901 90.12374878 C-413.59257467 92.25 -413.59257467 92.25 -414.6875 92.25 C-415.0175 88.62 -415.3475 84.99 -415.6875 81.25 C-327.92717294 49.04926549 -238.15871584 24.48880351 -55.4375 0 C-54.57956848 -0.04129028 -53.72163696 -0.08258057 -52.83770752 -0.12512207 C-35.20191336 -0.94776566 -17.62715019 -1.05112851 0 0 Z " fill="#C41230" transform="translate(540.6875,38.75)"/>
<path d="M0 0 C0.495 19.8 0.495 19.8 1 40 C3.64 39.01 6.28 38.02 9 37 C11.46191406 36.59594727 11.46191406 36.59594727 13.515625 36.56640625 C14.67118896 36.54912476 14.67118896 36.54912476 15.85009766 36.53149414 C17.03804932 36.54684204 17.03804932 36.54684204 18.25 36.5625 C19.08192871 36.57079834 19.91385742 36.57909668 20.77099609 36.58764648 C31.98860785 36.89326495 40.88661448 40.10505178 49 48 C59.70889449 59.43131991 61.49092393 71.53934303 61.2734375 86.57421875 C60.79016046 100.34282957 55.58017182 110.866849 45.6875 120.375 C35.20096423 129.26341645 22.639746 129.81638357 9.51416016 129.25292969 C3.92245293 128.69039243 -1.01921245 126.54492795 -6 124 C-6.66 125.65 -7.32 127.3 -8 129 C-12.62 129 -17.24 129 -22 129 C-22 88.08 -22 47.16 -22 5 C-1 0 -1 0 0 0 Z M0 60 C-0.32579665 62.03064389 -0.32579665 62.03064389 -0.30639648 64.38623047 C-0.32238388 65.29412323 -0.33837128 66.20201599 -0.35484314 67.13742065 C-0.36020584 68.12074371 -0.36556854 69.10406677 -0.37109375 70.1171875 C-0.38012222 71.12588898 -0.3891507 72.13459045 -0.39845276 73.17385864 C-0.41297891 75.31069968 -0.42184784 77.44758543 -0.42553711 79.58447266 C-0.43742822 82.85525483 -0.48658725 86.12414788 -0.53710938 89.39453125 C-0.54657375 91.46874077 -0.55380871 93.54296191 -0.55859375 95.6171875 C-0.57812607 96.5964621 -0.59765839 97.57573669 -0.61778259 98.58468628 C-0.66266504 104.12106196 -0.66266504 104.12106196 2.34741211 108.58642578 C9.03426918 112.14987746 16.05927229 111.738005 23.25 109.8125 C28.57035398 107.9945734 32.52619777 105.83387052 35.21484375 100.6640625 C39.67634218 90.0898349 40.36285491 79.57030949 37.04296875 68.55078125 C34.89390823 63.29483923 31.7329586 60.06099506 26.9375 57.125 C18.20600983 53.78102504 7.0972978 52.9027022 0 60 Z " fill="#1C1D1D" transform="translate(502,283)"/>
<path d="M0 0 C8.36193384 7.03298364 13.44861193 15.91538973 15.1875 26.75 C15.30115672 28.51828705 15.3621788 30.29061045 15.375 32.0625 C15.38917969 32.94550781 15.40335937 33.82851562 15.41796875 34.73828125 C15.1875 37.75 15.1875 37.75 13.1875 45.75 C-7.6025 45.75 -28.3925 45.75 -49.8125 45.75 C-45.77775884 57.43105999 -45.77775884 57.43105999 -36.7109375 63.7734375 C-27.58726599 67.28750179 -18.76813903 66.30357207 -9.8125 62.75 C-8.14270674 61.75522955 -6.47470581 60.75739746 -4.8125 59.75 C-1.8125 60.75 -1.8125 60.75 0.01171875 64.12890625 C0.64342589 65.51866196 1.26411796 66.91346534 1.875 68.3125 C2.19533203 69.02341797 2.51566406 69.73433594 2.84570312 70.46679688 C3.63570496 72.22366662 4.41283623 73.98631345 5.1875 75.75 C1.8436473 78.6342997 -1.08130547 80.48880474 -5.25 81.9375 C-6.15621094 82.26105469 -7.06242187 82.58460938 -7.99609375 82.91796875 C-22.51768276 87.20798048 -39.85695126 86.29519313 -53.3515625 79.46484375 C-62.75210038 73.82137703 -68.69506439 64.66315935 -71.49609375 54.1953125 C-74.37903236 40.4765012 -73.88236864 25.16404256 -66.38671875 12.94140625 C-58.23896078 1.59924193 -49.34893626 -5.36269054 -35.51953125 -7.83984375 C-22.8655186 -9.23991891 -10.44127978 -7.59681154 0 0 Z M-44.125 17.125 C-47.69781661 22.53608119 -47.69781661 22.53608119 -48.8125 28.75 C-34.9525 28.75 -21.0925 28.75 -6.8125 28.75 C-7.89401212 22.26092725 -9.35972909 17.67220328 -14.46484375 13.3515625 C-23.94329444 7.7005623 -36.53942634 9.33441084 -44.125 17.125 Z " fill="#1C1D1D" transform="translate(210.8125,163.25)"/>
<path d="M0 0 C12.49558343 -0.39668519 23.1726569 2.84905013 32.77734375 10.9296875 C40.61578838 18.33957519 44.4082431 26.66395686 45.21484375 37.46484375 C45.32970483 43.71759358 44.73190801 47.93246259 42.96484375 54.1171875 C22.17484375 54.1171875 1.38484375 54.1171875 -20.03515625 54.1171875 C-16.00041509 65.79824749 -16.00041509 65.79824749 -6.93359375 72.140625 C2.19007776 75.65468929 11.00920472 74.67075957 19.96484375 71.1171875 C21.63463701 70.12241705 23.30263794 69.12458496 24.96484375 68.1171875 C27.96484375 69.1171875 27.96484375 69.1171875 29.7890625 72.20703125 C30.42049743 73.4845238 31.04121319 74.7673582 31.65234375 76.0546875 C31.97267578 76.70115234 32.29300781 77.34761719 32.62304688 78.01367188 C34.96484375 82.82209488 34.96484375 82.82209488 34.96484375 85.1171875 C33.18178211 86.09143768 31.38777918 87.04566734 29.58984375 87.9921875 C28.09324219 88.79269531 28.09324219 88.79269531 26.56640625 89.609375 C13.40873817 95.11789981 -4.84250761 95.45289367 -18.17578125 90.49609375 C-29.41659127 85.07532061 -36.73660631 77.25474567 -40.91015625 65.4296875 C-44.53837226 51.25485601 -44.07413194 35.15387028 -37.03515625 22.1171875 C-29.22250974 10.41557917 -19.17758995 3.35196103 -5.34765625 0.3046875 C-3.56506662 0.2037862 -1.78249045 0.10263861 0 0 Z M-13.81640625 25.2109375 C-16.74025069 29.34845321 -18.01752192 32.02901586 -19.03515625 37.1171875 C-5.17515625 37.1171875 8.68484375 37.1171875 22.96484375 37.1171875 C21.9357104 29.91325403 20.87438763 27.08264873 15.96484375 22.1171875 C7.15025261 16.36071982 -6.80043392 16.96409283 -13.81640625 25.2109375 Z " fill="#1C1D1D" transform="translate(403.03515625,154.8828125)"/>
<path d="M0 0 C0 5.28 0 10.56 0 16 C-55.43093434 30.91594828 -55.43093434 30.91594828 -79 36 C-79.71810852 36.1549292 -80.43621704 36.3098584 -81.17608643 36.46948242 C-112.88860632 43.29293697 -144.73263999 49.47157924 -177 53 C-177.1139209 53.67184326 -177.2278418 54.34368652 -177.34521484 55.03588867 C-177.50715332 55.9251001 -177.6690918 56.81431152 -177.8359375 57.73046875 C-177.9911084 58.60856201 -178.1462793 59.48665527 -178.30615234 60.39135742 C-180.15562052 67.34475906 -185.15211365 71.58949413 -191.16796875 75.08984375 C-197.46128927 78.21637612 -205.67728559 78.03354076 -212.41796875 76.421875 C-218.90320606 73.5740662 -224.5125007 67.59519376 -227.19921875 61.1015625 C-229.35006952 52.77095024 -228.92138182 44.68116046 -224.62890625 37.16015625 C-220.76777273 32.03975616 -214.88170727 27.82470778 -208.5546875 26.48046875 C-200.57103566 25.60762052 -194.01673912 26.07112772 -187.375 30.9140625 C-185.11216717 32.85868446 -182.96996598 34.75880682 -181 37 C-181 37.66 -181 38.32 -181 39 C-180.08138184 38.82404297 -179.16276367 38.64808594 -178.21630859 38.46679688 C-170.60644607 37.0194316 -162.98851049 35.64081114 -155.3515625 34.34375 C-132.14943659 30.37900464 -109.1569157 25.79863738 -86.19970703 20.59375 C-85.17590439 20.36251938 -84.15210175 20.13128876 -83.09727478 19.89305115 C-81.19074867 19.46133313 -79.28504464 19.02596012 -77.38038635 18.58607483 C-69.89298194 16.88544605 -62.81368756 15.79942969 -55.09375 16.12109375 C-53.85625 16.16943359 -52.61875 16.21777344 -51.34375 16.26757812 C-49.44109375 16.35168945 -49.44109375 16.35168945 -47.5 16.4375 C-45.5509375 16.51581055 -45.5509375 16.51581055 -43.5625 16.59570312 C-40.37471154 16.72462104 -37.18729782 16.85955252 -34 17 C-34 14.03 -34 11.06 -34 8 C-29.80249761 6.85425706 -25.60327335 5.71512602 -21.40234375 4.58203125 C-19.97412023 4.19581473 -18.54637896 3.8078102 -17.11914062 3.41796875 C-15.06505153 2.85724248 -13.00930189 2.30301429 -10.953125 1.75 C-9.71723633 1.41484375 -8.48134766 1.0796875 -7.20800781 0.734375 C-4 0 -4 0 0 0 Z " fill="#C41230" transform="translate(305,233)"/>
<path d="M0 0 C1.03833984 -0.020625 2.07667969 -0.04125 3.14648438 -0.0625 C13.84326932 -0.11615159 23.10577698 2.09958787 31.3125 9.25 C40.131357 19.27842592 40.28737337 33.93386019 40.5234375 46.56640625 C40.5378186 47.31325684 40.55219971 48.06010742 40.5670166 48.82958984 C40.62430381 51.94191978 40.67900578 55.05407643 40.71386719 58.16674805 C40.54024632 73.23402635 40.54024632 73.23402635 47.3125 86.25 C43.5625 91.125 43.5625 91.125 41.3125 92.25 C30.50351124 93.29506797 30.50351124 93.29506797 26.19140625 91.23828125 C23.73807896 89.20097953 22.07596303 86.89519454 20.3125 84.25 C19.69375 84.8275 19.075 85.405 18.4375 86 C8.63496092 93.05782814 -1.95888169 93.53605602 -13.6875 92.25 C-20.22024023 90.72205598 -26.31593686 87.90531527 -30.05859375 82.13671875 C-35.06135186 73.47755386 -36.09348219 65.16349204 -34.07421875 55.234375 C-31.30564297 46.50177474 -26.05891972 40.88630357 -18.125 36.4375 C-7.45154726 31.58444008 6.82587626 28.91430599 18.3125 32.25 C16.08516466 26.05626462 16.08516466 26.05626462 11.8125 21.25 C1.32230898 17.05392359 -10.19284518 19.02087544 -20.6875 22.25 C-22.93230642 16.63798394 -24.52098574 11.17863717 -25.6875 5.25 C-24.29471983 4.59760842 -22.89810788 3.95339448 -21.5 3.3125 C-20.72269531 2.95285156 -19.94539063 2.59320313 -19.14453125 2.22265625 C-12.93109096 -0.23703633 -6.58296703 0.03209247 0 0 Z M-10.3125 54.875 C-12.95185656 59.4338886 -13.3499613 63.00475845 -12.6875 68.25 C-10.53419742 71.86447219 -8.53168966 73.66505381 -4.6875 75.25 C1.51279676 76.04970327 6.85980762 75.4574661 12.3125 72.25 C15.43653505 69.3531675 17.6047794 66.5037733 18.3125 62.25 C18.38040675 60.00092848 18.39749984 57.74998395 18.375 55.5 C18.36597656 54.32953125 18.35695313 53.1590625 18.34765625 51.953125 C18.33605469 51.06109375 18.32445312 50.1690625 18.3125 49.25 C8.94823612 46.12857871 -3.21367111 47.77617111 -10.3125 54.875 Z " fill="#1C1D1D" transform="translate(420.6875,319.75)"/>
<path d="M0 0 C11.93449106 -0.38360864 21.64729056 2.50036995 31.6875 8.8046875 C42.05653393 19.17372143 45.83408252 31.7958748 46.25 46.1796875 C46.11015283 59.69824682 42.79619172 73.32099578 33 83.1171875 C20.56348444 92.66749284 8.32122107 94.30195112 -7 93.1171875 C-18.34375102 90.98261069 -27.49670131 84.62687732 -34 75.1171875 C-41.04331619 61.12155404 -42.69307149 44.07085317 -38.4375 28.8671875 C-34.64333151 18.66952764 -27.84952234 9.63327563 -18.0703125 4.61328125 C-12.01630551 1.96370961 -6.60985305 0.38729608 0 0 Z M-11.8125 24.9296875 C-18.40405233 34.5345209 -19.09457368 44.98319963 -17.57421875 56.28125 C-16.12706819 63.29504721 -13.69396682 68.58525472 -8 73.1171875 C-1.91024041 76.15708386 4.89939235 76.11172203 11.3125 74.0546875 C17.09709114 69.88440087 20.74672555 65.2231994 22.52734375 58.25 C24.11734769 47.7112962 24.69204116 35.52070579 19 26.1171875 C14.58565434 20.96014387 9.94390975 18.40675239 3.1875 17.7421875 C-3.05450785 17.93062547 -7.47284725 20.59003475 -11.8125 24.9296875 Z " fill="#1C1D1D" transform="translate(643,154.8828125)"/>
<path d="M0 0 C8.20730055 6.92757593 12.08352523 13.62317465 13.625 24.25 C13.70783851 26.34228997 13.74286963 28.43683702 13.73852539 30.53076172 C13.73841209 32.36198074 13.73841209 32.36198074 13.73829651 34.23019409 C13.73313522 35.53352692 13.72797394 36.83685974 13.72265625 38.1796875 C13.72078901 39.53874662 13.71936655 40.89780642 13.71836853 42.25686646 C13.71456748 45.81768686 13.70475802 49.37846587 13.69366455 52.93927002 C13.68339835 56.57929932 13.67885979 60.21933537 13.67382812 63.859375 C13.66313339 70.98960179 13.64555635 78.11979382 13.625 85.25 C6.365 85.25 -0.895 85.25 -8.375 85.25 C-8.38958252 83.53490234 -8.40416504 81.81980469 -8.41918945 80.05273438 C-8.4710138 74.36089099 -8.53634544 68.66930771 -8.61071491 62.97771454 C-8.65528042 59.52976355 -8.69456587 56.08192696 -8.72143555 52.63378906 C-8.75262537 48.66185767 -8.80740877 44.69041378 -8.86328125 40.71875 C-8.86967117 39.49136108 -8.8760611 38.26397217 -8.88264465 36.99938965 C-8.99516642 30.40185266 -9.44524359 25.20703957 -12.375 19.25 C-17.58743734 14.2918279 -21.24696182 13.91046731 -28.25390625 13.9609375 C-33.35803544 14.43366035 -36.92328611 16.40529162 -40.94929504 19.43452454 C-43.02784448 22.08132428 -42.77458783 24.12804133 -42.80737305 27.46557617 C-42.82716721 28.7466777 -42.84696136 30.02777924 -42.86735535 31.34770203 C-42.87412514 32.74612278 -42.88057201 34.14454512 -42.88671875 35.54296875 C-42.90356354 36.97359261 -42.92171351 38.40420164 -42.94111633 39.83479309 C-42.98864482 43.59780242 -43.01843541 47.36075169 -43.04455566 51.1239624 C-43.07434705 54.96492377 -43.12088218 58.80567807 -43.16601562 62.64648438 C-43.2520812 70.18090471 -43.3178639 77.71529457 -43.375 85.25 C-50.635 85.25 -57.895 85.25 -65.375 85.25 C-65.375 55.88 -65.375 26.51 -65.375 -3.75 C-60.095 -3.75 -54.815 -3.75 -49.375 -3.75 C-46.375 1.25 -46.375 1.25 -46.375 3.25 C-45.86453125 2.85167969 -45.3540625 2.45335937 -44.828125 2.04296875 C-32.18729783 -7.16869786 -13.31750622 -9.52341745 0 0 Z " fill="#1C1D1D" transform="translate(769.375,160.75)"/>
<path d="M0 0 C7.26 0 14.52 0 22 0 C22 33.66 22 67.32 22 102 C40.15 102 58.3 102 77 102 C77 108.6 77 115.2 77 122 C51.59 122 26.18 122 0 122 C0 81.74 0 41.48 0 0 Z " fill="#1C1D1D" transform="translate(300,289)"/>
<path d="M0 0 C7.59 0 15.18 0 23 0 C23.06816414 10.54551727 23.12303804 21.09088479 23.15543652 31.63657379 C23.17099732 36.53498107 23.19205721 41.43322796 23.22631836 46.33154297 C23.2592578 51.0713302 23.27692478 55.81096455 23.28463173 60.55085754 C23.2901139 62.34628196 23.3008162 64.14169938 23.31719017 65.9370575 C23.44752704 80.84029703 23.15298672 95.9707016 15 109 C14.443125 109.9075 13.88625 110.815 13.3125 111.75 C3.19322831 121.59577786 -9.10617212 123.50180594 -22.64697266 123.421875 C-33.00262796 123.12482657 -41.37995692 120.1866757 -49 113 C-53.93795443 107.12783797 -56.27222168 99.63581819 -56 92 C-52.75068073 91.82544979 -49.50256552 91.71908247 -46.25 91.625 C-45.32960938 91.57472656 -44.40921875 91.52445312 -43.4609375 91.47265625 C-40.846506 91.41582078 -38.55458421 91.43259846 -36 92 C-33.484375 94.91015625 -33.484375 94.91015625 -32 98 C-27.37346918 102.19279356 -22.56043951 102.2996751 -16.53515625 102.2109375 C-12.63800961 101.88667568 -10.37977923 101.02786754 -7 99 C-1.5631707 92.53458137 -0.70367852 85.43407715 -0.68115234 77.31079102 C-0.66608391 76.05104713 -0.66608391 76.05104713 -0.65071106 74.76585388 C-0.62001623 72.01187779 -0.60288226 69.25799831 -0.5859375 66.50390625 C-0.56721482 64.58576128 -0.54764059 62.66762445 -0.5272522 60.74949646 C-0.47604127 55.71738496 -0.43635657 50.68524678 -0.39910889 45.65301514 C-0.3589999 40.51144879 -0.30793906 35.36999234 -0.2578125 30.22851562 C-0.1611839 20.15241347 -0.07775043 10.07626553 0 0 Z " fill="#1C1D1D" transform="translate(100,125)"/>
<path d="M0 0 C1.06541016 -0.0009668 1.06541016 -0.0009668 2.15234375 -0.00195312 C7.4538872 0.0512558 12.19631527 0.72573294 17.3125 2.1875 C18.95930455 6.22965662 17.55409458 8.96568603 16 12.875 C15.55011719 14.03386719 15.10023438 15.19273437 14.63671875 16.38671875 C13.3125 19.1875 13.3125 19.1875 11.3125 20.1875 C9.55303716 19.85975692 7.80371118 19.47639446 6.0625 19.0625 C1.11473324 18.07683742 -1.37463961 18.31225974 -5.6875 21.1875 C-6.3475 21.1875 -7.0075 21.1875 -7.6875 21.1875 C-9.93835565 26.01076211 -10.71668957 30.98672985 -11.6875 36.1875 C-5.7475 36.1875 0.1925 36.1875 6.3125 36.1875 C6.3125 42.1275 6.3125 48.0675 6.3125 54.1875 C0.3725 54.1875 -5.5675 54.1875 -11.6875 54.1875 C-11.6875 77.6175 -11.6875 101.0475 -11.6875 125.1875 C-18.9475 125.1875 -26.2075 125.1875 -33.6875 125.1875 C-33.6875 101.7575 -33.6875 78.3275 -33.6875 54.1875 C-37.9775 54.1875 -42.2675 54.1875 -46.6875 54.1875 C-46.6875 48.2475 -46.6875 42.3075 -46.6875 36.1875 C-42.3975 36.1875 -38.1075 36.1875 -33.6875 36.1875 C-33.460625 34.24875 -33.23375 32.31 -33 30.3125 C-31.55394886 21.00923391 -27.86930991 12.51586613 -20.6875 6.1875 C-13.76471854 1.54417097 -8.30377856 -0.00771727 0 0 Z " fill="#1C1D1D" transform="translate(341.6875,120.8125)"/>
<path d="M0 0 C-1.86763181 5.72210596 -3.85289032 11.37661751 -6 17 C-6.86882812 16.82082031 -7.73765625 16.64164063 -8.6328125 16.45703125 C-15.6229452 15.07944735 -15.6229452 15.07944735 -22.5625 16 C-28.66202916 21.00474188 -29.23340262 25.05031181 -31 33 C-24.73 33 -18.46 33 -12 33 C-12 38.94 -12 44.88 -12 51 C-17.94 51 -23.88 51 -30 51 C-30 74.43 -30 97.86 -30 122 C-37.26 122 -44.52 122 -52 122 C-52 98.57 -52 75.14 -52 51 C-56.29 51 -60.58 51 -65 51 C-65 45.06 -65 39.12 -65 33 C-60.71 33 -56.42 33 -52 33 C-52.0825 32.0925 -52.165 31.185 -52.25 30.25 C-52.20866632 20.06124712 -47.21904353 11.39096497 -40.33984375 4.28515625 C-29.65380896 -5.67062559 -12.99455893 -5.36384742 0 0 Z " fill="#1C1D1D" transform="translate(298,124)"/>
<path d="M0 0 C-0.68416434 4.17576168 -2.01365009 7.88080407 -3.5625 11.8125 C-4.01753906 12.97394531 -4.47257813 14.13539063 -4.94140625 15.33203125 C-5.46541016 16.65267578 -5.46541016 16.65267578 -6 18 C-6.53109375 17.72285156 -7.0621875 17.44570312 -7.609375 17.16015625 C-8.31578125 16.79792969 -9.0221875 16.43570313 -9.75 16.0625 C-10.44609375 15.70285156 -11.1421875 15.34320313 -11.859375 14.97265625 C-15.96349631 13.10782741 -19.5017329 12.86375433 -24 12.875 C-25.03125 12.87242187 -26.0625 12.86984375 -27.125 12.8671875 C-29.59657009 12.98136329 -31.6442958 13.28649344 -34 14 C-35.19947453 18.85108277 -35.19947453 18.85108277 -33.6875 23.4296875 C-29.75927824 27.18662052 -25.22590604 28.86529703 -20.25 30.9375 C-9.46276162 35.45862197 -0.96557527 39.67229194 4.25 50.625 C6.42807497 60.42633736 5.29674297 68.68267263 0.0625 77.125 C-5.23223701 83.03502755 -14.29024265 86.67321681 -22.10302734 87.12036133 C-35.66648412 87.58640753 -45.93830076 86.47757922 -58 80 C-56.65150163 75.64029169 -54.95092154 71.68658562 -52.875 67.625 C-52.33617187 66.56539063 -51.79734375 65.50578125 -51.2421875 64.4140625 C-50.83226562 63.61742187 -50.42234375 62.82078125 -50 62 C-49.19175781 62.42152344 -48.38351562 62.84304687 -47.55078125 63.27734375 C-46.48214844 63.82519531 -45.41351562 64.37304688 -44.3125 64.9375 C-43.25675781 65.48277344 -42.20101562 66.02804688 -41.11328125 66.58984375 C-35.04348792 69.33914788 -29.10503599 69.80500933 -22.625 68.125 C-19.8703222 67.2789296 -19.8703222 67.2789296 -19 65 C-18.78622279 59.39296787 -18.78622279 59.39296787 -20 54 C-21.8008288 52.87114873 -21.8008288 52.87114873 -24 52 C-25.10831177 51.49605713 -25.10831177 51.49605713 -26.23901367 50.98193359 C-27.04056885 50.62437988 -27.84212402 50.26682617 -28.66796875 49.8984375 C-51.31529432 39.62396473 -51.31529432 39.62396473 -56.5625 29.75 C-59.29403218 22.40268428 -59.17593236 14.8140018 -56.0625 7.625 C-52.54716995 1.41325202 -47.30800618 -1.6106374 -40.875 -4.3125 C-26.9378859 -7.64528815 -13.0049808 -5.96758116 0 0 Z " fill="#1C1D1D" transform="translate(588,161)"/>
<path d="M0 0 C-0.61811534 4.55315948 -2.46765893 8.28459767 -4.5625 12.3125 C-4.89185547 12.95767578 -5.22121094 13.60285156 -5.56054688 14.26757812 C-6.36824255 15.84785228 -7.18337613 17.42432105 -8 19 C-12.75 18.125 -12.75 18.125 -15 17 C-21.84422703 16.23674982 -26.48535628 16.80887077 -32 21 C-38.38252775 28.76253375 -38.31713576 36.88788244 -38.4140625 46.49609375 C-38.43342865 47.68477554 -38.4527948 48.87345734 -38.4727478 50.09815979 C-38.53231089 53.8778679 -38.5788363 57.65760684 -38.625 61.4375 C-38.66320114 64.00717441 -38.70225411 66.5768363 -38.7421875 69.14648438 C-38.83799351 75.43088742 -38.92211075 81.71535039 -39 88 C-46.26 88 -53.52 88 -61 88 C-61 58.63 -61 29.26 -61 -1 C-53.74 -1 -46.48 -1 -39 -1 C-38.67 0.98 -38.34 2.96 -38 5 C-36.9790625 4.1028125 -36.9790625 4.1028125 -35.9375 3.1875 C-26.16714712 -4.0882947 -11.08687136 -5.54343568 0 0 Z " fill="#1C1D1D" transform="translate(524,158)"/>
<path d="M0 0 C0 0.66 0 1.32 0 2 C1.051875 1.9175 2.10375 1.835 3.1875 1.75 C7.56887825 2.03730349 8.94845581 2.94845581 12 6 C15.74249798 13.48499595 14.78743318 25.89512921 12.82421875 33.859375 C10.65387125 39.49610689 6.31537394 43.34231303 1 46 C-5.26230557 46.95878058 -11.57634834 46.72211531 -17.1171875 43.46484375 C-22.85573724 39.00020443 -27.16440552 34.10957082 -29 27 C-30.18713159 17.15305584 -28.41901968 10.30066678 -22.7890625 2.2734375 C-17.36789438 -3.60770852 -7.01245134 -1.59314537 0 0 Z " fill="#D35F58" transform="translate(106,264)"/>
<path d="M0 0 C3.2619332 1.85337114 3.46528353 2.73544676 4.625 6.1875 C5.02352093 7.63958201 5.40612694 9.09651486 5.75 10.5625 C6.08 10.5625 6.41 10.5625 6.75 10.5625 C7.28568325 17.12461984 6.84981101 21.27590159 2.75 26.5625 C-0.94085326 28.36866223 -4.16013776 28.91305962 -8.25 28.5625 C-8.58 28.2325 -8.91 27.9025 -9.25 27.5625 C-10.384375 27.418125 -11.51875 27.27375 -12.6875 27.125 C-16.25 26.5625 -16.25 26.5625 -18.25 24.5625 C-18.64764263 22.57428687 -18.98775349 20.57305661 -19.25 18.5625 C-19.91 18.8925 -20.57 19.2225 -21.25 19.5625 C-21.85152372 8.28949988 -21.85152372 8.28949988 -18.25 3.5625 C-12.30450242 -0.7225433 -7.14519895 -0.9618537 0 0 Z " fill="#E59C8F" transform="translate(102.25,272.4375)"/>
<path d="M0 0 C3.125 1.875 3.125 1.875 6 4 C6.928125 4.37125 7.85625 4.7425 8.8125 5.125 C11 6 11 6 12 8 C12.0716735 10.55157655 12.09308442 13.07472971 12.0625 15.625 C12.05798828 16.33140625 12.05347656 17.0378125 12.04882812 17.765625 C12.03703875 19.51045275 12.01910324 21.255237 12 23 C12.66 23 13.32 23 14 23 C14 21.35 14 19.7 14 18 C14.66 17.67 15.32 17.34 16 17 C16.07777008 23.04384658 15.83101329 27.75567593 11.8125 32.5 C7.11236826 37.13366523 3.25660383 39.13462238 -3.375 39.5 C-9.00764814 39.32374026 -12.89094965 37.88615375 -17 34 C-20.61211113 29.20135236 -22.14709007 24.51892306 -22.1875 18.5625 C-22.20167969 17.61503906 -22.21585937 16.66757812 -22.23046875 15.69140625 C-21.89112617 11.72857512 -20.9081434 9.83100381 -17.9765625 7.1484375 C-17.20054688 6.56320312 -16.42453125 5.97796875 -15.625 5.375 C-14.85414062 4.78460938 -14.08328125 4.19421875 -13.2890625 3.5859375 C-8.70186699 0.40777815 -5.68656334 -0.58826517 0 0 Z M-15 9 C-18.75710141 13.9311956 -18.31635717 19.07123237 -18 25 C-17.34 24.67 -16.68 24.34 -16 24 C-15.690625 25.134375 -15.38125 26.26875 -15.0625 27.4375 C-14.37075469 30.78775099 -14.37075469 30.78775099 -13 32 C-11.845 32.165 -10.69 32.33 -9.5 32.5 C-6 33 -6 33 -5 34 C-0.15329198 34.14019403 3.15473435 33.66916864 7 30.625 C9.68956071 27.09495157 10.12499591 24.62471748 10.0625 20.3125 C10.05347656 19.50425781 10.04445313 18.69601562 10.03515625 17.86328125 C10.02355469 17.24839844 10.01195313 16.63351562 10 16 C9.67 16 9.34 16 9 16 C8.77957031 15.06027344 8.77957031 15.06027344 8.5546875 14.1015625 C7.86878771 11.60236442 7.13406146 9.33207375 6 7 C-0.9746623 3.03712369 -8.71161824 4.46783296 -15 9 Z " fill="#DD8175" transform="translate(99,267)"/>
<path d="M0 0 C0.83764268 1.95649397 1.66999059 3.91525556 2.5 5.875 C2.9640625 6.96554688 3.428125 8.05609375 3.90625 9.1796875 C5 12 5 12 5 14 C0.74648419 15.42605613 -3.50767504 16.85017079 -7.76245117 18.27246094 C-9.21087362 18.75694841 -10.65911641 19.24197332 -12.10717773 19.72753906 C-14.18426676 20.42392882 -16.26198659 21.11840605 -18.33984375 21.8125 C-19.59144287 22.23144531 -20.84304199 22.65039062 -22.13256836 23.08203125 C-25 24 -25 24 -26 24 C-26 18.39 -26 12.78 -26 7 C-22.41884854 5.82624467 -18.83536212 4.66076099 -15.25 3.5 C-13.72632813 2.99919922 -13.72632813 2.99919922 -12.171875 2.48828125 C-11.1921875 2.17246094 -10.2125 1.85664063 -9.203125 1.53125 C-8.30239258 1.23798828 -7.40166016 0.94472656 -6.47363281 0.64257812 C-4 0 -4 0 0 0 Z " fill="#C41230" transform="translate(359,217)"/>
<path d="M0 0 C5.98790721 5.94789892 8.98516067 12.00226509 9.07617188 20.61523438 C9.07294922 21.29650391 9.06972656 21.97777344 9.06640625 22.6796875 C9.08251953 23.35708984 9.09863281 24.03449219 9.11523438 24.73242188 C9.12143405 31.19867867 7.62985226 35.77691073 3.12890625 40.4921875 C-0.56175596 43.31610328 -4.81271347 44.53039689 -9.24609375 45.7421875 C-7.47734813 43.91688316 -5.81803993 42.43184848 -3.74609375 40.9296875 C0.70968071 37.03088485 2.18733607 32.52120333 2.75390625 26.7421875 C2.89206525 23.73272416 2.85410545 20.75271808 2.75390625 17.7421875 C2.72554687 16.69417969 2.6971875 15.64617187 2.66796875 14.56640625 C2.61382812 13.49003906 2.5596875 12.41367187 2.50390625 11.3046875 C2.4575 10.29535156 2.41109375 9.28601563 2.36328125 8.24609375 C2.02122966 5.59280437 2.02122966 5.59280437 -0.23046875 4.45703125 C-0.895625 4.22113281 -1.56078125 3.98523438 -2.24609375 3.7421875 C-2.57609375 3.4121875 -2.90609375 3.0821875 -3.24609375 2.7421875 C-5.57427339 2.37458019 -7.90793225 2.03977169 -10.24609375 1.7421875 C-10.24609375 1.0821875 -10.24609375 0.4221875 -10.24609375 -0.2578125 C-15.52609375 -0.5878125 -20.80609375 -0.9178125 -26.24609375 -1.2578125 C-18.07779159 -7.38403912 -7.71909915 -6.5183504 0 0 Z " fill="#C82C39" transform="translate(116.24609375,264.2578125)"/>
<path d="M0 0 C2.12109375 0.37109375 2.12109375 0.37109375 5.12109375 2.37109375 C6.7141486 4.90627781 7.69711422 7.40323705 8.12109375 10.37109375 C6.66525148 13.23078393 5.37130769 15.12087981 3.12109375 17.37109375 C-1.70046455 17.65471483 -5.38383506 17.12526787 -9.87890625 15.37109375 C-11.43822828 6.64228019 -11.43822828 6.64228019 -9.50390625 2.24609375 C-6.17852701 -0.12917714 -3.9961846 -0.11456178 0 0 Z " fill="#EEBDB1" transform="translate(97.87890625,278.62890625)"/>
<path d="M0 0 C0 5.94 0 11.88 0 18 C-4.455 19.485 -4.455 19.485 -9 21 C-9.66 15.39 -10.32 9.78 -11 4 C-2.25 0 -2.25 0 0 0 Z " fill="#C41230" transform="translate(460,178)"/>
<path d="M0 0 C1.93359375 1.4296875 1.93359375 1.4296875 2.93359375 3.4296875 C3.2741354 6.18894804 3.53897976 8.91041053 3.74609375 11.6796875 C3.82279297 12.43121094 3.89949219 13.18273437 3.97851562 13.95703125 C4.36997824 19.36204521 3.55142848 22.14785909 -0.06640625 26.4296875 C-2.20703125 28.546875 -2.20703125 28.546875 -4.31640625 30.3046875 C-5.0228125 30.90023437 -5.72921875 31.49578125 -6.45703125 32.109375 C-6.988125 32.54507813 -7.51921875 32.98078125 -8.06640625 33.4296875 C-10.70640625 32.4396875 -13.34640625 31.4496875 -16.06640625 30.4296875 C-16.06640625 29.7696875 -16.06640625 29.1096875 -16.06640625 28.4296875 C-15.03515625 28.4503125 -14.00390625 28.4709375 -12.94140625 28.4921875 C-9.45228348 28.43591133 -6.42571619 28.36716934 -3.06640625 27.4296875 C-1.65785959 25.61266892 -1.65785959 25.61266892 -1.06640625 23.4296875 C-0.73640625 22.4396875 -0.40640625 21.4496875 -0.06640625 20.4296875 C-0.02686391 18.09668925 -0.02238893 15.76260561 -0.06640625 13.4296875 C-0.39640625 13.4296875 -0.72640625 13.4296875 -1.06640625 13.4296875 C-1.21078125 12.3571875 -1.35515625 11.2846875 -1.50390625 10.1796875 C-1.90530598 7.50368931 -2.38158018 5.03087559 -3.06640625 2.4296875 C-4.43925781 2.33880859 -4.43925781 2.33880859 -5.83984375 2.24609375 C-7.02835938 2.16230469 -8.216875 2.07851563 -9.44140625 1.9921875 C-10.62476562 1.91097656 -11.808125 1.82976562 -13.02734375 1.74609375 C-16.06640625 1.4296875 -16.06640625 1.4296875 -18.06640625 0.4296875 C-10.97757198 -3.62753892 -7.14818247 -4.12609597 0 0 Z " fill="#DD8377" transform="translate(108.06640625,271.5703125)"/>
<path d="M0 0 C9.9 0 19.8 0 30 0 C27.23736046 1.84175969 24.99241374 2.83508872 21.89453125 3.9453125 C20.42016602 4.47705078 20.42016602 4.47705078 18.91601562 5.01953125 C17.37977539 5.56673828 17.37977539 5.56673828 15.8125 6.125 C14.77673828 6.49753906 13.74097656 6.87007812 12.67382812 7.25390625 C10.11715995 8.17289297 7.55920381 9.08810343 5 10 C1.8162018 6.40538913 0.98425899 4.92129494 0 0 Z " fill="#C41230" transform="translate(387,212)"/>
<path d="M0 0 C3.94090141 3.94090141 3.04577939 11.19601272 3.1875 16.5625 C3.04031173 24.14938616 1.89618464 29.75865833 -3.26953125 35.4921875 C-7.45369113 39.13797917 -10.55411638 40.40325374 -16.125 40.3125 C-17.15882812 40.30863281 -18.19265625 40.30476563 -19.2578125 40.30078125 C-22 40 -22 40 -25 38 C-23 37 -23 37 -19.875 37.1875 C-14.52848615 36.92879772 -10.45472881 35.25809679 -6.48828125 31.609375 C-3.6783153 28.40280725 -1.52140201 24.97254968 0 21 C-0.30378052 18.31006947 -0.30378052 18.31006947 -1 16 C-0.67 15.34 -0.34 14.68 0 14 C0.07116382 11.62597499 0.08409085 9.24999323 0.0625 6.875 C0.05347656 5.59367187 0.04445313 4.31234375 0.03515625 2.9921875 C0.02355469 2.00476563 0.01195313 1.01734375 0 0 Z " fill="#CF524E" transform="translate(117,270)"/>
<path d="M0 0 C2.9375 2.3125 2.9375 2.3125 5 5 C5 5.99 5 6.98 5 8 C5.66 8 6.32 8 7 8 C7.4560284 13.70035501 6.60412752 16.54784247 3 21 C0.08681871 22.45659065 -2.27688116 21.88883937 -5.5 21.625 C-7.24796875 21.48964844 -7.24796875 21.48964844 -9.03125 21.3515625 C-12 21 -12 21 -14 20 C-14 18.02 -14 16.04 -14 14 C-14.66 14 -15.32 14 -16 14 C-15.63303189 6.7829605 -15.63303189 6.7829605 -12.625 3.0625 C-8.5058506 -0.17397453 -5.14975021 -0.53273278 0 0 Z M-11.625 4.875 C-13.61545537 9.3987622 -12.85246431 13.22805304 -12 18 C-7.51583824 19.74991678 -3.81205254 20.62378459 1 20 C3.66570809 17.40444213 4.825604 15.523188 6 12 C5.32495758 9.93120548 5.32495758 9.93120548 4.1875 7.875 C3.65189453 6.81925781 3.65189453 6.81925781 3.10546875 5.7421875 C2.10791056 3.83911532 2.10791056 3.83911532 0 3 C-4.48848579 2.39344787 -7.86499343 2.18928102 -11.625 4.875 Z " fill="#E9AB9F" transform="translate(100,276)"/>
<path d="M0 0 C2 1 2 1 2.88671875 3.1171875 C5.18002986 11.01512723 5.62850139 18.11449584 3 26 C2.34 26.33 1.68 26.66 1 27 C0.62875 28.093125 0.2575 29.18625 -0.125 30.3125 C-1.76272707 34.42803176 -4.25572878 35.66558796 -8.16015625 37.46875 C-10 38 -10 38 -12 37 C-11.45730469 36.63648438 -10.91460937 36.27296875 -10.35546875 35.8984375 C-4.97531306 32.11778756 -1.89021054 29.06776759 -0.4375 22.4296875 C0.13059905 17.9761967 0.10639104 13.60863843 0.0625 9.125 C0.05798828 8.24585938 0.05347656 7.36671875 0.04882812 6.4609375 C0.03712337 4.30726197 0.01919069 2.15362183 0 0 Z " fill="#CB3E42" transform="translate(119,272)"/>
<path d="M0 0 C1.41441874 2.82883747 1.31900332 4.87376745 1 8 C-0.625 9.9375 -0.625 9.9375 -3 11 C-8.42553191 10.57446809 -8.42553191 10.57446809 -10 9 C-9.94921875 6.96875 -9.94921875 6.96875 -9.6875 4.5 C-9.60886719 3.6853125 -9.53023438 2.870625 -9.44921875 2.03125 C-9.30097656 1.3609375 -9.15273437 0.690625 -9 0 C-5.88173308 -1.55913346 -3.32926126 -0.66585225 0 0 Z " fill="#F5D5CC" transform="translate(101,282)"/>
<path d="M0 0 C2.63786581 2.63786581 3.25135674 4.8766629 4.0078125 8.484375 C3.99290986 13.28302369 0.97523679 16.47090052 -2 20 C-2.598125 20.78375 -3.19625 21.5675 -3.8125 22.375 C-9.04643621 26.2630669 -15.53282769 27.61816945 -21.98046875 27.4375 C-25.32865432 26.71216773 -26.97071315 24.61843465 -29 22 C-27.92685547 22.48146484 -27.92685547 22.48146484 -26.83203125 22.97265625 C-21.61211232 24.86622684 -15.85624642 25.14819208 -10.6484375 23.0546875 C-6.67658914 20.68942949 -3.22657468 18.09689742 -1 14 C-0.19878599 9.34337159 0 4.71794798 0 0 Z " fill="#D66A60" transform="translate(114,281)"/>
<path d="M0 0 C0 0.99 0 1.98 0 3 C-0.969375 2.87625 -1.93875 2.7525 -2.9375 2.625 C-8.22849893 2.58180817 -11.99657068 5.85270118 -16 9 C-19.07660604 12.07660604 -18.98253612 14.34335819 -19.09765625 18.671875 C-19.09105717 20.03128449 -19.07920246 21.3906771 -19.0625 22.75 C-19.05798828 23.44738281 -19.05347656 24.14476562 -19.04882812 24.86328125 C-19.0371002 26.57555803 -19.01916653 28.28779033 -19 30 C-21.66100281 26.00849579 -22.15561879 23.26179075 -22.1875 18.5625 C-22.20167969 17.61503906 -22.21585937 16.66757812 -22.23046875 15.69140625 C-21.89112617 11.72857512 -20.9081434 9.83100381 -17.9765625 7.1484375 C-17.20054688 6.56320312 -16.42453125 5.97796875 -15.625 5.375 C-14.85414062 4.78460938 -14.08328125 4.19421875 -13.2890625 3.5859375 C-8.61818693 0.34980186 -5.75927101 -0.22151042 0 0 Z " fill="#D97569" transform="translate(99,267)"/>
<path d="M0 0 C0.66 0 1.32 0 2 0 C3.21875 1.3203125 3.21875 1.3203125 4.5 3.125 C4.9228125 3.70507812 5.345625 4.28515625 5.78125 4.8828125 C8.76465878 10.06552904 9.3403366 15.05284339 9.3125 20.9375 C9.32861328 21.61490234 9.34472656 22.29230469 9.36132812 22.99023438 C9.36625908 28.13321866 8.34204544 31.52680422 6 36 C3.3125 38.4375 3.3125 38.4375 1 40 C1.8125 36.5625 1.8125 36.5625 3 33 C4.485 32.505 4.485 32.505 6 32 C7.05965766 23.25463256 7.63242362 15.24096107 4 7 C3.34 6.67 2.68 6.34 2 6 C1.27306096 4.02111039 0.60183749 2.02045442 0 0 Z " fill="#C72537" transform="translate(116,266)"/>
<path d="M0 0 C0.33 0 0.66 0 1 0 C1.92622207 4.53043404 2.53571281 7.83540693 0.5625 12.125 C-2.68536685 15.76894817 -6.23039091 18.90745662 -10 22 C-12.64 21.01 -15.28 20.02 -18 19 C-18 18.34 -18 17.68 -18 17 C-16.453125 17.0309375 -16.453125 17.0309375 -14.875 17.0625 C-11.38587723 17.00622383 -8.35930994 16.93748184 -5 16 C-3.01244402 12.94818532 -2.50289518 9.87116376 -1.9375 6.3125 C-1.10252366 1.10252366 -1.10252366 1.10252366 0 0 Z " fill="#E08A7E" transform="translate(110,283)"/>
<path d="M0 0 C0.33 0 0.66 0 1 0 C1.07777008 6.04384658 0.83101329 10.75567593 -3.1875 15.5 C-7.71621372 19.98278356 -11.43885944 22.13721765 -17.875 22.1875 C-19.25059402 22.1398309 -20.62605116 22.08243693 -22 22 C-21.67 21.34 -21.34 20.68 -21 20 C-20.01 20.144375 -19.02 20.28875 -18 20.4375 C-13.40062374 20.4375 -10.9956591 18.07260041 -7.79296875 15 C-3.82168105 10.57015403 -1.67065681 5.70807744 0 0 Z " fill="#DA786D" transform="translate(114,284)"/>
<path d="M0 0 C0 0.66 0 1.32 0 2 C-0.95261719 1.97679687 -1.90523437 1.95359375 -2.88671875 1.9296875 C-4.14097656 1.91164063 -5.39523438 1.89359375 -6.6875 1.875 C-7.92886719 1.85179687 -9.17023438 1.82859375 -10.44921875 1.8046875 C-13.85487953 1.99201758 -16.01545226 2.39668579 -19 4 C-22.02260446 8.53390669 -22.54305677 12.69945855 -23 18 C-23.33 18 -23.66 18 -24 18 C-24.60152372 6.72699988 -24.60152372 6.72699988 -21 2 C-14.17455442 -2.91924006 -7.77371284 -3.03364404 0 0 Z " fill="#E19084" transform="translate(105,274)"/>
<path d="M0 0 C0 0.66 0 1.32 0 2 C-2.86417332 1.60219815 -4.62347144 1.3137738 -6.875 -0.5625 C-10.1041364 -2.7469158 -12.16877791 -2.51082961 -16 -2 C-19.60249357 -0.27159775 -22.82860127 1.78595326 -25.609375 4.66796875 C-27 6 -27 6 -29 6 C-29.33 7.32 -29.66 8.64 -30 10 C-30.33 9.34 -30.66 8.68 -31 8 C-28.82701304 2.4468111 -26.20105143 -0.54242842 -20.76953125 -3.015625 C-12.56710957 -6.01682115 -7.44425235 -3.78889077 0 0 Z " fill="#D6695F" transform="translate(108,270)"/>
<path d="M0 0 C-3.07322544 0.91058531 -5.80097361 1.08886184 -9 1 C-9 3.97 -9 6.94 -9 10 C-7.02 10.66 -5.04 11.32 -3 12 C-3 12.33 -3 12.66 -3 13 C-6.375 13.125 -6.375 13.125 -10 13 C-12.40346379 10.59653621 -12.32083747 9.86099805 -12.375 6.5625 C-12.25314861 2.3586272 -12.25314861 2.3586272 -10.5 -0.125 C-6.74318881 -1.43988392 -3.89648901 -0.71435632 0 0 Z " fill="#F1C8BD" transform="translate(101,281)"/>
<path d="M0 0 C5.61094814 0.03095696 10.34690423 0.38202428 15.64453125 2.265625 C15.64453125 2.925625 15.64453125 3.585625 15.64453125 4.265625 C16.63453125 4.595625 17.62453125 4.925625 18.64453125 5.265625 C16.33453125 5.265625 14.02453125 5.265625 11.64453125 5.265625 C11.64453125 4.605625 11.64453125 3.945625 11.64453125 3.265625 C6.36453125 2.935625 1.08453125 2.605625 -4.35546875 2.265625 C-2.35546875 0.265625 -2.35546875 0.265625 0 0 Z " fill="#CC4344" transform="translate(94.35546875,260.734375)"/>
<path d="M0 0 C0 2.31 0 4.62 0 7 C-2.31 6.34 -4.62 5.68 -7 5 C-7 3.35 -7 1.7 -7 0 C-3.98968256 -0.93423645 -3.13349732 -1.04449911 0 0 Z " fill="#F9E7E2" transform="translate(100,284)"/>
<path d="M0 0 C1.70736328 0.03673828 1.70736328 0.03673828 3.44921875 0.07421875 C6.3125 0.3125 6.3125 0.3125 8.3125 1.3125 C8.3125 1.9725 8.3125 2.6325 8.3125 3.3125 C7.31669922 3.18681641 7.31669922 3.18681641 6.30078125 3.05859375 C-2.07394123 1.95113692 -2.07394123 1.95113692 -9.5 5.375 C-10.221875 6.014375 -10.94375 6.65375 -11.6875 7.3125 C-11.6875 4.3125 -11.6875 4.3125 -9.60546875 2.14453125 C-6.09367059 -0.06033266 -4.10803207 -0.13584143 0 0 Z " fill="#D0544F" transform="translate(94.6875,262.6875)"/>
<path d="M0 0 C1.77007714 -0.08114106 3.54122098 -0.13925505 5.3125 -0.1875 C6.29863281 -0.22230469 7.28476563 -0.25710938 8.30078125 -0.29296875 C11 0 11 0 12.8125 1.28125 C14.67369303 3.97508202 14.6982375 6.8013175 15 10 C12.4429149 7.77644774 11.75829088 6.24981807 11 3 C8.70370006 1.85185003 6.92301914 1.69230191 4.375 1.4375 C3.55773437 1.35371094 2.74046875 1.26992188 1.8984375 1.18359375 C1.27195312 1.12300781 0.64546875 1.06242187 0 1 C0 0.67 0 0.34 0 0 Z " fill="#EBB3A7" transform="translate(91,278)"/>
<path d="M0 0 C0.99 0.33 1.98 0.66 3 1 C-1.48548537 4.50086663 -4.30073675 5.64519961 -10 5 C-10.99 4.34 -11.98 3.68 -13 3 C-11 2 -11 2 -7.625 2.0625 C-4.13412188 2.00231245 -2.9359051 1.57280631 0 0 Z " fill="#D35E57" transform="translate(105,305)"/>
<path d="M0 0 C0.33 0 0.66 0 1 0 C1 2.31 1 4.62 1 7 C0.01 7.495 0.01 7.495 -1 8 C-0.67 5.36 -0.34 2.72 0 0 Z M-2 8 C-1.67 9.32 -1.34 10.64 -1 12 C-2.98 12.99 -2.98 12.99 -5 14 C-4.01 12.02 -3.02 10.04 -2 8 Z " fill="#D25C55" transform="translate(118,286)"/>
</svg>
