<?xml version="1.0" encoding="UTF-8"?>
<svg version="1.1" xmlns="http://www.w3.org/2000/svg" width="800" height="800">
<path d="M0 0 C264 0 528 0 800 0 C800 264 800 528 800 800 C536 800 272 800 0 800 C0 536 0 272 0 0 Z " fill="#FEFEFE" transform="translate(0,0)"/>
<path d="M0 0 C3.13417194 1.22562856 6.13657058 2.61711341 9.14453125 4.12109375 C15.00071986 4.86222965 19.23906591 4.06579989 24.3203125 1.09375 C29.19681847 -1.50635704 34.77177937 -1.65746429 40.14453125 -0.87890625 C43.83980475 0.51392761 47.3001176 2.07495495 50.84765625 3.80859375 C54.3233063 5.19226486 56.44904977 5.56414875 60.14453125 5.12109375 C62.53246497 4.06683236 62.53246497 4.06683236 64.76953125 2.62109375 C70.54155645 -0.42138941 75.72086173 -1.00834265 82.14453125 0.12109375 C86.10770061 1.82676157 89.10955112 4.08611362 92.14453125 7.12109375 C93.01526233 16.14804002 88.24295819 24.05338738 82.921875 31.0390625 C80.74693902 33.50498477 78.502727 35.83088202 76.14453125 38.12109375 C75.60441406 38.68183594 75.06429687 39.24257813 74.5078125 39.8203125 C63.29145455 50.58462579 47.11013237 54.67465946 32.00244141 54.61132812 C16.16818971 54.06543423 1.27925006 46.40237929 -9.53125 35 C-15.55320968 27.54086675 -22.34883321 17.21399129 -23.04296875 7.49609375 C-18.45790293 -1.6740379 -9.00592723 -2.77200223 0 0 Z " fill="#3B459D" transform="translate(132.85546875,404.87890625)"/>
<path d="M0 0 C2.97 0 5.94 0 9 0 C9 7.26 9 14.52 9 22 C10.98 22 12.96 22 15 22 C15 14.74 15 7.48 15 0 C17.64 0 20.28 0 23 0 C23 18.48 23 36.96 23 56 C20.36 56 17.72 56 15 56 C15 47.09 15 38.18 15 29 C13.02 29 11.04 29 9 29 C9 37.91 9 46.82 9 56 C6.03 56 3.06 56 0 56 C0 54.02 0 52.04 0 50 C-7.26 50 -14.52 50 -22 50 C-22 33.83 -22 17.66 -22 1 C-16.06 1 -10.12 1 -4 1 C-4 3.31 -4 5.62 -4 8 C-6.97 8 -9.94 8 -13 8 C-13 19.55 -13 31.1 -13 43 C-8.71 43 -4.42 43 0 43 C0 28.81 0 14.62 0 0 Z " fill="#3C479D" transform="translate(548,358)"/>
<path d="M0 0 C13.86 0 27.72 0 42 0 C42.061875 5.383125 42.12375 10.76625 42.1875 16.3125 C42.22846802 18.82484253 42.22846802 18.82484253 42.27026367 21.38793945 C42.34727373 29.70545031 41.88460686 37.0768164 39 45 C40.65 45 42.3 45 44 45 C44 46.98 44 48.96 44 51 C28.82 51 13.64 51 -2 51 C-2 49.02 -2 47.04 -2 45 C-0.02 45 1.96 45 4 45 C4 36.75 4 28.5 4 20 C6.64 20 9.28 20 12 20 C12 28.25 12 36.5 12 45 C13.98 45 15.96 45 18 45 C18 36.75 18 28.5 18 20 C20.64 20 23.28 20 26 20 C26 28.25 26 36.5 26 45 C27.65 45 29.3 45 31 45 C33.0334024 36.81143356 33.41644201 28.78354409 33.625 20.375 C33.74875 15.96125 33.8725 11.5475 34 7 C22.78 7 11.56 7 0 7 C0 4.69 0 2.38 0 0 Z " fill="#313B98" transform="translate(647,359)"/>
<path d="M0 0 C13.86 0 27.72 0 42 0 C42 15.75 42 15.75 41 21 C41.99 21 42.98 21 44 21 C44 22.98 44 24.96 44 27 C37.73 27 31.46 27 25 27 C25 29.31 25 31.62 25 34 C30.61 34 36.22 34 42 34 C42 40.93 42 47.86 42 55 C39.36 55 36.72 55 34 55 C34 50.38 34 45.76 34 41 C22.78 41 11.56 41 0 41 C0 39.02 0 37.04 0 35 C5.61 35 11.22 35 17 35 C17 32.36 17 29.72 17 27 C10.4 27 3.8 27 -3 27 C-3 24.69 -3 22.38 -3 20 C8.88 20 20.76 20 33 20 C33 15.71 33 11.42 33 7 C22.11 7 11.22 7 0 7 C0 4.69 0 2.38 0 0 Z " fill="#3B459D" transform="translate(352,359)"/>
<path d="M0 0 C1.98 0 3.96 0 6 0 C6 1.98 6 3.96 6 6 C7.12019531 5.94199219 8.24039063 5.88398438 9.39453125 5.82421875 C10.86714588 5.77732019 12.33980551 5.73182013 13.8125 5.6875 C14.55048828 5.64560547 15.28847656 5.60371094 16.04882812 5.56054688 C18.20703125 5.51171875 18.20703125 5.51171875 22 6 C24.43436945 9.24642612 25.53308112 12.33996049 26.38671875 16.2734375 C26.7105957 17.7584375 26.7105957 17.7584375 27.04101562 19.2734375 C27.36102539 20.80871094 27.36102539 20.80871094 27.6875 22.375 C27.91244141 23.39078125 28.13738281 24.4065625 28.36914062 25.453125 C29.49891987 30.74145338 30.28178556 35.59276358 30 41 C26.535 41.495 26.535 41.495 23 42 C20.6930876 36.20262883 20.11677608 30.27114469 19.375 24.125 C19.17390625 22.52011719 19.17390625 22.52011719 18.96875 20.8828125 C18.6403778 18.25583491 18.31763588 15.62829366 18 13 C15.525 12.505 15.525 12.505 13 12 C13.144375 13.30195313 13.28875 14.60390625 13.4375 15.9453125 C13.62516785 17.67185676 13.81265851 19.39842029 14 21.125 C14.09539062 21.9809375 14.19078125 22.836875 14.2890625 23.71875 C14.76845209 28.17022474 15.11765458 32.51441925 15 37 C9.25 36.125 9.25 36.125 7 35 C6.505 23.615 6.505 23.615 6 12 C4.02 12 2.04 12 0 12 C0 19.59 0 27.18 0 35 C-2.64 35.66 -5.28 36.32 -8 37 C-8.27733386 28.4488728 -7.52016163 20.41518047 -6 12 C-7.98 12 -9.96 12 -12 12 C-12.48036217 15.33316217 -12.95906904 18.66656013 -13.4375 22 C-13.57220703 22.93457031 -13.70691406 23.86914062 -13.84570312 24.83203125 C-14.6175 30.21578507 -15.34420885 35.60086513 -16 41 C-18.33294775 41.04241723 -20.66702567 41.04092937 -23 41 C-23.33 40.67 -23.66 40.34 -24 40 C-23.46848033 32.88637368 -22.08222379 26.02310081 -20.5625 19.0625 C-20.34529297 18.02287109 -20.12808594 16.98324219 -19.90429688 15.91210938 C-19.68966797 14.92146484 -19.47503906 13.93082031 -19.25390625 12.91015625 C-19.06127197 12.01433838 -18.8686377 11.11852051 -18.67016602 10.19555664 C-18 8 -18 8 -16 6 C-13.25514407 5.85492305 -10.61519457 5.81347577 -7.875 5.875 C-7.12089844 5.88402344 -6.36679688 5.89304687 -5.58984375 5.90234375 C-3.72642746 5.9259313 -1.86317407 5.96180281 0 6 C0 4.02 0 2.04 0 0 Z " fill="#36409A" transform="translate(165,366)"/>
<path d="M0 0 C2.97 0 5.94 0 9 0 C9 1.32 9 2.64 9 4 C11.64 4 14.28 4 17 4 C17 6.31 17 8.62 17 11 C15.35 11.33 13.7 11.66 12 12 C12.639375 12.9075 13.27875 13.815 13.9375 14.75 C18.27792303 21.58945447 17.73711517 30.12306187 17 38 C15.83332469 43.0851826 14.12438818 46.75725517 10.625 50.625 C7.37758583 52.32602647 5.61871981 52.60311997 2 52 C-2.66966619 49.55398438 -4.5308609 45.90349548 -6.26953125 41.11328125 C-8.34967776 32.24763008 -8.28837933 22.65582763 -3.97265625 14.50390625 C-3 13 -3 13 -2 12 C-3.65 11.67 -5.3 11.34 -7 11 C-7 8.69 -7 6.38 -7 4 C-4.69 4 -2.38 4 0 4 C0 2.68 0 1.36 0 0 Z " fill="#36419A" transform="translate(415,358)"/>
<path d="M0 0 C2.64 0 5.28 0 8 0 C8 7.59 8 15.18 8 23 C9.32 23 10.64 23 12 23 C12 15.41 12 7.82 12 0 C14.64 0 17.28 0 20 0 C20 18.48 20 36.96 20 56 C17.36 56 14.72 56 12 56 C12 47.09 12 38.18 12 29 C10.68 29 9.36 29 8 29 C8 37.91 8 46.82 8 56 C5.36 56 2.72 56 0 56 C0 37.52 0 19.04 0 0 Z " fill="#313B98" transform="translate(435,358)"/>
<path d="M0 0 C2.64 0 5.28 0 8 0 C8 1.32 8 2.64 8 4 C11.63 4 15.26 4 19 4 C19 5.98 19 7.96 19 10 C17.02 10.33 15.04 10.66 13 11 C13.99 11.598125 14.98 12.19625 16 12.8125 C18.22774594 14.67338563 18.93034805 15.72223647 19.64453125 18.5703125 C19.88109932 22.60847437 19.98283364 25.69209477 17.48828125 29.01171875 C12.30804104 33.49691625 8.61323312 34.29974782 1.828125 34.2109375 C-3.54178368 33.81041945 -6.73409398 32.39574253 -10.4375 28.3125 C-12.48805296 23.96532773 -12.60669457 21.77771974 -12 17 C-10 14 -10 14 -8 12 C-9.32 11.67 -10.64 11.34 -12 11 C-12 8.69 -12 6.38 -12 4 C-8.04 4 -4.08 4 0 4 C0 2.68 0 1.36 0 0 Z " fill="#343F9A" transform="translate(301,358)"/>
<path d="M0 0 C1.32195566 0.66913805 2.63390582 1.35825947 3.9375 2.0625 C11.47924515 5.65752878 22.01104753 4.90434332 30 3 C27.42126831 9.27865107 21.16543547 13.41728227 15.2578125 16.37109375 C12.85518484 17.34426489 10.47515652 18.23139876 8 19 C7.40832031 19.18949219 6.81664062 19.37898438 6.20703125 19.57421875 C-6.06257452 21.94127544 -18.23077994 20.14570082 -28.6953125 13.21484375 C-30.88992425 11.55300752 -32.96820229 9.85588449 -35 8 C-35.57492188 7.47664063 -36.14984375 6.95328125 -36.7421875 6.4140625 C-38 5 -38 5 -38 3 C-37.49855469 3.15855469 -36.99710938 3.31710937 -36.48046875 3.48046875 C-27.15090793 5.43453424 -17.21781181 4.99081742 -9 0 C-5.95949549 -1.52025226 -3.18059964 -0.8227806 0 0 Z " fill="#E0E1EF" transform="translate(172,423)"/>
<path d="M0 0 C2.64 0 5.28 0 8 0 C8 0.99 8 1.98 8 3 C11.63 3 15.26 3 19 3 C19 5.31 19 7.62 19 10 C18.01 10.33 17.02 10.66 16 11 C16.66 11.70125 17.32 12.4025 18 13.125 C20.38048785 16.54695128 20.66654852 17.91739029 20 22 C18.25281348 25.42717356 16.60876253 27.53172113 13.5625 29.875 C6.86895496 31.98875106 -0.20744096 32.29998438 -6.625 29.3125 C-9.99784983 26.02840937 -11.75082086 23.70865697 -12.4375 19 C-11.9001142 15.31506879 -10.51917486 13.67662329 -8 11 C-8.99 10.67 -9.98 10.34 -11 10 C-11 7.69 -11 5.38 -11 3 C-7.37 3 -3.74 3 0 3 C0 2.01 0 1.02 0 0 Z " fill="#38439B" transform="translate(596,358)"/>
<path d="M0 0 C0.74918701 0.00942627 1.49837402 0.01885254 2.27026367 0.02856445 C8.97127318 0.21208364 13.88535337 0.96556804 19.0625 5.625 C21.029017 9.23028117 21.21358158 11.32382575 20.5625 15.375 C17.20469788 19.72039098 12.98229465 22.88958458 7.42626953 23.67822266 C5.00619804 23.81394185 2.61113032 23.83345907 0.1875 23.8125 C-1.03066406 23.8424707 -1.03066406 23.8424707 -2.2734375 23.87304688 C-9.01375092 23.86764598 -14.39095579 22.13593069 -19.4375 17.5625 C-20.94833439 14.25754976 -20.94088122 11.96159119 -20.4375 8.375 C-15.18363664 1.36984885 -8.25609953 -0.15978356 0 0 Z " fill="#333E99" transform="translate(489.4375,391.625)"/>
<path d="M0 0 C3.81124879 2.28674927 5.28043115 3.81694854 7.125 7.875 C7.97483526 13.81418962 7.60665527 18.83260271 4.125 23.875 C-1.04908944 28.54430023 -4.26885607 29.23292578 -11.109375 29.15234375 C-15.01198363 28.76098046 -17.04741898 27.56120197 -19.875 24.875 C-23.64027324 19.72912658 -23.69754387 14.01666091 -22.875 7.875 C-18.31888462 -1.57472079 -9.50095961 -3.44000262 0 0 Z " fill="#333D99" transform="translate(488.875,359.125)"/>
<path d="M0 0 C0.66 0.33 1.32 0.66 2 1 C2.37872934 2.65694085 2.70250054 4.32656552 3 6 C3.350625 7.010625 3.70125 8.02125 4.0625 9.0625 C5 12 5 12 5 16 C3.29422658 16.65256456 1.58523911 17.29673041 -0.125 17.9375 C-1.07632813 18.29714844 -2.02765625 18.65679687 -3.0078125 19.02734375 C-8.94119983 20.95608193 -14.69369823 21.20872253 -20.875 21.25 C-22.02162109 21.2809375 -22.02162109 21.2809375 -23.19140625 21.3125 C-28.77996637 21.35045287 -32.87025037 20.22016499 -38 18 C-37.34 17.67 -36.68 17.34 -36 17 C-35.12493844 15.02324185 -35.12493844 15.02324185 -34.4375 12.6875 C-34.18871094 11.90761719 -33.93992188 11.12773437 -33.68359375 10.32421875 C-33.06643226 8.22586969 -32.52345498 6.12316469 -32 4 C-31.44650879 4.01571045 -30.89301758 4.0314209 -30.32275391 4.04760742 C-14.72046185 4.59299814 -14.72046185 4.59299814 0 0 Z " fill="#37429B" transform="translate(188,438)"/>
<path d="M0 0 C2.97 0 5.94 0 9 0 C9 5.61 9 11.22 9 17 C10.65 17 12.3 17 14 17 C14 19.31 14 21.62 14 24 C12.35 24 10.7 24 9 24 C9 29.61 9 35.22 9 41 C6.03 41 3.06 41 0 41 C0 27.47 0 13.94 0 0 Z " fill="#414BA0" transform="translate(325,358)"/>
<path d="M0 0 C13.53 0 27.06 0 41 0 C41 6.93 41 13.86 41 21 C38.36 21 35.72 21 33 21 C33 16.38 33 11.76 33 7 C22.11 7 11.22 7 0 7 C0 4.69 0 2.38 0 0 Z " fill="#3C469D" transform="translate(588,393)"/>
<path d="M0 0 C2.97 0 5.94 0 9 0 C9 1.98 9 3.96 9 6 C10.65 6 12.3 6 14 6 C14 7.98 14 9.96 14 12 C12.02 12 10.04 12 8 12 C8 14.64 8 17.28 8 20 C9.98 20 11.96 20 14 20 C14 21.98 14 23.96 14 26 C12.35 26 10.7 26 9 26 C9 27.98 9 29.96 9 32 C6.03 32 3.06 32 0 32 C0 21.44 0 10.88 0 0 Z " fill="#3B459D" transform="translate(501,358)"/>
<path d="M0 0 C2.64 0 5.28 0 8 0 C8 3.96 8 7.92 8 12 C18.56 12 29.12 12 40 12 C40 13.98 40 15.96 40 18 C26.8 18 13.6 18 0 18 C0 12.06 0 6.12 0 0 Z " fill="#303B97" transform="translate(294,395)"/>
<path d="M0 0 C4.45913214 0.31292155 7.68494277 0.569604 11.4375 3.0625 C15.57982637 5.6209957 19.24485981 5.79252337 24 5 C28.16518772 3.66928816 32.09300511 1.95349745 36 0 C42.15376834 -0.75972449 46.94988069 -0.32696725 52.5 2.5 C58.13542665 5.30170359 62.77122874 6.14047925 69 5 C71.95596414 3.86909024 74.70503388 2.59132508 77.4921875 1.09375 C80.21075416 -0.0919177 82.06787148 -0.21018842 85 0 C84.75390625 1.90234375 84.75390625 1.90234375 84 4 C82.21484375 4.94140625 82.21484375 4.94140625 79.9375 5.5625 C76.85179428 6.44970133 73.94805511 7.41811611 71 8.6875 C65.58357135 10.68922363 60.73490457 11.10906741 55.3125 8.91015625 C53.5776652 8.04021729 51.85942493 7.13596532 50.1640625 6.19140625 C46.00733746 3.90295654 42.69171024 3.68689316 38 4 C34.4888039 5.27055474 34.4888039 5.27055474 31.0625 7 C21.17318167 11.46321744 21.17318167 11.46321744 16 10 C12.54278722 8.59809195 9.19767399 7.06754525 5.85546875 5.41015625 C3.0309811 3.9344757 3.0309811 3.9344757 0 3 C0 2.01 0 1.02 0 0 Z " fill="#EBECF5" transform="translate(126,408)"/>
<path d="M0 0 C0.99 0.4021875 0.99 0.4021875 2 0.8125 C2.99 1.204375 3.98 1.59625 5 2 C6.175625 2.53625 7.35125 3.0725 8.5625 3.625 C14.86275483 5.92246135 21.63137592 6.29182921 27.93359375 3.875 C29.78706176 2.97011686 31.63618626 2.05627298 33.48046875 1.1328125 C37.47537362 -0.66334628 39.63128453 -0.6934469 44 0 C46.69504474 1.13369397 49.24034686 2.39774215 51.80078125 3.80859375 C56.73520653 6.48177263 61.51130904 6.72667176 67 6 C69.77211433 4.8833455 72.28516603 3.58802605 74.87109375 2.09375 C77 1 77 1 80 1 C79.80078125 2.828125 79.80078125 2.828125 79 5 C72.09068392 9.92596643 64.26872571 11.22987687 56 10 C51.77940374 8.73098851 47.93086972 6.96543486 44 5 C38.11577835 4.25531635 33.85237772 5.08474613 28.7265625 8.02734375 C23.5661385 10.93446044 17.72912527 10.63888427 12 10 C7.46955557 8.38757091 3.41654974 6.41654974 0 3 C0 2.01 0 1.02 0 0 Z " fill="#EEEFF6" transform="translate(128,415)"/>
<path d="M0 0 C2.64 0 5.28 0 8 0 C8 4.29 8 8.58 8 13 C9.98 13 11.96 13 14 13 C14 15.31 14 17.62 14 20 C12.02 20 10.04 20 8 20 C8 23.96 8 27.92 8 32 C5.36 32 2.72 32 0 32 C0 21.44 0 10.88 0 0 Z " fill="#333E99" transform="translate(621,358)"/>
<path d="M0 0 C6.93 0 13.86 0 21 0 C21.33 4.29 21.66 8.58 22 13 C18.7 13 15.4 13 12 13 C12 13.99 12 14.98 12 16 C14.97 16 17.94 16 21 16 C21 19.3 21 22.6 21 26 C19.35 26 17.7 26 16 26 C16 23.69 16 21.38 16 19 C10.72 19 5.44 19 0 19 C0 18.01 0 17.02 0 16 C2.64 16 5.28 16 8 16 C8 15.01 8 14.02 8 13 C5.03 13 2.06 13 -1 13 C-1 11.68 -1 10.36 -1 9 C7.415 8.505 7.415 8.505 16 8 C16.33 6.35 16.66 4.7 17 3 C11.39 3 5.78 3 0 3 C0 2.01 0 1.02 0 0 Z " fill="#3B459D" transform="translate(253,358)"/>
<path d="M0 0 C0 3 0 3 -1.43359375 4.6484375 C-11.24805437 13.10456146 -20.59206481 17.39064319 -33.625 17.25 C-34.71167969 17.26160156 -34.71167969 17.26160156 -35.8203125 17.2734375 C-40.25941067 17.25735381 -43.81818015 16.66217445 -48 15 C-45.09907498 13.06604999 -44.10325263 12.69868059 -40.8125 12.375 C-39.554375 12.25125 -38.29625 12.1275 -37 12 C-36.67 12.99 -36.34 13.98 -36 15 C-35.113125 14.690625 -34.22625 14.38125 -33.3125 14.0625 C-28.39034615 12.48369593 -25.07191703 11.69579276 -20 13 C-20.61875 12.71125 -21.2375 12.4225 -21.875 12.125 C-24 11 -24 11 -26 9 C-25.01 8.67 -24.02 8.34 -23 8 C-23 7.01 -23 6.02 -23 5 C-23.66 4.34 -24.32 3.68 -25 3 C-22.36496274 2.12165425 -20.62699023 1.83419011 -17.91015625 1.71875 C-16.73356445 1.66267578 -16.73356445 1.66267578 -15.53320312 1.60546875 C-14.71787109 1.57066406 -13.90253906 1.53585937 -13.0625 1.5 C-11.44905516 1.43079744 -9.83575961 1.35800143 -8.22265625 1.28125 C-7.50859619 1.25095703 -6.79453613 1.22066406 -6.05883789 1.18945312 C-3.9544122 0.99580504 -2.03345783 0.56505592 0 0 Z " fill="#F0F1F7" transform="translate(201,426)"/>
<path d="M0 0 C2.31 0 4.62 0 7 0 C7.144375 1.134375 7.28875 2.26875 7.4375 3.4375 C7.61171478 6.80777201 7.61171478 6.80777201 9 8 C9.66 5.36 10.32 2.72 11 0 C12.98 0 14.96 0 17 0 C17 6.27 17 12.54 17 19 C15.68 19 14.36 19 13 19 C12.67 17.02 12.34 15.04 12 13 C11.34 14.98 10.68 16.96 10 19 C8.68 18.67 7.36 18.34 6 18 C5.67 16.35 5.34 14.7 5 13 C4.67 14.98 4.34 16.96 4 19 C2.68 19 1.36 19 0 19 C0 12.73 0 6.46 0 0 Z " fill="#454FA2" transform="translate(403,424)"/>
<path d="M0 0 C1.98 0 3.96 0 6 0 C6.66 2.97 7.32 5.94 8 9 C8.66 6.03 9.32 3.06 10 0 C12.31 0 14.62 0 17 0 C17 6.27 17 12.54 17 19 C15.68 19 14.36 19 13 19 C12.67 16.69 12.34 14.38 12 12 C11.34 14.31 10.68 16.62 10 19 C8.68 19 7.36 19 6 19 C5.34 15.37 4.68 11.74 4 8 C3.67 11.63 3.34 15.26 3 19 C2.01 19 1.02 19 0 19 C0 12.73 0 6.46 0 0 Z " fill="#4852A3" transform="translate(331,424)"/>
<path d="M0 0 C10.75 -0.125 10.75 -0.125 13 1 C13.0809723 3.43816585 13.14046972 5.87364384 13.1875 8.3125 C13.22520508 9.34793945 13.22520508 9.34793945 13.26367188 10.40429688 C13.30551763 13.29165421 13.32708461 15.45772814 11.8125 17.96875 C9.36581972 19.36082671 7.60949328 19.29647376 4.8125 19.1875 C3.224375 19.125625 1.63625 19.06375 0 19 C0 12.73 0 6.46 0 0 Z " fill="#414BA0" transform="translate(470,424)"/>
<path d="M0 0 C3.375 0.875 3.375 0.875 5.375 2.875 C5.67578125 6.02734375 5.67578125 6.02734375 5.6875 9.8125 C5.70425781 11.05902344 5.72101563 12.30554688 5.73828125 13.58984375 C5.375 16.875 5.375 16.875 4.07421875 18.7890625 C1.1634965 20.64924821 -1.2924167 20.29157291 -4.625 19.875 C-6.93103268 17.62222442 -7.57563747 16.20230472 -8.05859375 13 C-8.05988281 11.96875 -8.06117188 10.9375 -8.0625 9.875 C-8.08183594 8.84375 -8.10117187 7.8125 -8.12109375 6.75 C-7.24612957 1.67934146 -5.08479803 -0.17533786 0 0 Z " fill="#4953A4" transform="translate(500.625,423.125)"/>
<path d="M0 0 C2.29000466 3.43500699 2.29748064 4.88728019 2.3125 8.9375 C2.32925781 9.97777344 2.34601563 11.01804687 2.36328125 12.08984375 C1.95622679 15.35065635 1.34616073 16.72395442 -1 19 C-6.86266417 19.73283302 -6.86266417 19.73283302 -9.69140625 17.91015625 C-11.68471636 15.00051851 -11.43387217 12.48271931 -11.4375 9 C-11.46650391 7.14375 -11.46650391 7.14375 -11.49609375 5.25 C-11 2 -11 2 -9.19921875 0.0546875 C-5.86191874 -1.54579386 -3.50607722 -0.90898298 0 0 Z " fill="#4852A3" transform="translate(279,424)"/>
<path d="M0 0 C1.80791016 -0.01160156 1.80791016 -0.01160156 3.65234375 -0.0234375 C7.27733207 0.40010065 9.1833372 1.17297363 12.0625 3.375 C12.875 5.5625 12.875 5.5625 13.0625 7.375 C8.93240368 10.65059363 5.93291533 11.5265725 0.6875 11.5625 C-0.71628906 11.58376953 -0.71628906 11.58376953 -2.1484375 11.60546875 C-6.25057904 11.26649627 -9.01787224 10.29462776 -11.9375 7.375 C-11.76694473 4.73139339 -11.20174851 3.63670153 -9.31640625 1.76953125 C-6.10342439 -0.11394088 -3.70447273 -0.02372128 0 0 Z " fill="#F9F9FC" transform="translate(488.9375,397.625)"/>
<path d="M0 0 C4.29 0 8.58 0 13 0 C13 2.64 13 5.28 13 8 C10.03 8 7.06 8 4 8 C4 8.99 4 9.98 4 11 C8.29 11 12.58 11 17 11 C17 7.37 17 3.74 17 0 C18.32 0 19.64 0 21 0 C21 4.95 21 9.9 21 15 C14.07 14.67 7.14 14.34 0 14 C0 11.03 0 8.06 0 5 C2.97 5 5.94 5 9 5 C9 4.34 9 3.68 9 3 C6.03 3 3.06 3 0 3 C0 2.01 0 1.02 0 0 Z " fill="#313B97" transform="translate(253,388)"/>
<path d="M0 0 C3.14595819 2.73201633 3.91970305 4.35762437 4.4375 8.5 C3.96443474 12.28452212 3.57240651 14.17865092 1 17 C-2.4375 18.125 -2.4375 18.125 -6 18 C-8.76302464 15.87459643 -9.78519992 14.24672623 -10.37890625 10.80078125 C-10.57396923 6.99390691 -10.44255367 4.69787309 -8.375 1.4375 C-5.25099332 -0.45334615 -3.59011393 -0.67314636 0 0 Z " fill="#F7F7FB" transform="translate(484,364)"/>
<path d="M0 0 C1.32 0 2.64 0 4 0 C5.97734422 4.96690036 6.30574808 9.18324337 6.25 14.4375 C6.25773437 15.16259766 6.26546875 15.88769531 6.2734375 16.63476562 C6.25613905 21.44806039 5.51688315 25.43129241 4 30 C0.125 29.125 0.125 29.125 -1 28 C-1.91394105 22.93119218 -2.18265112 18.00511787 -2.1875 12.875 C-2.19974609 12.18535156 -2.21199219 11.49570312 -2.22460938 10.78515625 C-2.23622211 6.7361813 -1.79261134 3.64190604 0 0 Z " fill="#F5F5FA" transform="translate(418,373)"/>
<path d="M0 0 C0.84933105 0.24447876 0.84933105 0.24447876 1.71582031 0.49389648 C4.07601117 1.01684172 6.13282157 1.11396742 8.546875 1.09765625 C9.39121094 1.09443359 10.23554688 1.09121094 11.10546875 1.08789062 C12.41451172 1.07532227 12.41451172 1.07532227 13.75 1.0625 C14.63816406 1.05798828 15.52632812 1.05347656 16.44140625 1.04882812 C18.62767329 1.037074 20.81380179 1.02064249 23 1 C22.67 1.99 22.34 2.98 22 4 C22.66 4 23.32 4 24 4 C24 5.32 24 6.64 24 8 C24.99 7.67 25.98 7.34 27 7 C27 7.99 27 8.98 27 10 C25.865625 10.28875 24.73125 10.5775 23.5625 10.875 C22.386875 11.24625 21.21125 11.6175 20 12 C19.67 12.66 19.34 13.32 19 14 C14.85673698 13.44410603 12.31241628 12.12349057 8.9375 9.6875 C8.10089844 9.09324219 7.26429688 8.49898438 6.40234375 7.88671875 C4.06602316 6.05185233 1.97862882 4.21624706 0 2 C0 1.34 0 0.68 0 0 Z " fill="#F5F6FA" transform="translate(134,426)"/>
<path d="M0 0 C1.65 0 3.3 0 5 0 C5.99 2.64 6.98 5.28 8 8 C8.33 5.36 8.66 2.72 9 0 C10.32 0 11.64 0 13 0 C13 6.27 13 12.54 13 19 C11.35 19 9.7 19 8 19 C7.01 16.03 6.02 13.06 5 10 C4.67 12.97 4.34 15.94 4 19 C2.68 19 1.36 19 0 19 C0 12.73 0 6.46 0 0 Z " fill="#4952A4" transform="translate(586,424)"/>
<path d="M0 0 C0 0.99 0 1.98 0 3 C0.99 3 1.98 3 3 3 C2.67 3.66 2.34 4.32 2 5 C2.99 5.99 3.98 6.98 5 8 C4.67 8.66 4.34 9.32 4 10 C3.34 10 2.68 10 2 10 C2 9.34 2 8.68 2 8 C1.01 8.495 1.01 8.495 0 9 C-0.33 9.99 -0.66 10.98 -1 12 C-3.97 11.505 -3.97 11.505 -7 11 C-7 12.32 -7 13.64 -7 15 C-6.22914063 14.71125 -5.45828125 14.4225 -4.6640625 14.125 C-3.66117188 13.75375 -2.65828125 13.3825 -1.625 13 C-0.62726563 12.62875 0.37046875 12.2575 1.3984375 11.875 C4 11 4 11 6 11 C5.67 12.65 5.34 14.3 5 16 C2 15 2 15 0 14 C0.33 14.99 0.66 15.98 1 17 C-0.98 17.33 -2.96 17.66 -5 18 C-5 19.32 -5 20.64 -5 22 C-2.01286106 21.30609329 -2.01286106 21.30609329 -0.75 19.4375 C1.97876849 17.1960116 4.60213991 17.8076683 8 18 C7.67 18.99 7.34 19.98 7 21 C6.34 21 5.68 21 5 21 C5 20.34 5 19.68 5 19 C4.01 19 3.02 19 2 19 C1.67 19.99 1.34 20.98 1 22 C3.31 22.33 5.62 22.66 8 23 C4.73386305 24.91302307 2.00554752 25.35674661 -1.75 25.625 C-2.73484375 25.69976562 -3.7196875 25.77453125 -4.734375 25.8515625 C-5.48203125 25.90054687 -6.2296875 25.94953125 -7 26 C-7.87890625 19.84765625 -7.87890625 19.84765625 -8 18 C-7.67 17.67 -7.34 17.34 -7 17 C-7.66 17 -8.32 17 -9 17 C-9.66 15.35 -10.32 13.7 -11 12 C-9.71086513 11.32845067 -8.41859796 10.66291141 -7.125 10 C-6.40570313 9.62875 -5.68640625 9.2575 -4.9453125 8.875 C-3 8 -3 8 -1 8 C-1 7.34 -1 6.68 -1 6 C-1.62648437 6.30035156 -2.25296875 6.60070312 -2.8984375 6.91015625 C-3.71570313 7.29042969 -4.53296875 7.67070312 -5.375 8.0625 C-6.18710938 8.44535156 -6.99921875 8.82820313 -7.8359375 9.22265625 C-8.55007812 9.47917969 -9.26421875 9.73570312 -10 10 C-10.66 9.67 -11.32 9.34 -12 9 C-8.04 6.03 -4.08 3.06 0 0 Z " fill="#5E67AE" transform="translate(218,370)"/>
<path d="M0 0 C3.59231271 3.4896752 7.01867949 6.96644873 10 11 C9.67 11.99 9.34 12.98 9 14 C7.68 13.67 6.36 13.34 5 13 C5 14.32 5 15.64 5 17 C4.34 17.33 3.68 17.66 3 18 C2.67 18.99 2.34 19.98 2 21 C0.68 20.67 -0.64 20.34 -2 20 C-2.33 20.66 -2.66 21.32 -3 22 C-7.43458973 20.6062718 -9.87378374 18.39417765 -13 15 C-10.525 15.495 -10.525 15.495 -8 16 C-8.99 14.68 -9.98 13.36 -11 12 C-7.89656201 13.20689255 -4.98806107 14.50596946 -2 16 C-3.98 13.36 -5.96 10.72 -8 8 C-4.89656201 9.20689255 -1.98806107 10.50596946 1 12 C-0.98 9.36 -2.96 6.72 -5 4 C-3.68 3.67 -2.36 3.34 -1 3 C-0.01 3.66 0.98 4.32 2 5 C1.34 3.35 0.68 1.7 0 0 Z " fill="#656DB2" transform="translate(132,354)"/>
<path d="M0 0 C8.49609375 -0.09765625 8.49609375 -0.09765625 11 0 C12 1 12 1 12.11352539 2.76586914 C12.10828857 3.51473389 12.10305176 4.26359863 12.09765625 5.03515625 C12.09443359 5.84404297 12.09121094 6.65292969 12.08789062 7.48632812 C12.07951172 8.33646484 12.07113281 9.18660156 12.0625 10.0625 C12.05798828 10.91650391 12.05347656 11.77050781 12.04882812 12.65039062 C12.03700373 14.76695663 12.01906769 16.88348685 12 19 C11.01 19 10.02 19 9 19 C8.67 16.36 8.34 13.72 8 11 C6.68 10.67 5.36 10.34 4 10 C4 12.97 4 15.94 4 19 C2.68 19 1.36 19 0 19 C0 12.73 0 6.46 0 0 Z " fill="#454FA2" transform="translate(633,424)"/>
<path d="M0 0 C8.49609375 -0.09765625 8.49609375 -0.09765625 11 0 C12 1 12 1 12.11352539 2.76586914 C12.10828857 3.51473389 12.10305176 4.26359863 12.09765625 5.03515625 C12.09443359 5.84404297 12.09121094 6.65292969 12.08789062 7.48632812 C12.07951172 8.33646484 12.07113281 9.18660156 12.0625 10.0625 C12.05798828 10.91650391 12.05347656 11.77050781 12.04882812 12.65039062 C12.03700373 14.76695663 12.01906769 16.88348685 12 19 C11.01 19 10.02 19 9 19 C8.67 16.36 8.34 13.72 8 11 C6.68 10.67 5.36 10.34 4 10 C4 12.97 4 15.94 4 19 C2.68 19 1.36 19 0 19 C0 12.73 0 6.46 0 0 Z " fill="#454EA2" transform="translate(364,424)"/>
<path d="M0 0 C1.65 0 3.3 0 5 0 C5.66 2.31 6.32 4.62 7 7 C7.33 4.69 7.66 2.38 8 0 C9.32 0 10.64 0 12 0 C12 6.27 12 12.54 12 19 C10.35 19 8.7 19 7 19 C5.86642725 15.67485327 4.8530248 12.4120992 4 9 C3.67 12.3 3.34 15.6 3 19 C2.01 19 1.02 19 0 19 C0 12.73 0 6.46 0 0 Z " fill="#4650A2" transform="translate(549,424)"/>
<path d="M0 0 C1.32 0 2.64 0 4 0 C4 0.66 4 1.32 4 2 C7.96 2 11.92 2 16 2 C16 1.34 16 0.68 16 0 C17.32 0 18.64 0 20 0 C20 3.3 20 6.6 20 10 C13.4 10 6.8 10 0 10 C0 6.7 0 3.4 0 0 Z " fill="#4852A3" transform="translate(254,404)"/>
<path d="M0 0 C1.60875 -0.020625 3.2175 -0.04125 4.875 -0.0625 C5.77992188 -0.07410156 6.68484375 -0.08570313 7.6171875 -0.09765625 C10 0 10 0 12 1 C12 7 12 13 12 19 C10.68 19 9.36 19 8 19 C8 16.03 8 13.06 8 10 C6.35 10 4.7 10 3 10 C3 12.97 3 15.94 3 19 C2.01 19 1.02 19 0 19 C0 12.73 0 6.46 0 0 Z " fill="#3B459D" transform="translate(283,424)"/>
<path d="M0 0 C3.7 1.4 3.7 1.4 5 4 C5.57189542 10.29084967 5.57189542 10.29084967 3.4375 12.9375 C0.05293473 14.41282332 -2.34603178 14.45674603 -6 14 C-8.4375 12.375 -8.4375 12.375 -10 10 C-10.61195145 6.3282913 -10.48706506 4.71186432 -8.375 1.625 C-5.32072584 -0.46476653 -3.63814131 -0.45476766 0 0 Z " fill="#F5F6FA" transform="translate(307,372)"/>
<path d="M0 0 C0.66 0 1.32 0 2 0 C2.61875 0.804375 3.2375 1.60875 3.875 2.4375 C5.74164041 5.03874519 5.74164041 5.03874519 8 6 C10.77509433 6 11.88327733 4.70703441 14 3 C14.99 3 15.98 3 17 3 C17 3.66 17 4.32 17 5 C17.66 5.33 18.32 5.66 19 6 C7.10393258 17 7.10393258 17 2 17 C1.29695778 15.27709395 0.61316509 13.54632534 -0.0625 11.8125 C-0.44535156 10.84957031 -0.82820312 9.88664062 -1.22265625 8.89453125 C-2.0612482 5.77193511 -1.95069469 4.05852062 -1 1 C-0.67 0.67 -0.34 0.34 0 0 Z " fill="#343E99" transform="translate(191,436)"/>
<path d="M0 0 C1.65 0 3.3 0 5 0 C5.99 3.63 6.98 7.26 8 11 C8.33 7.37 8.66 3.74 9 0 C9.99 0 10.98 0 12 0 C12 6.27 12 12.54 12 19 C10.35 19 8.7 19 7 19 C6.01 15.37 5.02 11.74 4 8 C3.67 11.63 3.34 15.26 3 19 C2.01 19 1.02 19 0 19 C0 12.73 0 6.46 0 0 Z " fill="#343E99" transform="translate(456,424)"/>
<path d="M0 0 C1.32 0 2.64 0 4 0 C4 5.28 4 10.56 4 16 C5.65 16 7.3 16 9 16 C9 10.72 9 5.44 9 0 C10.32 0 11.64 0 13 0 C13.0809313 2.60478883 13.14045434 5.20706653 13.1875 7.8125 C13.22520508 8.91948242 13.22520508 8.91948242 13.26367188 10.04882812 C13.33741363 15.48113735 13.33741363 15.48113735 11.70703125 17.98828125 C8.80257109 19.70968899 6.27227817 19.35060123 3 19 C1.29296875 17.98828125 1.29296875 17.98828125 0 16 C-0.21714241 13.18872957 -0.28284276 10.6116655 -0.1875 7.8125 C-0.17396484 7.06291016 -0.16042969 6.31332031 -0.14648438 5.54101562 C-0.11118539 3.69370233 -0.05737917 1.84675934 0 0 Z " fill="#4852A3" transform="translate(571,424)"/>
<path d="M0 0 C1.98 0 3.96 0 6 0 C7.32 6.27 8.64 12.54 10 19 C8.68 19 7.36 19 6 19 C5.67 17.35 5.34 15.7 5 14 C3.35 14 1.7 14 0 14 C0 15.65 0 17.3 0 19 C-1.32 19 -2.64 19 -4 19 C-2.75297849 12.64549677 -1.42635741 6.31672565 0 0 Z " fill="#4C56A5" transform="translate(353,424)"/>
<path d="M0 0 C0.66 0 1.32 0 2 0 C5.49075975 7.1211499 5.49075975 7.1211499 4 12 C4 12.99 4 13.98 4 15 C2.02 15.99 2.02 15.99 0 17 C0 17.66 0 18.32 0 19 C-3.51852809 17.8271573 -3.74725327 17.16913123 -5.5 14.0625 C-7.21538974 11.03307774 -7.99234883 10.00510078 -11 8 C-11 7.34 -11 6.68 -11 6 C-9.68 5.67 -8.36 5.34 -7 5 C-7 4.34 -7 3.68 -7 3 C-6.34 3 -5.68 3 -5 3 C-5 3.66 -5 4.32 -5 5 C-4.34 5 -3.68 5 -3 5 C-2.67 4.01 -2.34 3.02 -2 2 C-1.34 2.33 -0.68 2.66 0 3 C0 2.01 0 1.02 0 0 Z " fill="#E8EAF3" transform="translate(145,346)"/>
<path d="M0 0 C1.65 0 3.3 0 5 0 C5.67286212 2.41509441 6.33846012 4.83180356 7 7.25 C7.19078125 7.93191406 7.3815625 8.61382812 7.578125 9.31640625 C8.49957044 12.70600912 9 15.45778976 9 19 C7.68 19 6.36 19 5 19 C5 17.35 5 15.7 5 14 C3.35 14 1.7 14 0 14 C-0.33 15.65 -0.66 17.3 -1 19 C-1.99 19 -2.98 19 -4 19 C-2.46511628 4.93023256 -2.46511628 4.93023256 0 0 Z " fill="#4C55A5" transform="translate(538,424)"/>
<path d="M0 0 C1.62580966 0.11398665 3.25067157 0.24155659 4.875 0.375 C5.77992188 0.44460938 6.68484375 0.51421875 7.6171875 0.5859375 C10 1 10 1 12 3 C10.35 3.33 8.7 3.66 7 4 C7 5.65 7 7.3 7 9 C8.32 9.66 9.64 10.32 11 11 C10.01 11.33 9.02 11.66 8 12 C8 13.32 8 14.64 8 16 C6.41753293 16.08153933 4.83383727 16.13943557 3.25 16.1875 C1.92742187 16.23970703 1.92742187 16.23970703 0.578125 16.29296875 C-2.44671583 15.94923684 -3.75583602 14.99772541 -6 13 C-5.34 13 -4.68 13 -4 13 C-3.51891725 11.58398286 -3.04021859 10.16715563 -2.5625 8.75 C-2.29566406 7.96109375 -2.02882812 7.1721875 -1.75390625 6.359375 C-1.08045292 4.25178012 -0.50849405 2.15246027 0 0 Z " fill="#333D99" transform="translate(156,442)"/>
<path d="M0 0 C1.98 0 3.96 0 6 0 C6.67099984 2.60311992 7.33695338 5.20735398 8 7.8125 C8.19078125 8.55048828 8.3815625 9.28847656 8.578125 10.04882812 C9.35262914 13.10535341 10 15.83373478 10 19 C8.68 19 7.36 19 6 19 C6 17.35 6 15.7 6 14 C4.35 14.33 2.7 14.66 1 15 C0.67 16.32 0.34 17.64 0 19 C-0.99 19 -1.98 19 -3 19 C-2.37679879 12.56025419 -1.35991738 6.32427599 0 0 Z " fill="#4B54A5" transform="translate(311,424)"/>
<path d="M0 0 C1.65 0 3.3 0 5 0 C5.67493341 2.22667765 6.33963044 4.45645977 7 6.6875 C7.37125 7.92886719 7.7425 9.17023438 8.125 10.44921875 C8.87703457 13.5010019 9.19034899 15.88898362 9 19 C8.01 19 7.02 19 6 19 C5.67 17.35 5.34 15.7 5 14 C3.35 14 1.7 14 0 14 C0 15.65 0 17.3 0 19 C-1.32 19 -2.64 19 -4 19 C-3.26309887 12.51527007 -1.64681249 6.30760257 0 0 Z " fill="#4A53A4" transform="translate(445,424)"/>
<path d="M0 0 C0.99 0.66 1.98 1.32 3 2 C3 3.32 3 4.64 3 6 C2.01 6 1.02 6 0 6 C0 5.01 0 4.02 0 3 C-1.65 3 -3.3 3 -5 3 C-5 4.32 -5 5.64 -5 7 C-4.2575 7.268125 -3.515 7.53625 -2.75 7.8125 C-0.13363446 8.94229421 1.80187111 10.20893202 4 12 C3.74438677 14.3431213 3.40729228 16.67843403 3 19 C0.77109005 20.11445498 -0.53055106 20.16480286 -3 20.1875 C-4.051875 20.20876953 -4.051875 20.20876953 -5.125 20.23046875 C-7 20 -7 20 -9 18 C-9.125 15.375 -9.125 15.375 -9 13 C-7.68 13 -6.36 13 -5 13 C-4.67 14.32 -4.34 15.64 -4 17 C-3.01 17 -2.02 17 -1 17 C-1 15.68 -1 14.36 -1 13 C-2.7015625 12.195625 -2.7015625 12.195625 -4.4375 11.375 C-7.40547932 9.68331199 -7.88797752 9.30495008 -9.125 5.9375 C-9 3 -9 3 -7.9375 1.125 C-5.16812713 -0.48302295 -3.14758022 -0.32787294 0 0 Z " fill="#444EA1" transform="translate(656,423)"/>
<path d="M0 0 C5.11365014 1.0681847 10.07227969 2.23107476 15 4 C14.01 4.66 13.02 5.32 12 6 C12.3403125 6.804375 12.3403125 6.804375 12.6875 7.625 C13.13958145 11.06081901 11.67178015 13.05766694 10 16 C-0.55808656 15.22095672 -0.55808656 15.22095672 -5 13 C-4.67 12.01 -4.34 11.02 -4 10 C-0.7 10.33 2.6 10.66 6 11 C1.545 9.02 1.545 9.02 -3 7 C-3 6.01 -3 5.02 -3 4 C-2.01 4 -1.02 4 0 4 C0 4.99 0 5.98 0 7 C1.98 6.67 3.96 6.34 6 6 C6 6.99 6 7.98 6 9 C7.32 9.33 8.64 9.66 10 10 C8.77761381 6.33284144 7.64965885 5.87568736 4.4375 3.875 C2.94436098 2.9385852 1.46100052 1.98580641 0 1 C0 0.67 0 0.34 0 0 Z " fill="#525BA8" transform="translate(115,376)"/>
<path d="M0 0 C2.375 1.125 2.375 1.125 4 3 C4.45535315 6.12242157 4.49686954 8.06836961 3 10.875 C-0.21820324 12.68523932 -3.40216898 12.53967465 -7 12 C-9 10.875 -9 10.875 -10 9 C-10.4375 6 -10.4375 6 -10 3 C-7.08783566 -0.36018962 -4.28391942 -0.53548993 0 0 Z " fill="#F8F9FB" transform="translate(603,371)"/>
<path d="M0 0 C0.66 0.99 1.32 1.98 2 3 C2.66 2.01 3.32 1.02 4 0 C4.33 1.65 4.66 3.3 5 5 C5.66 4.67 6.32 4.34 7 4 C7.33 6.31 7.66 8.62 8 11 C8.33 8.36 8.66 5.72 9 3 C8.34 3 7.68 3 7 3 C7 2.01 7 1.02 7 0 C7.99 0.33 8.98 0.66 10 1 C10.05406122 2.93719378 10.09282025 4.87481921 10.125 6.8125 C10.14820313 7.89144531 10.17140625 8.97039062 10.1953125 10.08203125 C10 13 10 13 8 16 C5.8359375 16.29296875 5.8359375 16.29296875 3.375 16.1875 C2.14910156 16.14689453 2.14910156 16.14689453 0.8984375 16.10546875 C0.27195313 16.07066406 -0.35453125 16.03585937 -1 16 C-1.33 15.01 -1.66 14.02 -2 13 C-2.66 13 -3.32 13 -4 13 C-4.33 13.99 -4.66 14.98 -5 16 C-5 11.05 -5 6.1 -5 1 C-2.44511301 3.55488699 -3 4.53111409 -3 8 C-2.34 8.66 -1.68 9.32 -1 10 C-0.67 6.7 -0.34 3.4 0 0 Z " fill="#7077B7" transform="translate(164,342)"/>
<path d="M0 0 C0.99 0 1.98 0 3 0 C3.99 3.63 4.98 7.26 6 11 C6.33 11 6.66 11 7 11 C7.13277344 10.37351562 7.26554688 9.74703125 7.40234375 9.1015625 C7.57894531 8.28429687 7.75554688 7.46703125 7.9375 6.625 C8.11152344 5.81289063 8.28554688 5.00078125 8.46484375 4.1640625 C9 2 9 2 10 0 C10.99 0 11.98 0 13 0 C12.71512349 2.04262517 12.42177949 4.08407027 12.125 6.125 C11.96257813 7.26195312 11.80015625 8.39890625 11.6328125 9.5703125 C11.02568583 12.86078915 10.13654367 15.85779103 9 19 C7.02 19 5.04 19 3 19 C2.49161436 16.96040523 1.99366114 14.91820862 1.5 12.875 C1.2215625 11.73804688 0.943125 10.60109375 0.65625 9.4296875 C0.03546235 6.18533302 -0.12006768 3.29185543 0 0 Z " fill="#404A9F" transform="translate(607,424)"/>
<path d="M0 0 C0.99 0 1.98 0 3 0 C3.33 1.98 3.66 3.96 4 6 C5.32 4.02 6.64 2.04 8 0 C9.32 0.33 10.64 0.66 12 1 C11.319375 1.9075 10.63875 2.815 9.9375 3.75 C7.82931182 6.65569854 7.82931182 6.65569854 8 9 C9.417121 11.834242 11.23094162 14.37494563 13 17 C13 17.66 13 18.32 13 19 C10.6875 18.875 10.6875 18.875 8 18 C6.1875 14.9375 6.1875 14.9375 5 12 C4.67 12 4.34 12 4 12 C3.67 14.31 3.34 16.62 3 19 C2.01 19 1.02 19 0 19 C0 12.73 0 6.46 0 0 Z " fill="#39439C" transform="translate(254,424)"/>
<path d="M0 0 C2 2 2 2 2.125 4.625 C2.08375 5.40875 2.0425 6.1925 2 7 C0.68 7 -0.64 7 -2 7 C-2.33 5.68 -2.66 4.36 -3 3 C-4.32 3.33 -5.64 3.66 -7 4 C-7 7.63 -7 11.26 -7 15 C-5.68 15.33 -4.36 15.66 -3 16 C-2.67 14.68 -2.34 13.36 -2 12 C-0.68 12 0.64 12 2 12 C1.25 16.75 1.25 16.75 -1 19 C-7.32258065 19.33870968 -7.32258065 19.33870968 -10 18 C-11.10826086 14.67521742 -11.23761378 11.99994522 -11.3125 8.5 C-11.34988281 7.3553125 -11.38726562 6.210625 -11.42578125 5.03125 C-11 2 -11 2 -9.20703125 0.08203125 C-5.89560331 -1.54144758 -3.50503197 -0.84380399 0 0 Z " fill="#38429B" transform="translate(519,424)"/>
<path d="M0 0 C2 3 2 3 2 6 C1.01 6.33 0.02 6.66 -1 7 C-1.33 7.66 -1.66 8.32 -2 9 C-1.01 9 -0.02 9 1 9 C2.91507778 7.00724825 2.91507778 7.00724825 4.6875 4.5 C5.31011719 3.6646875 5.93273437 2.829375 6.57421875 1.96875 C7.04472656 1.3190625 7.51523438 0.669375 8 0 C9.60031344 3.20062687 8.03173691 5.72271806 7 9 C8.65 7.02 10.3 5.04 12 3 C13 5 13 5 13 6 C13.99 5.34 14.98 4.68 16 4 C14.47987323 9.40489519 10.72614782 12.98492628 7 17 C6.67 16.01 6.34 15.02 6 14 C4.68 14.33 3.36 14.66 2 15 C2.33 13.68 2.66 12.36 3 11 C1.02 11.99 1.02 11.99 -1 13 C-1.99 12.34 -2.98 11.68 -4 11 C-3.39301257 6.87248551 -1.96189209 3.6678852 0 0 Z " fill="#535CA9" transform="translate(189,350)"/>
<path d="M0 0 C0.33 1.32 0.66 2.64 1 4 C1.66 4 2.32 4 3 4 C3.33 2.68 3.66 1.36 4 0 C5.32 0.33 6.64 0.66 8 1 C8 3.17384564 7.60464143 4.91734618 7 7 C6.67 7.33 6.34 7.66 6 8 C7.65 8.66 9.3 9.32 11 10 C10.67 10.66 10.34 11.32 10 12 C9.37351563 11.90460938 8.74703125 11.80921875 8.1015625 11.7109375 C7.28429687 11.60007812 6.46703125 11.48921875 5.625 11.375 C4.81289062 11.25898438 4.00078125 11.14296875 3.1640625 11.0234375 C2.44992188 11.01570313 1.73578125 11.00796875 1 11 C0.34 11.66 -0.32 12.32 -1 13 C-3.625 13.125 -3.625 13.125 -6 13 C-6.33 12.34 -6.66 11.68 -7 11 C-10.63 11.33 -14.26 11.66 -18 12 C-17.67 11.01 -17.34 10.02 -17 9 C-14.35559361 8.1185312 -12.71939248 7.83825182 -10 7.8125 C-9.319375 7.79832031 -8.63875 7.78414063 -7.9375 7.76953125 C-6 8 -6 8 -3 10 C-1.45833358 8.62514468 -1.45833358 8.62514468 0 7 C0 6.34 0 5.68 0 5 C-0.99 4.67 -1.98 4.34 -3 4 C-2.01 4 -1.02 4 0 4 C-0.33 3.01 -0.66 2.02 -1 1 C-0.67 0.67 -0.34 0.34 0 0 Z " fill="#424CA1" transform="translate(171,428)"/>
<path d="M0 0 C1 1 1 1 1.0625 4.0625 C1.041875 5.031875 1.02125 6.00125 1 7 C1.66 7.33 2.32 7.66 3 8 C2.34 8 1.68 8 1 8 C1 9.65 1 11.3 1 13 C0.01 13 -0.98 13 -2 13 C-2 12.67 -2 12.34 -2 12 C-3.65 12 -5.3 12 -7 12 C-7 12.66 -7 13.32 -7 14 C-7.66 14 -8.32 14 -9 14 C-8.79375 13.38125 -8.5875 12.7625 -8.375 12.125 C-8.25125 11.42375 -8.1275 10.7225 -8 10 C-8.66 9.34 -9.32 8.68 -10 8 C-10.375 5.5625 -10.375 5.5625 -10 3 C-7.01765234 -0.32646469 -4.31005553 -0.38311605 0 0 Z " fill="#434DA1" transform="translate(172,443)"/>
<path d="M0 0 C2.97 0 5.94 0 9 0 C9 0.66 9 1.32 9 2 C7.35 2 5.7 2 4 2 C4 3.98 4 5.96 4 8 C5.65 8 7.3 8 9 8 C9 8.66 9 9.32 9 10 C7.35 10 5.7 10 4 10 C4 11.98 4 13.96 4 16 C5.98 16 7.96 16 10 16 C10 16.99 10 17.98 10 19 C6.7 19 3.4 19 0 19 C0 12.73 0 6.46 0 0 Z " fill="#444DA1" transform="translate(422,424)"/>
<path d="M0 0 C2.97 0 5.94 0 9 0 C9 0.66 9 1.32 9 2 C7.02 2 5.04 2 3 2 C3 3.98 3 5.96 3 8 C4.98 8 6.96 8 9 8 C9 8.66 9 9.32 9 10 C7.35 10 5.7 10 4 10 C4 11.98 4 13.96 4 16 C5.98 16 7.96 16 10 16 C10 16.99 10 17.98 10 19 C6.7 19 3.4 19 0 19 C0 12.73 0 6.46 0 0 Z " fill="#3F499F" transform="translate(523,424)"/>
<path d="M0 0 C5.4389165 -0.21755666 9.87080814 -0.10428384 15 2 C15 3.65 15 5.3 15 7 C13.35 7.33 11.7 7.66 10 8 C11.65 8.33 13.3 8.66 15 9 C15 9.33 15 9.66 15 10 C9.72 10 4.44 10 -1 10 C-1 8.35 -1 6.7 -1 5 C1.97 5.33 4.94 5.66 8 6 C5.36 5.01 2.72 4.02 0 3 C0 2.01 0 1.02 0 0 Z " fill="#888EC3" transform="translate(110,392)"/>
<path d="M0 0 C1.32 0.33 2.64 0.66 4 1 C4.12375 2.134375 4.2475 3.26875 4.375 4.4375 C4.58125 5.613125 4.7875 6.78875 5 8 C5.66 8.33 6.32 8.66 7 9 C1.375 12 1.375 12 -2 12 C-2.33 12.66 -2.66 13.32 -3 14 C-7.12681159 7.6884058 -7.12681159 7.6884058 -6.5625 4.625 C-4.51309583 2.49361967 -2.89050687 2.30426388 0 2 C0 1.34 0 0.68 0 0 Z " fill="#8289C0" transform="translate(123,417)"/>
<path d="M0 0 C2.97 0 5.94 0 9 0 C9 0.66 9 1.32 9 2 C7.02 2 5.04 2 3 2 C3 3.98 3 5.96 3 8 C4.98 8 6.96 8 9 8 C9 8.66 9 9.32 9 10 C7.35 10 5.7 10 4 10 C4 11.98 4 13.96 4 16 C5.65 16 7.3 16 9 16 C9 16.99 9 17.98 9 19 C6.03 19 3.06 19 0 19 C0 12.73 0 6.46 0 0 Z " fill="#3A449C" transform="translate(622,424)"/>
<path d="M0 0 C0.66 0 1.32 0 2 0 C2.33 1.32 2.66 2.64 3 4 C-2.68430533 5.61675501 -7.72808219 6.3136358 -13.625 6.25 C-14.71167969 6.26160156 -14.71167969 6.26160156 -15.8203125 6.2734375 C-20.25941067 6.25735381 -23.81818015 5.66217445 -28 4 C-25.09907498 2.06604999 -24.10325263 1.69868059 -20.8125 1.375 C-19.554375 1.25125 -18.29625 1.1275 -17 1 C-16.67 1.99 -16.34 2.98 -16 4 C-15.113125 3.690625 -14.22625 3.38125 -13.3125 3.0625 C-8.39034615 1.48369593 -5.07191703 0.69579276 0 2 C0 1.34 0 0.68 0 0 Z " fill="#EDEEF6" transform="translate(181,437)"/>
<path d="M0 0 C2.97 0 5.94 0 9 0 C9 0.66 9 1.32 9 2 C7.02 2 5.04 2 3 2 C3 3.98 3 5.96 3 8 C4.98 8 6.96 8 9 8 C9 8.66 9 9.32 9 10 C7.02 10 5.04 10 3 10 C3 11.98 3 13.96 3 16 C4.98 16 6.96 16 9 16 C9 16.99 9 17.98 9 19 C6.03 19 3.06 19 0 19 C0 12.73 0 6.46 0 0 Z " fill="#353F99" transform="translate(297,424)"/>
<path d="M0 0 C1.98 0 3.96 0 6 0 C7.30089831 2.60179663 7.16840078 4.5969188 7.1875 7.5 C7.20167969 8.4796875 7.21585937 9.459375 7.23046875 10.46875 C7 13 7 13 5 15 C4.67 12.69 4.34 10.38 4 8 C3.67 11.63 3.34 15.26 3 19 C2.01 19 1.02 19 0 19 C0 12.73 0 6.46 0 0 Z " fill="#36419A" transform="translate(331,424)"/>
<path d="M0 0 C2.64 0 5.28 0 8 0 C8 4.95 8 9.9 8 15 C5.69 14.67 3.38 14.34 1 14 C1 12.02 1 10.04 1 8 C2.65 8 4.3 8 6 8 C6 7.34 6 6.68 6 6 C4.02 6 2.04 6 0 6 C0 4.02 0 2.04 0 0 Z " fill="#F0F0F7" transform="translate(625,426)"/>
<path d="M0 0 C0.99 0 1.98 0 3 0 C3.66 1.65 4.32 3.3 5 5 C6.93798263 2.22739701 6.93798263 2.22739701 8 0 C9.32 0.33 10.64 0.66 12 1 C11.72285156 1.6290625 11.44570313 2.258125 11.16015625 2.90625 C8.85043271 8.36410208 7.43791804 13.08810648 7 19 C6.01 19 5.02 19 4 19 C3.87882813 18.26394531 3.75765625 17.52789062 3.6328125 16.76953125 C3.46523438 15.79371094 3.29765625 14.81789063 3.125 13.8125 C2.96257813 12.84957031 2.80015625 11.88664062 2.6328125 10.89453125 C2.08081308 7.98926241 2.08081308 7.98926241 0.9296875 5.32421875 C0 3 0 3 0 0 Z " fill="#36409A" transform="translate(680,424)"/>
<path d="M0 0 C0.66 0.33 1.32 0.66 2 1 C1.01 2.485 1.01 2.485 0 4 C1.32 3.34 2.64 2.68 4 2 C2.77065985 5.68802044 1.06140622 6.72356973 -2 9 C-0.02 7.68 1.96 6.36 4 5 C4.66 5.33 5.32 5.66 6 6 C4.42210402 7.15330947 2.8374518 8.29737927 1.25 9.4375 C0.36828125 10.07558594 -0.5134375 10.71367187 -1.421875 11.37109375 C-3.72699125 12.8275081 -5.34349572 13.55931821 -8 14 C-8.12375 13.360625 -8.2475 12.72125 -8.375 12.0625 C-8.58125 11.381875 -8.7875 10.70125 -9 10 C-9.66 9.67 -10.32 9.34 -11 9 C-7.37 6.03 -3.74 3.06 0 0 Z " fill="#6E76B6" transform="translate(212,363)"/>
<path d="M0 0 C2.97 0.495 2.97 0.495 6 1 C6.103125 1.5775 6.20625 2.155 6.3125 2.75 C7.09792798 5.32049158 8.30504197 6.93657284 10 9 C9.278125 8.9175 8.55625 8.835 7.8125 8.75 C4.16451206 9.07426559 2.65431702 10.57319587 0 13 C-0.33 12.34 -0.66 11.68 -1 11 C-2.64363134 10.27840576 -4.31050386 9.60648579 -6 9 C-5.67 7.35 -5.34 5.7 -5 4 C-3.35 3.67 -1.7 3.34 0 3 C0 3.66 0 4.32 0 5 C0.66 5 1.32 5 2 5 C2.33 5.99 2.66 6.98 3 8 C3.34626591 4.99969942 3.34626591 4.99969942 1.5 3.4375 C0.7575 2.7259375 0.7575 2.7259375 0 2 C0 1.34 0 0.68 0 0 Z " fill="#B9BDDC" transform="translate(200,431)"/>
<path d="M0 0 C0 0.99 0 1.98 0 3 C0.33 2.34 0.66 1.68 1 1 C1.66 1 2.32 1 3 1 C2.54917531 2.46067199 2.08906463 3.91848032 1.625 5.375 C1.36976563 6.18710937 1.11453125 6.99921875 0.8515625 7.8359375 C0 10 0 10 -2 12 C-2 10.35 -2 8.7 -2 7 C-2.33 7.99 -2.66 8.98 -3 10 C-3.66 10 -4.32 10 -5 10 C-5 9.01 -5 8.02 -5 7 C-6.65 7 -8.3 7 -10 7 C-9.74438677 4.6568787 -9.40729228 2.32156597 -9 0 C-5.93109813 -1.53445094 -3.29905734 -0.54984289 0 0 Z " fill="#AAAED4" transform="translate(153,443)"/>
<path d="M0 0 C1.65 0 3.3 0 5 0 C6 1 6 1 6.1328125 3.6875 C6.12894531 5.3271875 6.12894531 5.3271875 6.125 7 C6.12757813 8.093125 6.13015625 9.18625 6.1328125 10.3125 C6 13 6 13 5 14 C3.35 14 1.7 14 0 14 C0 9.38 0 4.76 0 0 Z " fill="#EDEEF6" transform="translate(474,426)"/>
<path d="M0 0 C1.65 0 3.3 0 5 0 C5.66 2.97 6.32 5.94 7 9 C6.01 9 5.02 9 4 9 C3.67 12.3 3.34 15.6 3 19 C2.01 19 1.02 19 0 19 C0 12.73 0 6.46 0 0 Z " fill="#35409A" transform="translate(549,424)"/>
<path d="M0 0 C1.32 0 2.64 0 4 0 C4 6.27 4 12.54 4 19 C2.68 19 1.36 19 0 19 C0 12.73 0 6.46 0 0 Z " fill="#4C55A5" transform="translate(397,424)"/>
<path d="M0 0 C3.96 0 7.92 0 12 0 C12 0.66 12 1.32 12 2 C10.35 2 8.7 2 7 2 C7 7.61 7 13.22 7 19 C6.01 19 5.02 19 4 19 C4 13.39 4 7.78 4 2 C2.68 2 1.36 2 0 2 C0 1.34 0 0.68 0 0 Z " fill="#303A97" transform="translate(667,424)"/>
<path d="M0 0 C3 3.75 3 3.75 3 6 C3.763125 6.28875 4.52625 6.5775 5.3125 6.875 C8 8 8 8 11 10 C10.67 11.65 10.34 13.3 10 15 C8.68 14.67 7.36 14.34 6 14 C6 12.68 6 11.36 6 10 C4.35 10 2.7 10 1 10 C1 12.31 1 14.62 1 17 C0.67 17 0.34 17 0 17 C-1.33257403 5.47835991 -1.33257403 5.47835991 0 0 Z " fill="#EAEBF4" transform="translate(645,426)"/>
<path d="M0 0 C3.63 0 7.26 0 11 0 C11 0.66 11 1.32 11 2 C9.68 2 8.36 2 7 2 C7 7.28 7 12.56 7 18 C6.01 18 5.02 18 4 18 C4 12.72 4 7.44 4 2 C2.68 2 1.36 2 0 2 C0 1.34 0 0.68 0 0 Z " fill="#323D98" transform="translate(384,424)"/>
<path d="M0 0 C1.98 0.495 1.98 0.495 4 1 C4 5.29 4 9.58 4 14 C2.35 14 0.7 14 -1 14 C-1.02685938 11.85423363 -1.04633088 9.70837355 -1.0625 7.5625 C-1.07410156 6.36753906 -1.08570313 5.17257812 -1.09765625 3.94140625 C-1 1 -1 1 0 0 Z " fill="#FCFCFD" transform="translate(498,426)"/>
<path d="M0 0 C1.98 0.495 1.98 0.495 4 1 C4 5.29 4 9.58 4 14 C2.35 14 0.7 14 -1 14 C-1.02685938 11.85423363 -1.04633088 9.70837355 -1.0625 7.5625 C-1.07410156 6.36753906 -1.08570313 5.17257812 -1.09765625 3.94140625 C-1 1 -1 1 0 0 Z " fill="#FCFCFD" transform="translate(273,426)"/>
<path d="M0 0 C3.80984844 2.77079887 4.06840752 6.62868145 5 11 C4.34 11 3.68 11 3 11 C2.67 9.35 2.34 7.7 2 6 C1.34 6 0.68 6 0 6 C0.66 7.65 1.32 9.3 2 11 C1.01 10.67 0.02 10.34 -1 10 C-3.3406065 10.27769908 -5.67624308 10.60539977 -8 11 C-8.66 9.02 -9.32 7.04 -10 5 C-8.35 4.34 -6.7 3.68 -5 3 C-5 3.66 -5 4.32 -5 5 C-5.66 5 -6.32 5 -7 5 C-6.67 5.99 -6.34 6.98 -6 8 C-4.35 8 -2.7 8 -1 8 C-1.66 5.69 -2.32 3.38 -3 1 C-1 2 -1 2 0 3 C0 2.01 0 1.02 0 0 Z " fill="#C0C3DF" transform="translate(188,441)"/>
<path d="M0 0 C2.475 0.495 2.475 0.495 5 1 C4.938125 1.78375 4.87625 2.5675 4.8125 3.375 C4.874375 4.24125 4.93625 5.1075 5 6 C5.99 6.66 6.98 7.32 8 8 C8.29296875 10.1640625 8.29296875 10.1640625 8.1875 12.625 C8.16042969 13.44226563 8.13335937 14.25953125 8.10546875 15.1015625 C8.07066406 15.72804688 8.03585937 16.35453125 8 17 C7.01 17 6.02 17 5 17 C4.8046875 14.94921875 4.609375 12.8984375 4.4140625 10.84765625 C4.20910156 9.93306641 4.20910156 9.93306641 4 9 C3.34 8.67 2.68 8.34 2 8 C2 7.34 2 6.68 2 6 C1.34 6 0.68 6 0 6 C0 4.02 0 2.04 0 0 Z " fill="#3E489E" transform="translate(368,426)"/>
<path d="M0 0 C2.75026417 -0.05404449 5.49946203 -0.09369306 8.25 -0.125 C9.02730469 -0.14175781 9.80460937 -0.15851563 10.60546875 -0.17578125 C17.72431144 -0.23662606 17.72431144 -0.23662606 21 2 C19.68 2 18.36 2 17 2 C17 2.66 17 3.32 17 4 C13.04 4 9.08 4 5 4 C5 3.34 5 2.68 5 2 C3.35 1.67 1.7 1.34 0 1 C0 0.67 0 0.34 0 0 Z " fill="#D1D4E8" transform="translate(253,402)"/>
<path d="M0 0 C0.66 0 1.32 0 2 0 C2.33266291 6.20970773 1.45029331 10.28264895 -1 16 C-1.99 15.67 -2.98 15.34 -4 15 C-3.63495936 9.33557626 -2.9445679 4.99296295 0 0 Z " fill="#9096C7" transform="translate(180,343)"/>
<path d="M0 0 C6.93 0.495 6.93 0.495 14 1 C14 2.66666667 14 4.33333333 14 6 C3.44191344 5.22095672 3.44191344 5.22095672 -1 3 C-0.67 2.01 -0.34 1.02 0 0 Z " fill="#626AB0" transform="translate(111,386)"/>
<path d="M0 0 C0.99 0 1.98 0 3 0 C3 6.27 3 12.54 3 19 C2.01 19 1.02 19 0 19 C0 12.73 0 6.46 0 0 Z " fill="#2F3A97" transform="translate(662,424)"/>
<path d="M0 0 C0.99 0 1.98 0 3 0 C3 6.27 3 12.54 3 19 C2.01 19 1.02 19 0 19 C0 12.73 0 6.46 0 0 Z " fill="#2F3A97" transform="translate(601,424)"/>
<path d="M0 0 C0.99 0 1.98 0 3 0 C3 6.27 3 12.54 3 19 C2.01 19 1.02 19 0 19 C0 12.73 0 6.46 0 0 Z " fill="#2F3A97" transform="translate(379,424)"/>
<path d="M0 0 C-0.33 0.99 -0.66 1.98 -1 3 C-1.66 3 -2.32 3 -3 3 C-3 2.34 -3 1.68 -3 1 C-3.99 1 -4.98 1 -6 1 C-6.33 1.99 -6.66 2.98 -7 4 C-4.69 4.33 -2.38 4.66 0 5 C-3.26613695 6.91302307 -5.99445248 7.35674661 -9.75 7.625 C-10.73484375 7.69976562 -11.7196875 7.77453125 -12.734375 7.8515625 C-13.48203125 7.90054687 -14.2296875 7.94953125 -15 8 C-15.33 6.35 -15.66 4.7 -16 3 C-15.01 2.67 -14.02 2.34 -13 2 C-13 2.66 -13 3.32 -13 4 C-10.01286106 3.30609329 -10.01286106 3.30609329 -8.75 1.4375 C-6.02123151 -0.8039884 -3.39786009 -0.1923317 0 0 Z " fill="#555EAA" transform="translate(226,388)"/>
<path d="M0 0 C0.66 0 1.32 0 2 0 C5.57142857 7.28571429 5.57142857 7.28571429 4 12 C3.01 12.33 2.02 12.66 1 13 C0.30300448 11.54618103 -0.38233866 10.08677047 -1.0625 8.625 C-1.44535156 7.81289063 -1.82820312 7.00078125 -2.22265625 6.1640625 C-2.47917969 5.44992187 -2.73570312 4.73578125 -3 4 C-2.67 3.34 -2.34 2.68 -2 2 C-1.34 2.33 -0.68 2.66 0 3 C0 2.01 0 1.02 0 0 Z " fill="#555EAA" transform="translate(145,346)"/>
<path d="M0 0 C0.33 1.32 0.66 2.64 1 4 C1.66 4 2.32 4 3 4 C3.33 2.68 3.66 1.36 4 0 C5.32 0.33 6.64 0.66 8 1 C8 3.15634036 7.5534764 4.92446352 7 7 C5.02 7.33 3.04 7.66 1 8 C0.67 7.01 0.34 6.02 0 5 C-0.99 4.67 -1.98 4.34 -3 4 C-2.01 4 -1.02 4 0 4 C-0.33 3.01 -0.66 2.02 -1 1 C-0.67 0.67 -0.34 0.34 0 0 Z " fill="#7C83BD" transform="translate(171,428)"/>
<path d="M0 0 C0.33 0.99 0.66 1.98 1 3 C2.65 3 4.3 3 6 3 C2.33746465 5.34402262 -0.72585673 5.2947685 -5 5 C-8.4375 4 -8.4375 4 -11 3 C-7.11595442 0.41063628 -4.5725325 -0.12358196 0 0 Z " fill="#DCDEED" transform="translate(164,438)"/>
<path d="M0 0 C0.99 0 1.98 0 3 0 C3 0.99 3 1.98 3 3 C2.34 3 1.68 3 1 3 C1 3.99 1 4.98 1 6 C1.99 6 2.98 6 4 6 C4.33 6.99 4.66 7.98 5 9 C4.34 9 3.68 9 3 9 C3 10.32 3 11.64 3 13 C4.32 13 5.64 13 7 13 C7 13.66 7 14.32 7 15 C5.02 15.33 3.04 15.66 1 16 C-0.125 12.25 -0.125 12.25 1 10 C0.64197439 7.80763733 0.64197439 7.80763733 0 5.4375 C-0.3760362 3.96860861 -0.72004242 2.49019089 -1 1 C-0.67 0.67 -0.34 0.34 0 0 Z " fill="#4C55A5" transform="translate(150,344)"/>
<path d="M0 0 C3.89081843 1.29693948 6.48181674 2.70699112 9 6 C8.75 8.25 8.75 8.25 8 10 C3.56541027 8.6062718 1.12621626 6.39417765 -2 3 C0.475 3.495 0.475 3.495 3 4 C2.01 2.68 1.02 1.36 0 0 Z " fill="#4A53A4" transform="translate(121,366)"/>
<path d="M0 0 C0.33 0 0.66 0 1 0 C1 6.27 1 12.54 1 19 C0.01 19 -0.98 19 -2 19 C-2.33 15.37 -2.66 11.74 -3 8 C-2.34 7.67 -1.68 7.34 -1 7 C-0.59270772 4.67843403 -0.25561323 2.3431213 0 0 Z " fill="#D8DAEB" transform="translate(378,424)"/>
<path d="M0 0 C0 3.58912412 -0.66436554 4.10857029 -3 6.6875 C-3.99 7.780625 -4.98 8.87375 -6 10 C-3.69 7.69 -1.38 5.38 1 3 C1.66 3.33 2.32 3.66 3 4 C1.75965588 5.32162881 0.50731374 6.63200453 -0.75 7.9375 C-1.44609375 8.66839844 -2.1421875 9.39929688 -2.859375 10.15234375 C-5.00599725 12.00517646 -6.23532932 12.60771565 -9 13 C-8.51286902 8.58489226 -7.14946803 6.69553355 -3.9375 3.6875 C-3.20402344 2.99011719 -2.47054687 2.29273438 -1.71484375 1.57421875 C-1.14894531 1.05472656 -0.58304688 0.53523438 0 0 Z " fill="#5962AC" transform="translate(208,358)"/>
<path d="M0 0 C0 0.99 0 1.98 0 3 C0.99 3 1.98 3 3 3 C2.67 4.32 2.34 5.64 2 7 C0.4840625 7.185625 0.4840625 7.185625 -1.0625 7.375 C-4.87937612 7.98085335 -8.31500112 8.87193912 -12 10 C-8.29909479 6.0747975 -4.45040344 3.05419844 0 0 Z " fill="#6D74B6" transform="translate(218,370)"/>
<path d="M0 0 C3.59231271 3.4896752 7.01867949 6.96644873 10 11 C9.67 11.99 9.34 12.98 9 14 C5.10819472 12.74906259 3.69365838 10.33924001 1.81640625 6.8203125 C0.81263416 4.58223693 0.29472293 2.43146414 0 0 Z " fill="#9297C8" transform="translate(132,354)"/>
<path d="M0 0 C0.33 0.99 0.66 1.98 1 3 C0.01 3.33 -0.98 3.66 -2 4 C-2 3.34 -2 2.68 -2 2 C-2.99 2.495 -2.99 2.495 -4 3 C-4.33 3.99 -4.66 4.98 -5 6 C-7.97 5.505 -7.97 5.505 -11 5 C-11.33 6.32 -11.66 7.64 -12 9 C-12.66 9 -13.32 9 -14 9 C-14.33 8.01 -14.66 7.02 -15 6 C-13.3970947 5.18501438 -11.79262722 4.37310073 -10.1875 3.5625 C-9.29417969 3.11003906 -8.40085938 2.65757812 -7.48046875 2.19140625 C-4.94542384 0.97378625 -2.8412008 0 0 0 Z " fill="#4F58A7" transform="translate(222,376)"/>
<path d="M0 0 C1.32 0 2.64 0 4 0 C4.99 2.97 5.98 5.94 7 9 C7.66 9 8.32 9 9 9 C9.33 9.99 9.66 10.98 10 12 C9.01 12.33 8.02 12.66 7 13 C1.62870159 4.738041 1.62870159 4.738041 0 0 Z " fill="#959BCA" transform="translate(139,350)"/>
<path d="M0 0 C1 2 1 2 1 3 C1.99 2.34 2.98 1.68 4 1 C2.47987323 6.40489519 -1.27385218 9.98492628 -5 14 C-5.33 13.34 -5.66 12.68 -6 12 C-5.34 11.01 -4.68 10.02 -4 9 C-3.855625 8.01 -3.71125 7.02 -3.5625 6 C-2.97398527 2.86125476 -2.45590938 1.92201603 0 0 Z " fill="#5059A7" transform="translate(201,353)"/>
<path d="M0 0 C3.37462715 0.54723683 5.08235 1.0549 8 3 C8.29296875 5.1640625 8.29296875 5.1640625 8.1875 7.625 C8.16042969 8.44226563 8.13335938 9.25953125 8.10546875 10.1015625 C8.07066406 10.72804688 8.03585937 11.35453125 8 12 C7.01 12 6.02 12 5 12 C4.8046875 9.94921875 4.609375 7.8984375 4.4140625 5.84765625 C4.27742187 5.23792969 4.14078125 4.62820313 4 4 C3.34 3.67 2.68 3.34 2 3 C2 2.34 2 1.68 2 1 C1.34 0.67 0.68 0.34 0 0 Z " fill="#3E489E" transform="translate(637,431)"/>
<path d="M0 0 C0.66 0 1.32 0 2 0 C2 1.65 2 3.3 2 5 C2.66 5.33 3.32 5.66 4 6 C3.34 6 2.68 6 2 6 C2 7.65 2 9.3 2 11 C1.01 11 0.02 11 -1 11 C-1 10.67 -1 10.34 -1 10 C-2.65 10 -4.3 10 -6 10 C-6 10.66 -6 11.32 -6 12 C-6.66 12 -7.32 12 -8 12 C-7.67 10.68 -7.34 9.36 -7 8 C-4.69 8 -2.38 8 0 8 C0 5.36 0 2.72 0 0 Z " fill="#D6D8EA" transform="translate(171,445)"/>
<path d="M0 0 C4.455 0.99 4.455 0.99 9 2 C9 2.66 9 3.32 9 4 C11.31 4 13.62 4 16 4 C16 4.33 16 4.66 16 5 C10.72 5 5.44 5 0 5 C0 3.35 0 1.7 0 0 Z " fill="#5E67AE" transform="translate(109,397)"/>
<path d="M0 0 C0.99 0.33 1.98 0.66 3 1 C3.05406122 2.93719378 3.09282025 4.87481921 3.125 6.8125 C3.14820313 7.89144531 3.17140625 8.97039062 3.1953125 10.08203125 C3 13 3 13 1 16 C0.34 16 -0.32 16 -1 16 C-1 12.04 -1 8.08 -1 4 C-0.67 4 -0.34 4 0 4 C0.33 6.31 0.66 8.62 1 11 C1.33 8.36 1.66 5.72 2 3 C1.34 3 0.68 3 0 3 C0 2.01 0 1.02 0 0 Z " fill="#424CA0" transform="translate(171,342)"/>
<path d="M0 0 C1.67542976 0.28604898 3.34385343 0.61781233 5 1 C5.5625 2.9375 5.5625 2.9375 6 5 C5 6 5 6 1.9375 6.0625 C0.4834375 6.0315625 0.4834375 6.0315625 -1 6 C-1.042721 4.33388095 -1.04063832 2.66617115 -1 1 C-0.67 0.67 -0.34 0.34 0 0 Z " fill="#A5AAD2" transform="translate(163,445)"/>
<path d="M0 0 C0.66 0 1.32 0 2 0 C2 0.99 2 1.98 2 3 C2.33 2.34 2.66 1.68 3 1 C3.66 1 4.32 1 5 1 C4.54917531 2.46067199 4.08906463 3.91848032 3.625 5.375 C3.36976563 6.18710937 3.11453125 6.99921875 2.8515625 7.8359375 C2 10 2 10 0 12 C0 10.35 0 8.7 0 7 C-0.33 7.99 -0.66 8.98 -1 10 C-1.66 10 -2.32 10 -3 10 C-2.01 6.7 -1.02 3.4 0 0 Z " fill="#DCDEEE" transform="translate(151,443)"/>
<path d="M0 0 C6.75 0.75 6.75 0.75 9 3 C9.125 5.625 9.125 5.625 9 8 C7.68 8 6.36 8 5 8 C4.9175 7.4225 4.835 6.845 4.75 6.25 C3.79468987 3.3840696 2.21530827 2.0009236 0 0 Z " fill="#5861AB" transform="translate(512,423)"/>
<path d="M0 0 C0.66 0 1.32 0 2 0 C2 1.65 2 3.3 2 5 C1.01 5 0.02 5 -1 5 C-1.54372951 8.05847848 -2 10.88772805 -2 14 C-2.99 14.33 -3.98 14.66 -5 15 C-4.05660377 4.05660377 -4.05660377 4.05660377 0 0 Z " fill="#555EAA" transform="translate(186,345)"/>
<path d="M0 0 C0.66 0 1.32 0 2 0 C0.43358249 4.30764815 -1.68336156 8.06171464 -4 12 C-4.99 10.68 -5.98 9.36 -7 8 C-6.67 7.34 -6.34 6.68 -6 6 C-5.34 6 -4.68 6 -4 6 C-4.66 5.67 -5.32 5.34 -6 5 C-6 4.34 -6 3.68 -6 3 C-4.02 3.495 -4.02 3.495 -2 4 C-1.34 2.68 -0.68 1.36 0 0 Z " fill="#D6D8EA" transform="translate(218,420)"/>
<path d="M0 0 C2.92824652 0.97608217 4.61426621 2.10786631 7 4 C4.36 4.33 1.72 4.66 -1 5 C-1.33 5.99 -1.66 6.98 -2 8 C-2.99 8 -3.98 8 -5 8 C-5 6.68 -5 5.36 -5 4 C-3.35 3.34 -1.7 2.68 0 2 C0 1.34 0 0.68 0 0 Z " fill="#DDDFEE" transform="translate(218,384)"/>
<path d="M0 0 C0.33 0.66 0.66 1.32 1 2 C1.66 2 2.32 2 3 2 C3.33 1.34 3.66 0.68 4 0 C3.5205537 4.21912747 2.83374881 6.79663178 0 10 C-0.66 9.67 -1.32 9.34 -2 9 C-1.125 2.25 -1.125 2.25 0 0 Z " fill="#EFF0F7" transform="translate(185,348)"/>
<path d="M0 0 C2.97 0.495 2.97 0.495 6 1 C6.103125 1.5775 6.20625 2.155 6.3125 2.75 C7.09792798 5.32049158 8.30504197 6.93657284 10 9 C9.21625 8.979375 8.4325 8.95875 7.625 8.9375 C5.01885039 8.81315937 5.01885039 8.81315937 3 10 C3.2475 9.4225 3.495 8.845 3.75 8.25 C3.87375 7.13625 3.87375 7.13625 4 6 C2.10413616 3.85410577 2.10413616 3.85410577 0 2 C0 1.34 0 0.68 0 0 Z " fill="#C9CCE4" transform="translate(200,431)"/>
<path d="M0 0 C3.80984844 2.77079887 4.06840752 6.62868145 5 11 C4.34 11 3.68 11 3 11 C2.67 9.35 2.34 7.7 2 6 C1.34 6 0.68 6 0 6 C-0.33 6.66 -0.66 7.32 -1 8 C-1.66 5.69 -2.32 3.38 -3 1 C-1 2 -1 2 0 3 C0 2.01 0 1.02 0 0 Z " fill="#D5D7EA" transform="translate(188,441)"/>
<path d="M0 0 C0.99 0 1.98 0 3 0 C3 1.32 3 2.64 3 4 C-2.28 4 -7.56 4 -13 4 C-13 3.34 -13 2.68 -13 2 C-8.71 2 -4.42 2 0 2 C0 1.34 0 0.68 0 0 Z " fill="#656DB2" transform="translate(224,395)"/>
<path d="M0 0 C0.66 0 1.32 0 2 0 C2.66 1.32 3.32 2.64 4 4 C-1.445 5.485 -1.445 5.485 -7 7 C-7 5.68 -7 4.36 -7 3 C-4.03 3.495 -4.03 3.495 -1 4 C-0.67 2.68 -0.34 1.36 0 0 Z " fill="#F1F2F8" transform="translate(218,378)"/>
<path d="M0 0 C1.60031344 3.20062687 0.03173691 5.72271806 -1 9 C-0.34 9 0.32 9 1 9 C0.67 10.32 0.34 11.64 0 13 C-0.99 13 -1.98 13 -3 13 C-3.33 12.34 -3.66 11.68 -4 11 C-3.67 10.34 -3.34 9.68 -3 9 C-3.66 8.67 -4.32 8.34 -5 8 C-3.35 5.36 -1.7 2.72 0 0 Z " fill="#7E85BE" transform="translate(197,350)"/>
<path d="M0 0 C1.65 0 3.3 0 5 0 C5 0.99 5 1.98 5 3 C5.99 3 6.98 3 8 3 C8.33 2.01 8.66 1.02 9 0 C9 1.32 9 2.64 9 4 C7.68 4 6.36 4 5 4 C4.67 4.66 4.34 5.32 4 6 C2.68 5.34 1.36 4.68 0 4 C0 2.68 0 1.36 0 0 Z " fill="#E0E2F0" transform="translate(651,426)"/>
<path d="M0 0 C1.65 0 3.3 0 5 0 C5.33 0.66 5.66 1.32 6 2 C5.67 2.66 5.34 3.32 5 4 C1.01624339 5.17169312 -2.87439224 5.08089427 -7 5 C-7 4.67 -7 4.34 -7 4 C-5.02 3.67 -3.04 3.34 -1 3 C-0.67 2.01 -0.34 1.02 0 0 Z " fill="#6F76B7" transform="translate(165,454)"/>
<path d="M0 0 C1.65 0 3.3 0 5 0 C5 1.98 5 3.96 5 6 C3.35 6 1.7 6 0 6 C0 4.02 0 2.04 0 0 Z " fill="#D9DBEC" transform="translate(286,426)"/>
<path d="M0 0 C0.33 0 0.66 0 1 0 C1 6.27 1 12.54 1 19 C0.67 19 0.34 19 0 19 C0 16.36 0 13.72 0 11 C-0.99 10.67 -1.98 10.34 -3 10 C-2.67 9.01 -2.34 8.02 -2 7 C-1.34 7 -0.68 7 0 7 C0 4.69 0 2.38 0 0 Z " fill="#EDEEF6" transform="translate(296,424)"/>
<path d="M0 0 C0.433125 1.051875 0.86625 2.10375 1.3125 3.1875 C2.32448678 5.57946876 3.36599201 7.58820145 4.75 9.8125 C5.1625 10.534375 5.575 11.25625 6 12 C5.67 12.66 5.34 13.32 5 14 C4.60167969 13.37351562 4.20335937 12.74703125 3.79296875 12.1015625 C3.26316406 11.28429687 2.73335937 10.46703125 2.1875 9.625 C1.66542969 8.81289063 1.14335937 8.00078125 0.60546875 7.1640625 C-0.98437197 4.76649759 -0.98437197 4.76649759 -4 3 C-4 2.34 -4 1.68 -4 1 C-2 0 -2 0 0 0 Z " fill="#565FAA" transform="translate(138,351)"/>
<path d="M0 0 C2.55488699 2.55488699 2 3.53111409 2 7 C2.66 7.66 3.32 8.32 4 9 C3.625 11.125 3.625 11.125 3 13 C2.34 12.67 1.68 12.34 1 12 C0.67 12.99 0.34 13.98 0 15 C0 10.05 0 5.1 0 0 Z " fill="#3C479E" transform="translate(159,343)"/>
<path d="M0 0 C4.52048157 3.13922331 6.51545911 6.21495828 9 11 C8.01 11 7.02 11 6 11 C4.39453125 9.35546875 4.39453125 9.35546875 2.8125 7.1875 C2.28269531 6.47980469 1.75289062 5.77210938 1.20703125 5.04296875 C0 3 0 3 0 0 Z " fill="#F0F1F7" transform="translate(133,352)"/>
<path d="M0 0 C2.475 0.495 2.475 0.495 5 1 C4.67 2.65 4.34 4.3 4 6 C2.68 6 1.36 6 0 6 C0 4.02 0 2.04 0 0 Z " fill="#737AB9" transform="translate(162,428)"/>
<path d="M0 0 C0.33 0 0.66 0 1 0 C1 4.62 1 9.24 1 14 C-0.32 14 -1.64 14 -3 14 C-2.67 12.02 -2.34 10.04 -2 8 C-1.67 8 -1.34 8 -1 8 C-0.67 5.36 -0.34 2.72 0 0 Z " fill="#434DA1" transform="translate(595,424)"/>
<path d="M0 0 C1.32 0.33 2.64 0.66 4 1 C3.01 3.64 2.02 6.28 1 9 C0.67 8.34 0.34 7.68 0 7 C-0.66 7 -1.32 7 -2 7 C-1.34 4.69 -0.68 2.38 0 0 Z " fill="#4751A3" transform="translate(688,424)"/>
<path d="M0 0 C1.65 0 3.3 0 5 0 C5.33 1.65 5.66 3.3 6 5 C3.69 4.34 1.38 3.68 -1 3 C-0.67 2.01 -0.34 1.02 0 0 Z " fill="#757DBA" transform="translate(111,386)"/>
<path d="M0 0 C0 0.99 0 1.98 0 3 C-2.40625 4.82421875 -2.40625 4.82421875 -5.5 6.6875 C-7.03140625 7.62142578 -7.03140625 7.62142578 -8.59375 8.57421875 C-9.3878125 9.04472656 -10.181875 9.51523437 -11 10 C-11.66 9.34 -12.32 8.68 -13 8 C-8.71 5.36 -4.42 2.72 0 0 Z " fill="#E6E7F2" transform="translate(217,369)"/>
<path d="M0 0 C1.32 0 2.64 0 4 0 C3.75 2.375 3.75 2.375 3 5 C0.9375 6.3125 0.9375 6.3125 -1 7 C-0.67 4.69 -0.34 2.38 0 0 Z " fill="#454FA2" transform="translate(517,436)"/>
<path d="M0 0 C2.475 0.495 2.475 0.495 5 1 C5 2.32 5 3.64 5 5 C3.35 5 1.7 5 0 5 C0 3.35 0 1.7 0 0 Z " fill="#F1F2F8" transform="translate(637,426)"/>
<path d="M0 0 C2.475 0.495 2.475 0.495 5 1 C5 2.32 5 3.64 5 5 C3.35 5 1.7 5 0 5 C0 3.35 0 1.7 0 0 Z " fill="#EFF0F7" transform="translate(368,426)"/>
<path d="M0 0 C2.02408755 0.09002398 4.04544287 0.24641038 6.0625 0.4375 C7.71958984 0.59025391 7.71958984 0.59025391 9.41015625 0.74609375 C10.26480469 0.82988281 11.11945313 0.91367187 12 1 C12 1.33 12 1.66 12 2 C10.39773045 2.22245393 8.79303233 2.42746669 7.1875 2.625 C6.29417969 2.74101562 5.40085937 2.85703125 4.48046875 2.9765625 C2 3 2 3 -1 1 C-0.67 0.67 -0.34 0.34 0 0 Z " fill="#EFF0F7" transform="translate(111,396)"/>
<path d="M0 0 C4.455 0.99 4.455 0.99 9 2 C8.67 3.32 8.34 4.64 8 6 C6.66402348 5.19185349 5.331275 4.37836819 4 3.5625 C3.2575 3.11003906 2.515 2.65757812 1.75 2.19140625 C1.1725 1.79824219 0.595 1.40507812 0 1 C0 0.67 0 0.34 0 0 Z " fill="#676FB2" transform="translate(115,376)"/>
<path d="M0 0 C2.88437779 1.29299694 4.87219421 2.65941363 7 5 C6.34 6.65 5.68 8.3 5 10 C4.34 10 3.68 10 3 10 C2.67 9.01 2.34 8.02 2 7 C2.66 6.34 3.32 5.68 4 5 C2.68 3.35 1.36 1.7 0 0 Z " fill="#D4D6E9" transform="translate(133,431)"/>
<path d="M0 0 C2.97 0.33 5.94 0.66 9 1 C9 1.99 9 2.98 9 4 C5.7 3.34 2.4 2.68 -1 2 C-0.67 1.34 -0.34 0.68 0 0 Z " fill="#39439C" transform="translate(172,436)"/>
<path d="M0 0 C0.66 1.32 1.32 2.64 2 4 C0.75 5.5 0.75 5.5 -1 7 C-2.32 7 -3.64 7 -5 7 C-3.75023244 3.34683329 -3.32901247 2.21934164 0 0 Z " fill="#CBCEE5" transform="translate(126,418)"/>
<path d="M0 0 C0.99 0 1.98 0 3 0 C3 0.99 3 1.98 3 3 C4.32 3 5.64 3 7 3 C6.67 3.66 6.34 4.32 6 5 C3.36 4.67 0.72 4.34 -2 4 C-1.34 2.68 -0.68 1.36 0 0 Z " fill="#ECEDF5" transform="translate(220,389)"/>
<path d="M0 0 C0.66 0 1.32 0 2 0 C2.33 1.65 2.66 3.3 3 5 C3.66 5 4.32 5 5 5 C5 5.66 5 6.32 5 7 C3.68 7.33 2.36 7.66 1 8 C0.03601353 5.1080406 0 3.0005625 0 0 Z " fill="#4D56A6" transform="translate(188,447)"/>
<path d="M0 0 C0.99 0 1.98 0 3 0 C3 0.99 3 1.98 3 3 C2.34 3 1.68 3 1 3 C1 3.99 1 4.98 1 6 C1.99 6.33 2.98 6.66 4 7 C2.68 7 1.36 7 0 7 C-0.38133299 5.0085944 -0.71325582 3.00720923 -1 1 C-0.67 0.67 -0.34 0.34 0 0 Z " fill="#6068AF" transform="translate(150,344)"/>
<path d="M0 0 C0.66 0 1.32 0 2 0 C2 1.98 2 3.96 2 6 C1.34 5.34 0.68 4.68 0 4 C-0.33 5.32 -0.66 6.64 -1 8 C-1.66 8 -2.32 8 -3 8 C-1.125 1.125 -1.125 1.125 0 0 Z " fill="#555EAA" transform="translate(180,343)"/>
<path d="M0 0 C1.67542976 0.28604898 3.34385343 0.61781233 5 1 C3.35 2.32 1.7 3.64 0 5 C-0.5625 3.0625 -0.5625 3.0625 -1 1 C-0.67 0.67 -0.34 0.34 0 0 Z " fill="#F6F7FA" transform="translate(167,434)"/>
<path d="M0 0 C1.134375 0.020625 2.26875 0.04125 3.4375 0.0625 C1.4575 1.0525 1.4575 1.0525 -0.5625 2.0625 C0.4275 2.7225 1.4175 3.3825 2.4375 4.0625 C0.0625 4.25 0.0625 4.25 -2.5625 4.0625 C-3.2225 3.0725 -3.8825 2.0825 -4.5625 1.0625 C-3.5625 0.0625 -3.5625 0.0625 0 0 Z " fill="#4A53A4" transform="translate(113.5625,391.9375)"/>
<path d="M0 0 C0.66 0.66 1.32 1.32 2 2 C1.34 3.65 0.68 5.3 0 7 C-0.99 6.67 -1.98 6.34 -3 6 C-3 4.68 -3 3.36 -3 2 C-2.01 2 -1.02 2 0 2 C0 1.34 0 0.68 0 0 Z " fill="#A6AAD2" transform="translate(123,417)"/>
</svg>
