<?xml version="1.0" encoding="UTF-8"?>
<svg version="1.1" xmlns="http://www.w3.org/2000/svg" width="2699" height="1414">
<path d="M0 0 C890.67 0 1781.34 0 2699 0 C2699 466.62 2699 933.24 2699 1414 C1808.33 1414 917.66 1414 0 1414 C0 947.38 0 480.76 0 0 Z " fill="#FEFEFE" transform="translate(0,0)"/>
<path d="M0 0 C9.69375 -0.12375 19.3875 -0.2475 29.375 -0.375 C32.39575684 -0.42962402 35.41651367 -0.48424805 38.52880859 -0.54052734 C60.95847179 -0.77874004 77.90604357 2.03422148 94.671875 17.6171875 C105.83641009 29.04397677 108.2700263 43.10845299 108.24658203 58.49291992 C108.0155108 73.09947029 102.61194055 86.17338532 92.48046875 96.74609375 C79.05430891 108.94592718 62.82707205 112.34207625 45.21484375 112.1953125 C43.48868835 112.19229126 43.48868835 112.19229126 41.72766113 112.18920898 C37.46423304 112.17881278 33.20086215 112.15089063 28.9375 112.125 C19.388125 112.08375 9.83875 112.0425 0 112 C0 75.04 0 38.08 0 0 Z " fill="#060606" transform="translate(1617,651)"/>
<path d="M0 0 C0 37.29 0 74.58 0 113 C-8.91 113 -17.82 113 -27 113 C-27 110.69 -27 108.38 -27 106 C-27.71285156 106.48210937 -28.42570312 106.96421875 -29.16015625 107.4609375 C-30.59681641 108.40839844 -30.59681641 108.40839844 -32.0625 109.375 C-33.00222656 110.00148438 -33.94195313 110.62796875 -34.91015625 111.2734375 C-43.14110059 115.87277681 -52.79273826 116.2564143 -62 115 C-69.8063081 112.57079449 -75.82729497 108.26022792 -81 102 C-81.86625 101.01 -82.7325 100.02 -83.625 99 C-91.58448197 87.10044224 -92.86255669 72.61808589 -90.30078125 58.87109375 C-88.67877957 51.47614189 -86.27429162 45.49348296 -81 40 C-80.175 39.113125 -79.35 38.22625 -78.5 37.3125 C-77.675 36.549375 -76.85 35.78625 -76 35 C-75.0925 34.13375 -74.185 33.2675 -73.25 32.375 C-64.94430172 25.77623721 -54.11610121 26.03538399 -44 27 C-40.52107195 27.71215704 -37.28097229 28.64569203 -34 30 C-34 30.66 -34 31.32 -34 32 C-33.195625 32.309375 -32.39125 32.61875 -31.5625 32.9375 C-29 34 -29 34 -28 35 C-27.67 25.1 -27.34 15.2 -27 5 C-21.7096875 3.7625 -21.7096875 3.7625 -16.3125 2.5 C-14.657948 2.10844727 -14.657948 2.10844727 -12.9699707 1.70898438 C-11.64872192 1.40444336 -11.64872192 1.40444336 -10.30078125 1.09375 C-9.40528564 0.88427734 -8.50979004 0.67480469 -7.5871582 0.45898438 C-5 0 -5 0 0 0 Z " fill="#030303" transform="translate(1919,649)"/>
<path d="M0 0 C5.62690797 3.12605998 8.00466461 5.64950937 10.125 11.625 C12.10356905 16.93435541 14.39334326 21.91046324 17 26.9375 C19.54973261 31.87561954 21.72113627 36.71749587 23.5 42 C26.00962479 49.43561129 29.49112018 56.20703175 33.07177734 63.16503906 C36.34472112 69.63517201 39.15997135 76.33210664 42 83 C44.14681084 87.89360375 46.34471985 92.76319967 48.5625 97.625 C50.4313906 101.72744279 52.23339174 105.85231105 54 110 C56.55927855 115.83381399 59.1937987 121.63235131 61.8515625 127.421875 C65 134.48979592 65 134.48979592 65 138 C60.38 138 55.76 138 51 138 C50.67 136.68 50.34 135.36 50 134 C49.34 134 48.68 134 48 134 C47.78085937 133.44054687 47.56171875 132.88109375 47.3359375 132.3046875 C43.08011997 121.54404317 38.58358241 110.95619701 33.32421875 100.64453125 C31.73887766 97.47852559 30.34021148 94.2760725 29 91 C26.47407173 94.12733977 24.76192564 97.3960612 23 101 C22 102 22 102 19.41209412 102.12025452 C18.25959671 102.11803391 17.1070993 102.11581329 15.91967773 102.11352539 C13.96776772 102.11341209 13.96776772 102.11341209 11.97642517 102.11329651 C10.54548098 102.10818909 9.11453718 102.10297308 7.68359375 102.09765625 C6.2277074 102.09579203 4.77182043 102.09436815 3.31593323 102.09336853 C-0.52279379 102.08954365 -4.36148319 102.07971364 -8.20019531 102.06866455 C-12.11457816 102.05844978 -16.02896706 102.05387077 -19.94335938 102.04882812 C-27.62892343 102.03809134 -35.31445645 102.02101529 -43 102 C-43.14856445 102.77706299 -43.29712891 103.55412598 -43.45019531 104.35473633 C-44.73941807 110.55754652 -47.60979448 116.33549671 -50.5 121.9375 C-53.1710105 127.13894151 -55.08837202 132.47751915 -57 138 C-61.95 138 -66.9 138 -72 138 C-70.87489757 130.12428298 -70.87489757 130.12428298 -69.328125 126.94921875 C-68.99594971 126.25602539 -68.66377441 125.56283203 -68.3215332 124.84863281 C-67.96792725 124.13545898 -67.61432129 123.42228516 -67.25 122.6875 C-66.88801514 121.93694336 -66.52603027 121.18638672 -66.15307617 120.41308594 C-64.25783737 116.49831653 -62.30068217 112.61838001 -60.3125 108.75 C-57.8761008 103.96713579 -56.06518307 98.99155222 -54.1875 93.96875 C-53.23547715 91.58869288 -52.25621745 89.49662577 -50.9375 87.3125 C-48.93791132 83.89384839 -47.52526682 80.51164203 -46.10327148 76.8269043 C-42.07476701 66.50469732 -37.56338091 56.38507499 -33.06152344 46.26318359 C-31.99923017 43.87326807 -30.94092648 41.48161204 -29.8828125 39.08984375 C-26.72785394 31.97855304 -23.53100337 24.92624641 -19.98388672 17.99951172 C-18.64496475 15.27847674 -17.60398783 12.47097042 -16.5625 9.625 C-15.03631334 5.93750552 -14.08425898 4.08238656 -11.1875 1.25 C-7.25751951 -0.29116882 -4.15842796 -0.84493954 0 0 Z " fill="#090909" transform="translate(640,638)"/>
<path d="M0 0 C1.37305186 1.16561237 2.72980166 2.35095605 4.0625 3.5625 C4.949375 4.366875 5.83625 5.17125 6.75 6 C16.30313478 16.58590611 20.12675986 27.09541297 19.51171875 41.37109375 C18.55506542 53.11622415 12.26709855 63.73850285 3.9375 71.8125 C-1.14930598 76.1187 -6.6773991 78.42384866 -12.9375 80.5625 C-14.175 80.995625 -15.4125 81.42875 -16.6875 81.875 C-28.31285769 84.369608 -41.28440677 83.40865935 -51.4296875 76.984375 C-53.71390504 75.27698007 -55.8283293 73.48066681 -57.9375 71.5625 C-58.57558594 71.0159375 -59.21367188 70.469375 -59.87109375 69.90625 C-67.67910174 62.78669003 -72.7827441 51.44275725 -73.37109375 40.87890625 C-73.39457578 39.29444429 -73.39548579 37.70950353 -73.375 36.125 C-73.36670166 35.29170166 -73.35840332 34.45840332 -73.34985352 33.59985352 C-73.1748603 27.22723583 -72.26887788 22.09179879 -68.9375 16.5625 C-68.43992187 15.72589844 -67.94234375 14.88929688 -67.4296875 14.02734375 C-60.90709814 3.97042109 -52.33082384 -3.75044824 -40.5625 -6.6875 C-26.50323157 -9.07410421 -11.76964542 -8.83688132 0 0 Z " fill="#040404" transform="translate(2076.9375,682.4375)"/>
<path d="M0 0 C1.2384668 -0.01836914 1.2384668 -0.01836914 2.50195312 -0.03710938 C13.10144675 -0.06216728 24.12396865 2.77372776 31.99609375 10.265625 C38.73878129 18.5598557 41.46624436 26.30584243 41.125 36.9375 C41.11533203 37.85660156 41.10566406 38.77570312 41.09570312 39.72265625 C41.02284399 44.1005398 40.68011808 47.84940959 39.8125 52.1875 C21.6625 52.1875 3.5125 52.1875 -15.1875 52.1875 C-11.61009969 60.88905986 -11.61009969 60.88905986 -5.1875 66.1875 C3.11958588 68.98722739 12.27203176 68.27254104 20.12573242 64.68164062 C22.05473051 63.72244167 23.96212417 62.73187509 25.86328125 61.71875 C28.8125 60.1875 28.8125 60.1875 30.8125 60.1875 C32.34867083 62.76275715 33.86638201 65.346174 35.375 67.9375 C35.81263672 68.66710937 36.25027344 69.39671875 36.70117188 70.1484375 C37.11044922 70.85742188 37.51972656 71.56640625 37.94140625 72.296875 C38.32369385 72.94624023 38.70598145 73.59560547 39.09985352 74.26464844 C39.99910461 76.69099364 39.79217783 77.81385425 38.8125 80.1875 C34.66532539 83.52150312 30.2764305 85.30707634 25.25 86.875 C24.60353516 87.08705078 23.95707031 87.29910156 23.29101562 87.51757812 C9.31546872 92.0244432 -7.41502351 91.8620656 -20.99609375 85.96875 C-27.19328907 82.57302654 -32.07438287 77.932077 -36.1875 72.1875 C-36.1875 71.5275 -36.1875 70.8675 -36.1875 70.1875 C-36.8475 70.1875 -37.5075 70.1875 -38.1875 70.1875 C-41.843517 61.56974565 -43.6664906 53.99841787 -43.625 44.625 C-43.62242187 43.78098633 -43.61984375 42.93697266 -43.6171875 42.06738281 C-43.50548206 37.4036807 -42.94561131 33.56366837 -41.1875 29.1875 C-40.91550781 28.43726563 -40.64351562 27.68703125 -40.36328125 26.9140625 C-37.93071555 20.99225097 -34.69451877 16.70373557 -30.1875 12.1875 C-29.56746094 11.55585937 -28.94742188 10.92421875 -28.30859375 10.2734375 C-23.45362085 5.66366525 -18.50920222 3.27601974 -12.1875 1.1875 C-8.094735 -0.176755 -4.28627047 0.00326947 0 0 Z " fill="#050505" transform="translate(2246.1875,674.8125)"/>
<path d="M0 0 C0.90878906 0.63292969 1.81757812 1.26585937 2.75390625 1.91796875 C3.48738281 2.39621094 4.22085937 2.87445312 4.9765625 3.3671875 C10.9042642 7.75947602 14.23062549 14.80740292 15.75390625 21.91796875 C15.96758254 24.853055 15.93901619 27.78831038 15.94140625 30.73046875 C15.95365234 31.51228516 15.96589844 32.29410156 15.97851562 33.09960938 C15.98044922 33.87111328 15.98238281 34.64261719 15.984375 35.4375 C15.98848389 36.12948486 15.99259277 36.82146973 15.99682617 37.53442383 C15.75390625 39.91796875 15.75390625 39.91796875 13.75390625 46.91796875 C-4.06609375 46.91796875 -21.88609375 46.91796875 -40.24609375 46.91796875 C-36.66869344 55.61952861 -36.66869344 55.61952861 -30.24609375 60.91796875 C-20.91485825 64.12558095 -10.45142611 62.33564895 -1.83203125 58.20703125 C-0.97867187 57.78164063 -0.1253125 57.35625 0.75390625 56.91796875 C2.41451115 56.23634305 4.07943617 55.56478571 5.75390625 54.91796875 C7.29007708 57.4932259 8.80778826 60.07664275 10.31640625 62.66796875 C10.75404297 63.39757812 11.19167969 64.1271875 11.64257812 64.87890625 C12.05185547 65.58789062 12.46113281 66.296875 12.8828125 67.02734375 C13.2651001 67.67670898 13.6473877 68.32607422 14.04125977 68.99511719 C14.9461521 71.43668348 14.76303535 72.53458319 13.75390625 74.91796875 C2.89741088 83.55885282 -9.99639875 85.36656699 -23.43359375 85.41796875 C-25.06445923 85.42727417 -25.06445923 85.42727417 -26.72827148 85.43676758 C-32.30250945 85.34744382 -35.51124071 85.03611636 -40.24609375 81.91796875 C-41.6502471 81.47981141 -43.06784824 81.08224033 -44.49609375 80.73046875 C-53.09465544 77.9548931 -58.74952241 71.20543357 -63.03125 63.5078125 C-64.94151037 59.43545679 -66.22442476 55.29130005 -67.24609375 50.91796875 C-67.42785156 50.1496875 -67.60960937 49.38140625 -67.796875 48.58984375 C-69.71599981 37.17522317 -68.67753274 26.22636108 -63.24609375 15.91796875 C-60.55556716 12.20655077 -57.59084669 9.04395988 -54.24609375 5.91796875 C-53.61058594 5.31082031 -52.97507812 4.70367188 -52.3203125 4.078125 C-38.71222424 -8.26269118 -15.47572943 -9.3301329 0 0 Z " fill="#060606" transform="translate(1802.24609375,680.08203125)"/>
<path d="M0 0 C4.30919488 -0.25296893 6.78643516 1.7370357 10.125 4.3125 C12.328125 6.87109375 12.328125 6.87109375 14.375 9.75 C15.14714844 10.81605469 15.91929688 11.88210938 16.71484375 12.98046875 C17.11171387 13.5326709 17.50858398 14.08487305 17.91748047 14.65380859 C19.86815633 17.33332574 21.90597665 19.94401967 23.9375 22.5625 C30.27228985 30.76381254 36.46161235 39.07396303 42.66601562 47.37402344 C44.1933003 49.41654836 45.72133631 51.45850697 47.25 53.5 C47.75144531 54.16966797 48.25289062 54.83933594 48.76953125 55.52929688 C51.81393195 59.587173 54.89326146 63.61466757 58 67.625 C62.04314707 72.85654812 65.96941868 78.16516727 69.875 83.5 C75.34848796 90.97489714 80.96019554 98.32805083 86.68261719 105.61401367 C87.23594727 106.31888916 87.78927734 107.02376465 88.359375 107.75 C88.84631836 108.36746094 89.33326172 108.98492188 89.83496094 109.62109375 C90.99328269 111.13980176 92.06551053 112.7232658 93.125 114.3125 C93.455 76.6925 93.785 39.0725 94.125 0.3125 C98.415 0.3125 102.705 0.3125 107.125 0.3125 C107.125 45.8525 107.125 91.3925 107.125 138.3125 C94.125 138.3125 94.125 138.3125 91.16796875 136.29296875 C90.55566406 135.37128906 89.94335938 134.44960938 89.3125 133.5 C88.60351562 132.49066406 87.89453125 131.48132813 87.1640625 130.44140625 C86.49117187 129.40886719 85.81828125 128.37632812 85.125 127.3125 C83.82021964 125.51520373 82.50784897 123.72339034 81.1875 121.9375 C80.53394531 121.02613281 79.88039063 120.11476563 79.20703125 119.17578125 C76.98263179 116.11671033 74.69062177 113.11504376 72.375 110.125 C68.70720695 105.38540806 65.08726555 100.61332603 61.5 95.8125 C56.68243719 89.36769265 51.81884574 82.95911811 46.9375 76.5625 C41.29821482 69.17138924 35.68886727 61.76058473 30.125 54.3125 C27.61020888 50.95679244 25.09311534 47.6028117 22.57641602 44.24853516 C20.25039791 41.14792212 17.92533319 38.04662696 15.60546875 34.94140625 C14.84878906 33.92949219 14.09210938 32.91757812 13.3125 31.875 C12.60609375 30.93011719 11.8996875 29.98523438 11.171875 29.01171875 C8.61938036 25.64573822 5.99408482 22.34089073 3.33984375 19.0546875 C2.125 17.3125 2.125 17.3125 2.125 15.3125 C1.465 15.3125 0.805 15.3125 0.125 15.3125 C0.125 55.9025 0.125 96.4925 0.125 138.3125 C-4.165 138.3125 -8.455 138.3125 -12.875 138.3125 C-12.99079184 121.3358941 -13.07999669 104.35944614 -13.13406086 87.38253593 C-13.15983212 79.49967879 -13.19496168 71.61707166 -13.25219727 63.734375 C-13.30206569 56.86303098 -13.33429886 49.99186805 -13.34544247 43.1203481 C-13.35195556 39.48251942 -13.36723955 35.84520873 -13.40365028 32.20754623 C-13.4439884 28.14447904 -13.44494726 24.08230979 -13.44262695 20.01904297 C-13.46060333 18.81566788 -13.47857971 17.61229279 -13.49710083 16.37245178 C-13.4408149 7.27850112 -13.4408149 7.27850112 -10.45280457 3.57302856 C-6.6724664 0.25797415 -4.96628096 0.40050653 0 0 Z " fill="#080808" transform="translate(1011.875,637.6875)"/>
<path d="M0 0 C17.72301422 11.46088253 30.21122188 27.69750697 34.8984375 48.58203125 C35.34090837 52.44668467 35.42332209 56.25686455 35.3984375 60.14453125 C35.39271729 61.19302246 35.38699707 62.24151367 35.38110352 63.32177734 C35.16763055 72.72465066 33.46708076 80.90669084 29.8984375 89.58203125 C29.64674805 90.20255371 29.39505859 90.82307617 29.13574219 91.46240234 C22.65889693 106.89684679 12.63488157 116.74307396 -1.1015625 125.58203125 C-1.89820313 126.11441406 -2.69484375 126.64679688 -3.515625 127.1953125 C-6.94028133 129.03179739 -10.44894974 130.1037347 -14.1640625 131.20703125 C-14.87111328 131.42359375 -15.57816406 131.64015625 -16.30664062 131.86328125 C-32.82487659 136.8885474 -52.31319411 136.64593251 -67.94921875 128.7109375 C-71.44102239 126.82352503 -74.77228978 124.74214684 -78.1015625 122.58203125 C-78.82085938 122.13730469 -79.54015625 121.69257812 -80.28125 121.234375 C-95.00292978 111.58349603 -104.60921745 92.50648198 -108.68041992 75.82128906 C-112.2668734 56.75175207 -107.59801932 36.84301941 -96.96386719 20.87353516 C-85.85766078 5.2881081 -70.34290278 -3.78380509 -52.1015625 -8.41796875 C-51.47403076 -8.59521484 -50.84649902 -8.77246094 -50.19995117 -8.95507812 C-33.18442328 -12.70859074 -14.58384328 -8.9700309 0 0 Z M-85.2421875 27.0234375 C-95.11530451 40.05165929 -97.77875844 56.65085057 -95.7109375 72.59375 C-93.79666707 81.58836683 -89.46266639 89.56534701 -85.1015625 97.58203125 C-84.65941406 98.44957031 -84.21726562 99.31710937 -83.76171875 100.2109375 C-81.47724015 103.47371046 -78.68315301 105.67150591 -75.5390625 108.08203125 C-74.91354492 108.56542969 -74.28802734 109.04882812 -73.64355469 109.546875 C-68.73700521 113.25885195 -63.83472439 116.29455757 -58.1015625 118.58203125 C-57.39773438 118.89785156 -56.69390625 119.21367188 -55.96875 119.5390625 C-44.81873285 123.79316312 -28.98582957 123.3400692 -18.1015625 118.58203125 C-17.36292969 118.29199219 -16.62429688 118.00195312 -15.86328125 117.703125 C1.21400198 110.65395282 12.16919185 99.38957336 19.3359375 82.33203125 C24.05195191 70.02335424 24.30192411 53.41566287 19.21484375 41.203125 C18.56322266 39.90568359 18.56322266 39.90568359 17.8984375 38.58203125 C17.41246094 37.58300781 16.92648437 36.58398438 16.42578125 35.5546875 C8.78600844 21.23237111 -2.97777758 11.90730763 -18.1015625 6.58203125 C-18.81183594 6.28167969 -19.52210938 5.98132813 -20.25390625 5.671875 C-44.7578431 -3.58708181 -69.1533413 8.67393225 -85.2421875 27.0234375 Z " fill="#090909" transform="translate(942.1015625,644.41796875)"/>
<path d="M0 0 C0 0.66 0 1.32 0 2 C0.556875 2.226875 1.11375 2.45375 1.6875 2.6875 C8.17362884 6.36881637 11.27688055 12.29693675 14 19 C14.91561059 22.74638733 15.12163281 26.22441444 15.11352539 30.07543945 C15.11341209 31.87674065 15.11341209 31.87674065 15.11329651 33.71443176 C15.10813522 35.00105209 15.10297394 36.28767242 15.09765625 37.61328125 C15.09578956 38.95134936 15.09436684 40.28941815 15.09336853 41.62748718 C15.08956314 45.1373587 15.07974988 48.64718839 15.06866455 52.15704346 C15.05840777 55.74336165 15.05380688 59.32968686 15.04882812 62.91601562 C15.03865731 69.94404728 15.01908064 76.97196428 15 84 C5.76 84 -3.48 84 -13 84 C-13.04898438 80.47183594 -13.09796875 76.94367188 -13.1484375 73.30859375 C-13.20249544 69.87975945 -13.25978409 66.45099323 -13.31738281 63.0222168 C-13.355592 60.64499005 -13.39045875 58.26770708 -13.421875 55.89038086 C-13.46770039 52.46708119 -13.52566668 49.04416589 -13.5859375 45.62109375 C-13.59748871 44.56353378 -13.60903992 43.50597382 -13.62094116 42.41636658 C-13.62744249 32.61553307 -13.62744249 32.61553307 -18.5 24.5625 C-24.44871297 21.90682456 -29.63819873 22.30307504 -35.8125 24.125 C-39.441509 26.25971117 -42.04106353 28.27087147 -44 32 C-44.73823466 35.9130388 -44.72143859 39.76875101 -44.70703125 43.7421875 C-44.72215256 44.86569611 -44.73727386 45.98920471 -44.75285339 47.14675903 C-44.79572253 50.72304365 -44.80456821 54.29848405 -44.8125 57.875 C-44.83564472 60.30470993 -44.86100999 62.7343998 -44.88867188 65.1640625 C-44.95568365 71.10983442 -44.97665447 77.05325591 -45 83 C-53.91 83 -62.82 83 -72 83 C-72 54.95 -72 26.9 -72 -2 C-62.76 -2 -53.52 -2 -44 -2 C-44 0.64 -44 3.28 -44 6 C-43.52691406 5.60167969 -43.05382813 5.20335937 -42.56640625 4.79296875 C-30.47362334 -4.89540118 -14.26850373 -5.88970179 0 0 Z " fill="#050505" transform="translate(2178,679)"/>
<path d="M0 0 C5.36968302 -1.10391961 10.74856184 -1.99671674 16 0 C20.8227219 4.19967837 23.73698553 10.1956299 26.75390625 15.74414062 C28.33965817 18.61489842 30.13952334 21.30078386 32 24 C38.875 34.3125 38.875 34.3125 40.42407227 36.63696289 C41.46777832 38.20195606 42.51252388 39.76625652 43.55834961 41.32983398 C45.87752117 44.7995335 48.18594635 48.27363365 50.44140625 51.78515625 C51.14136719 52.86667969 51.84132813 53.94820312 52.5625 55.0625 C53.16191406 56.00222656 53.76132812 56.94195313 54.37890625 57.91015625 C55.90484366 60.2770465 55.90484366 60.2770465 59 61 C59.26506348 60.26982666 59.53012695 59.53965332 59.80322266 58.78735352 C60.99896401 56.00241287 62.36972562 53.8483938 64.1484375 51.40234375 C68.10483622 45.87258647 71.86995426 40.23027507 75.625 34.5625 C82.2766726 24.55071215 89.01431977 14.60221083 95.83349609 4.70385742 C96.90125769 3.14422825 97.95154943 1.57267586 99 0 C101.7885289 -0.22107787 104.34653181 -0.28107535 107.125 -0.1875 C107.87910156 -0.17396484 108.63320313 -0.16042969 109.41015625 -0.14648438 C111.27374127 -0.11109985 113.13695978 -0.05729167 115 0 C113.7160335 2.66682838 112.32111903 5.1405311 110.67407227 7.59863281 C110.21169662 8.29075867 109.74932098 8.98288452 109.27293396 9.69598389 C108.52101524 10.81326874 108.52101524 10.81326874 107.75390625 11.953125 C107.22616104 12.74100403 106.69841583 13.52888306 106.15467834 14.34063721 C102.13127527 20.33892076 98.08094236 26.31897291 94.02734375 32.296875 C93.44538239 33.15526978 92.86342102 34.01366455 92.26382446 34.89807129 C87.48016476 41.95250304 87.48016476 41.95250304 85.1027832 45.44628906 C83.32430207 48.06090581 81.55043928 50.67860409 79.77734375 53.296875 C79.23988022 54.08439148 78.70241669 54.87190796 78.14866638 55.68328857 C73.03598513 62.37384881 73.03598513 62.37384881 71.15771484 70.12866211 C72.10170394 72.22595963 73.17850687 74.0409623 74.4765625 75.94140625 C74.97897461 76.68447021 75.48138672 77.42753418 75.99902344 78.19311523 C76.5355957 78.97501221 77.07216797 79.75690918 77.625 80.5625 C78.72750855 82.18946348 79.82907539 83.81706551 80.9296875 85.4453125 C81.46174805 86.23067383 81.99380859 87.01603516 82.54199219 87.82519531 C84.33256699 90.4960661 86.04939168 93.20861689 87.75 95.9375 C90.64290355 100.53665492 93.81005115 104.88751653 97.03515625 109.2578125 C99.55446179 112.77382143 101.83754075 116.41256537 104.125 120.08203125 C106.68126287 124.06021534 109.40006731 127.91915065 112.15600586 131.76123047 C115 135.78480415 115 135.78480415 115 138 C109.97665174 138.84392251 104.92415015 139.59199959 100 138 C96.01186079 134.93675393 93.67225495 130.385786 91.23364258 126.078125 C89.34576002 122.89790407 87.17638456 119.92925992 85.03857422 116.91357422 C80.85433506 110.93336942 76.851831 104.82858338 72.8125 98.75 C71.91482298 97.40096884 71.01703714 96.05201008 70.11914062 94.703125 C68.47174103 92.22798455 66.82497119 89.75242787 65.17895508 87.27636719 C63.1215361 84.18274672 61.06148615 81.09091058 59 78 C57.14140449 78.01015069 57.14140449 78.01015069 55 79 C53.32005984 81.14239349 51.88614701 83.20516475 50.453125 85.50390625 C49.56605981 86.88056742 48.67867821 88.25702474 47.79101562 89.63330078 C47.33283447 90.3523761 46.87465332 91.07145142 46.40258789 91.81231689 C44.12035303 95.37202725 41.76859859 98.88496055 39.421875 102.40234375 C38.47889796 103.82078494 37.53619071 105.23940553 36.59375 106.65820312 C36.12582031 107.36211182 35.65789063 108.06602051 35.17578125 108.79125977 C34.21729113 110.23408282 33.25962187 111.67745148 32.30273438 113.12133789 C23.26255713 126.75958905 23.26255713 126.75958905 19.390625 131.81640625 C16.89335441 134.79195978 16.89335441 134.79195978 16 138 C10.72 138 5.44 138 0 138 C1.73887499 133.65281253 3.72270611 130.17618297 6.33203125 126.36328125 C6.76892776 125.71659988 7.20582428 125.06991852 7.65596008 124.40364075 C8.60337152 123.00202378 9.55278269 121.60175688 10.50396729 120.20269775 C12.02462541 117.96374255 13.53755382 115.71974788 15.04833984 113.47412109 C17.71147037 109.51628407 20.38005758 105.5621706 23.05102539 101.60961914 C24.6970751 99.17332805 26.34172655 96.73609693 27.98632812 94.29882812 C28.5218631 93.50638702 29.05739807 92.71394592 29.60916138 91.89749146 C30.65659835 90.34646935 31.70211915 88.79415124 32.74557495 87.240448 C36.00139463 82.40862304 39.37925533 77.70291379 42.99926758 73.1340332 C44.41614091 70.11259144 43.83836934 68.16824073 43 65 C41.42653657 62.32995921 41.42653657 62.32995921 39.375 59.8125 C35.93185286 55.38268026 32.93146461 50.7824784 29.94042969 46.03491211 C26.55369001 40.73791149 22.98780208 35.56317478 19.4375 30.375 C17.97747529 28.23724499 16.51783303 26.09922872 15.05859375 23.9609375 C14.36765625 22.94878174 13.67671875 21.93662598 12.96484375 20.89379883 C10.71784216 17.58444124 8.49979409 14.25688003 6.29663086 10.91821289 C4.95239459 8.92957339 3.54602852 6.99680807 2.125 5.0625 C0 2 0 2 0 0 Z " fill="#0A0A0A" transform="translate(714,638)"/>
<path d="M0 0 C8.20962114 2.47612767 14.03673986 11.46081923 19.1328125 17.8984375 C22.29536591 21.8111529 25.69196292 25.48700621 29.09375 29.19140625 C31.57752406 31.90022024 34.01725619 34.63936237 36.41796875 37.421875 C38.10223433 39.36222774 39.80654593 41.2804378 41.51953125 43.1953125 C42.63314199 44.45674045 43.74642101 45.71846132 44.859375 46.98046875 C45.4044873 47.5835083 45.94959961 48.18654785 46.51123047 48.80786133 C50.421875 53.27761458 50.421875 53.27761458 50.421875 57.73046875 C1.581875 57.73046875 -47.258125 57.73046875 -97.578125 57.73046875 C-97.578125 57.07046875 -97.578125 56.41046875 -97.578125 55.73046875 C-96.99546875 55.5195459 -96.4128125 55.30862305 -95.8125 55.09130859 C-93.06737163 54.0969549 -90.32268392 53.10139315 -87.578125 52.10546875 C-86.57080322 51.7401001 -85.56348145 51.37473145 -84.52563477 50.99829102 C-78.2091798 48.70217496 -71.91723771 46.35115737 -65.63989258 43.95068359 C-60.98585948 42.19647567 -56.28100341 40.64735948 -51.5456543 39.12768555 C-32.72806207 33.05456256 -23.8467362 26.42972896 -14.66796875 8.96484375 C-11.03005408 3.33457581 -6.98812195 -0.43382636 0 0 Z " fill="#070707" transform="translate(487.578125,719.26953125)"/>
<path d="M0 0 C4.62 0 9.24 0 14 0 C14 91.08 14 182.16 14 276 C9.38 276 4.76 276 0 276 C0 184.92 0 93.84 0 0 Z " fill="#131313" transform="translate(1257,569)"/>
<path d="M0 0 C0.99 0.66 1.98 1.32 3 2 C2.46870624 7.97201091 1.15389059 12.94616743 -1.0625 18.5 C-1.34416016 19.22703125 -1.62582031 19.9540625 -1.91601562 20.703125 C-2.60258448 22.47191255 -3.30013682 24.23643041 -4 26 C-6.16874252 25.49396008 -7.99967627 25.00016187 -10 24 C-21.29718581 23.09152202 -21.29718581 23.09152202 -31 28 C-35.85508647 33.473872 -35.60133163 38.64179991 -35.609375 45.7421875 C-35.62591125 46.86569611 -35.64244751 47.98920471 -35.65948486 49.14675903 C-35.70793415 52.72289515 -35.72932998 56.29860606 -35.75 59.875 C-35.77816209 62.30470886 -35.80808985 64.73439793 -35.83984375 67.1640625 C-35.91700539 73.10957005 -35.95755702 79.0537383 -36 85 C-45.24 85 -54.48 85 -64 85 C-64 56.62 -64 28.24 -64 -1 C-54.76 -1 -45.52 -1 -36 -1 C-35.67 2.96 -35.34 6.92 -35 11 C-34.46375 10.113125 -33.9275 9.22625 -33.375 8.3125 C-25.46485857 -3.55271215 -12.74800514 -4.24933505 0 0 Z " fill="#060606" transform="translate(2000,678)"/>
<path d="M0 0 C30.57821229 0 30.57821229 0 39 5 C39.62261719 5.33773437 40.24523438 5.67546875 40.88671875 6.0234375 C46.22166706 9.59798725 49.15910538 16.07877195 51 22 C52.56422708 33.07682334 51.60556874 43.77948085 45.4375 53.25 C40.73722731 59.14884222 33.80336346 61.27865461 27 64 C18.09 64 9.18 64 0 64 C0 42.88 0 21.76 0 0 Z " fill="#FAFAFA" transform="translate(1645,675)"/>
<path d="M0 0 C0.66 0 1.32 0 2 0 C-0.2276612 10.91847101 -3.27267279 21.24512668 -7.35742188 31.62719727 C-10.62431376 40.37724914 -11.8200467 49.37734834 -7.95800781 58.15429688 C-6.24641706 61.45185703 -4.36369662 64.61299146 -2.375 67.75 C0.94356636 73.01139792 3.09265525 77.17161853 3.375 83.4375 C3.42398438 84.17871094 3.47296875 84.91992188 3.5234375 85.68359375 C2.70776426 89.29325219 0.834099 90.69073415 -2 93 C-4.56929783 94.18432926 -6.96457516 95.16633002 -9.625 96.0625 C-10.27339844 96.29259766 -10.92179687 96.52269531 -11.58984375 96.75976562 C-12.96333497 97.24648824 -14.33885013 97.72752742 -15.71606445 98.20361328 C-19.20804339 99.4212333 -22.67909162 100.6954369 -26.15332031 101.96264648 C-28.94547168 102.98012943 -31.73993038 103.99099767 -34.53515625 105 C-35.44716797 105.33 -36.35917969 105.66 -37.29882812 106 C-39.14473049 106.66791662 -40.99108719 107.33457892 -42.83789062 108 C-48.22544628 109.95217869 -53.53763106 112.01044811 -58.80639648 114.265625 C-61 115 -61 115 -65 115 C-64.33999148 111.69759006 -63.11189988 109.16362287 -61.4453125 106.24609375 C-60.9188916 105.31949951 -60.3924707 104.39290527 -59.85009766 103.43823242 C-59.28081543 102.44799072 -58.7115332 101.45774902 -58.125 100.4375 C-57.53638184 99.40536377 -56.94776367 98.37322754 -56.34130859 97.30981445 C-54.56689802 94.20304028 -52.7851427 91.10061802 -51 88 C-50.52175781 87.16919922 -50.04351562 86.33839844 -49.55078125 85.48242188 C-47.35085977 81.66642905 -45.14260883 77.85534183 -42.9296875 74.046875 C-39.52366018 68.18446497 -36.13691484 62.31096648 -32.75 56.4375 C-31.47266275 54.2226525 -30.19531893 52.00780879 -28.91796875 49.79296875 C-28.27520996 48.67841309 -27.63245117 47.56385742 -26.97021484 46.41552734 C-24.97701873 42.96016011 -22.98281158 39.50537839 -20.98828125 36.05078125 C-19.67965533 33.78387274 -18.37106099 31.516946 -17.0625 29.25 C-16.43545166 28.16380371 -15.80840332 27.07760742 -15.16235352 25.95849609 C-11.22406861 19.13269712 -7.30464822 12.2967195 -3.41796875 5.44140625 C-2.34220687 3.58919916 -1.18813813 1.7822072 0 0 Z " fill="#060606" transform="translate(448,653)"/>
<path d="M0 0 C3.53312903 1.17770968 3.6409889 1.66697066 5.265625 4.83984375 C7.1815732 8.46482347 9.15703977 12.03091806 11.234375 15.56640625 C11.80389893 16.53843994 12.37342285 17.51047363 12.96020508 18.51196289 C13.5508374 19.51864014 14.14146973 20.52531738 14.75 21.5625 C18.82917619 28.53084906 22.88313273 35.50848992 26.8125 42.5625 C29.47866112 47.34496791 32.21914 52.07011127 35.0625 56.75 C40.22441398 65.25107844 45.11753815 73.90732308 50.02734375 82.55541992 C53.06238584 87.89584918 56.10881312 93.22447 59.2890625 98.48046875 C59.76480713 99.2688916 60.24055176 100.05731445 60.73071289 100.86962891 C61.59340484 102.29010537 62.46449043 103.7055317 63.34545898 105.11474609 C64.30676736 106.69922882 65.16520899 108.3453631 66 110 C65.505 111.485 65.505 111.485 65 113 C63.67934649 111.47616902 62.35870049 109.95233154 61.03808594 108.4284668 C59.87349594 107.08477247 58.70877941 105.7411878 57.54394531 104.39770508 C53.98921549 100.29737665 50.4386537 96.19350805 46.89257812 92.08569336 C45.26529335 90.20517327 43.63117709 88.3307712 41.99609375 86.45703125 C40.14271499 84.331114 38.33048768 82.18830916 36.53515625 80.01171875 C30.89596188 73.32198905 25.27110483 69.75703494 17 67 C15.16286893 66.91986981 13.32325055 66.89167958 11.484375 66.89453125 C10.39769531 66.87970703 9.31101562 66.86488281 8.19140625 66.84960938 C5.91288693 66.82503964 3.6340749 66.81956282 1.35546875 66.83398438 C-5.16265696 66.7070079 -9.13152528 66.19666441 -13.81933594 61.47924805 C-16.63974794 57.94556808 -16.41328508 54.32252691 -16 50 C-15.14539912 46.10065851 -13.99296543 42.31169261 -12.8125 38.5 C-12.49442383 37.44353271 -12.17634766 36.38706543 -11.84863281 35.29858398 C-10.91078684 32.19533384 -9.95775109 29.09715648 -9 26 C-8.50907778 24.39714669 -8.01818841 22.79428332 -7.52734375 21.19140625 C-6.37550794 17.45318715 -5.19473325 13.72475659 -4 10 C-3.690625 9.030625 -3.38125 8.06125 -3.0625 7.0625 C-1.13657407 1.13657407 -1.13657407 1.13657407 0 0 Z " fill="#0A0A0A" transform="translate(464,638)"/>
<path d="M0 0 C3 1 3 1 4.46484375 3.40625 C5.19380859 4.93765625 5.19380859 4.93765625 5.9375 6.5 C6.4634375 7.59828125 6.989375 8.6965625 7.53125 9.828125 C9.40154806 13.86717294 11.23195152 17.91519834 13 22 C13.56454481 23.28930757 14.12970559 24.57834551 14.6953125 25.8671875 C19.42837404 36.65792167 19.42837404 36.65792167 21.52734375 41.5859375 C22.9646696 44.91809346 24.46717846 48.21082045 26 51.5 C31.8175853 64.08792651 31.8175853 64.08792651 33 70 C12.21 70 -8.58 70 -30 70 C-26.43667198 55.74668794 -19.46142165 41.77252159 -12.84375 28.69921875 C-11.42217457 25.88801735 -10.1708316 23.07714591 -9.0625 20.125 C-7.34265104 15.71321353 -5.3289001 11.52542854 -3.1484375 7.32421875 C-1.96321203 4.92554816 -0.96277784 2.49527285 0 0 Z " fill="#F7F7F7" transform="translate(635,656)"/>
<path d="M0 0 C4.8475022 3.08259613 8.76960122 6.61732745 11.37109375 11.8203125 C12.2337737 19.43155203 12.18004085 25.75235185 7.3359375 31.94140625 C2.58763525 36.48202928 -2.84663571 39.05996938 -9.44140625 39.2578125 C-15.74555796 38.83753572 -20.30056085 36.46883687 -24.62890625 31.8203125 C-28.33148273 26.80759358 -29.39390703 21.74749794 -29.13671875 15.56640625 C-27.96782948 9.24541272 -24.07396373 4.54444539 -19.00390625 0.7578125 C-13.08650189 -2.47809122 -6.1497104 -2.75960259 0 0 Z " fill="#F8F8F8" transform="translate(2058.62890625,701.1796875)"/>
<path d="M0 0 C1.87866211 1.84179688 1.87866211 1.84179688 2.33276367 4.84448242 C2.31181641 6.04371338 2.29086914 7.24294434 2.26928711 8.47851562 C2.25639648 9.77724609 2.24350586 11.07597656 2.23022461 12.4140625 C2.19680312 13.7858179 2.16294334 15.15756269 2.12866211 16.52929688 C2.10859586 17.91273499 2.0903453 19.29620072 2.07397461 20.6796875 C2.02675418 24.06775337 1.9609028 27.45442929 1.87866211 30.84179688 C-6.03292883 34.71596132 -12.19746982 37.37266964 -21.12133789 35.84179688 C-27.3910771 33.52005005 -30.37361312 29.77688237 -33.12133789 23.84179688 C-35.10711509 17.88446528 -34.84683605 11.85190021 -32.49633789 6.02929688 C-29.94433233 0.92528575 -26.71729563 -1.76037973 -21.68383789 -4.47070312 C-13.62474727 -6.63289817 -7.03448261 -3.84067045 0 0 Z " fill="#F8F8F8" transform="translate(1890.121337890625,704.158203125)"/>
<path d="M0 0 C3.69436817 3.02184969 6.10490632 5.97368427 7.125 10.7109375 C7.52488215 16.62737569 6.11272967 20.23772746 2.23828125 24.6875 C-1.47382901 28.39961026 -4.11999976 29.49700321 -9.328125 29.75390625 C-14.92657137 29.55455504 -17.9425711 27.82290176 -21.86328125 23.80859375 C-25.20716648 19.80338303 -26.01770228 16.56423122 -25.67578125 11.3828125 C-24.94339819 6.07554348 -22.68134668 3.26614451 -19.0234375 -0.44921875 C-13.53285912 -4.59999092 -5.45918712 -3.59354749 0 0 Z " fill="#D8D8D8" transform="translate(2309.390625,650.68359375)"/>
<path d="M0 0 C3.3 0 6.6 0 10 0 C10 10.89 10 21.78 10 33 C-0.89 33 -11.78 33 -23 33 C-23 29.7 -23 26.4 -23 23 C-15.41 23 -7.82 23 0 23 C0 15.41 0 7.82 0 0 Z " fill="#101010" transform="translate(1575,762)"/>
<path d="M0 0 C3.3 0 6.6 0 10 0 C10 7.59 10 15.18 10 23 C17.59 23 25.18 23 33 23 C33 26.3 33 29.6 33 33 C22.11 33 11.22 33 0 33 C0 22.11 0 11.22 0 0 Z " fill="#111111" transform="translate(1409,762)"/>
<path d="M0 0 C10.89 0 21.78 0 33 0 C33 10.89 33 21.78 33 33 C29.7 33 26.4 33 23 33 C23 25.41 23 17.82 23 10 C15.41 10 7.82 10 0 10 C0 6.7 0 3.4 0 0 Z " fill="#101010" transform="translate(1552,619)"/>
<path d="M0 0 C10.89 0 21.78 0 33 0 C33 3.3 33 6.6 33 10 C25.41 10 17.82 10 10 10 C10 17.59 10 25.18 10 33 C6.7 33 3.4 33 0 33 C0 22.11 0 11.22 0 0 Z " fill="#111111" transform="translate(1409,619)"/>
<path d="M0 0 C1.3096875 -0.00515625 2.619375 -0.0103125 3.96875 -0.015625 C8.14301997 0.29836876 10.22824901 1.06908836 13.25 3.875 C14.5 6.25 14.5 6.25 14.5 14.25 C3.94 14.25 -6.62 14.25 -17.5 14.25 C-16.47259133 8.085548 -15.6886012 6.53601053 -11.5 2.25 C-7.83869825 -0.24136855 -4.33557495 -0.01706919 0 0 Z " fill="#E8E8E8" transform="translate(2248.5,695.75)"/>
<path d="M0 0 C2.64 0 5.28 0 8 0 C8 5.61 8 11.22 8 17 C13.28 17 18.56 17 24 17 C24 19.64 24 22.28 24 25 C15.75 25 7.5 25 -1 25 C-1.020625 21.060625 -1.04125 17.12125 -1.0625 13.0625 C-1.07615601 11.19670288 -1.07615601 11.19670288 -1.09008789 9.29321289 C-1.09383423 7.83516235 -1.09383423 7.83516235 -1.09765625 6.34765625 C-1.10289307 5.34742432 -1.10812988 4.34719238 -1.11352539 3.31665039 C-1 1 -1 1 0 0 Z " fill="#070707" transform="translate(1442,737)"/>
<path d="M0 0 C0.680625 0.00515625 1.36125 0.0103125 2.0625 0.015625 C7.06441327 0.09470663 7.06441327 0.09470663 9.375 1.25 C9.375 1.91 9.375 2.57 9.375 3.25 C10.014375 3.559375 10.65375 3.86875 11.3125 4.1875 C13.375 5.25 13.375 5.25 14.375 6.25 C14.375 8.56 14.375 10.87 14.375 13.25 C4.145 13.25 -6.085 13.25 -16.625 13.25 C-16.625 8.25 -16.625 8.25 -14.375 5.625 C-13.4675 4.84125 -12.56 4.0575 -11.625 3.25 C-11.06554688 2.71117187 -10.50609375 2.17234375 -9.9296875 1.6171875 C-6.68610516 -0.30697151 -3.65409191 -0.11200282 0 0 Z " fill="#F7F7F7" transform="translate(1779.625,695.75)"/>
<path d="M0 0 C7.92 0 15.84 0 24 0 C24 2.64 24 5.28 24 8 C18.72 8 13.44 8 8 8 C8 13.61 8 19.22 8 25 C5.36 25 2.72 25 0 25 C0 16.75 0 8.5 0 0 Z " fill="#0F0F0F" transform="translate(1442,652)"/>
<path d="M0 0 C2.64 0 5.28 0 8 0 C8 7.92 8 15.84 8 24 C0.08 24 -7.84 24 -16 24 C-16 21.36 -16 18.72 -16 16 C-10.72 16 -5.44 16 0 16 C0 10.72 0 5.44 0 0 Z " fill="#0B0B0B" transform="translate(1544,738)"/>
<path d="M0 0 C7.92 0 15.84 0 24 0 C24 7.92 24 15.84 24 24 C21.36 24 18.72 24 16 24 C16 18.72 16 13.44 16 8 C10.72 8 5.44 8 0 8 C0 5.36 0 2.72 0 0 Z " fill="#0B0B0B" transform="translate(1528,652)"/>
<path d="M0 0 C3.69436817 3.02184969 6.10490632 5.97368427 7.125 10.7109375 C7.52488215 16.62737569 6.11272967 20.23772746 2.23828125 24.6875 C-1.47382901 28.39961026 -4.11999976 29.49700321 -9.328125 29.75390625 C-14.92657137 29.55455504 -17.9425711 27.82290176 -21.86328125 23.80859375 C-25.20716648 19.80338303 -26.01770228 16.56423122 -25.67578125 11.3828125 C-24.94339819 6.07554348 -22.68134668 3.26614451 -19.0234375 -0.44921875 C-13.53285912 -4.59999092 -5.45918712 -3.59354749 0 0 Z M-20.390625 5.31640625 C-22.74627687 9.2781844 -23.39611416 13.80874721 -22.390625 18.31640625 C-20.3122286 21.63801523 -17.92610576 24.54866587 -14.390625 26.31640625 C-9.71591708 26.88672062 -6.26746002 26.75482376 -2.015625 24.62890625 C2.07776019 21.02282882 3.76213485 18.32509385 4.109375 12.87890625 C3.99692245 9.50532981 3.46436855 7.52963887 1.359375 4.87890625 C-3.00168348 0.81519266 -6.25788436 -0.20199716 -12.13671875 -0.06640625 C-16.08693701 0.6045147 -17.70708931 2.3710622 -20.390625 5.31640625 Z " fill="#282828" transform="translate(2309.390625,650.68359375)"/>
<path d="M0 0 C2.31 0 4.62 0 7 0 C7 5.61 7 11.22 7 17 C1.39 17 -4.22 17 -10 17 C-10 14.69 -10 12.38 -10 10 C-6.7 10 -3.4 10 0 10 C0 6.7 0 3.4 0 0 Z " fill="#1D1D1D" transform="translate(1515,715)"/>
<path d="M0 0 C2.31 0 4.62 0 7 0 C7 3.3 7 6.6 7 10 C10.3 10 13.6 10 17 10 C17 12.31 17 14.62 17 17 C11.39 17 5.78 17 0 17 C0 11.39 0 5.78 0 0 Z " fill="#1E1E1E" transform="translate(1472,715)"/>
<path d="M0 0 C5.61 0 11.22 0 17 0 C17 5.61 17 11.22 17 17 C14.69 17 12.38 17 10 17 C10 13.7 10 10.4 10 7 C6.7 7 3.4 7 0 7 C0 4.69 0 2.38 0 0 Z " fill="#1D1D1D" transform="translate(1505,682)"/>
<path d="M0 0 C5.61 0 11.22 0 17 0 C17 1.98 17 3.96 17 6 C16 7 16 7 13.93359375 7.09765625 C10.46679688 7.04882812 10.46679688 7.04882812 7 7 C7 10.3 7 13.6 7 17 C4.69 17 2.38 17 0 17 C0 11.39 0 5.78 0 0 Z " fill="#1D1D1D" transform="translate(1472,682)"/>
<path d="M0 0 C0.99 0 1.98 0 3 0 C3 5.61 3 11.22 3 17 C4.65 17 6.3 17 8 17 C8 15.35 8 13.7 8 12 C11 13 11 13 13 16 C16.08365871 16.2502157 16.08365871 16.2502157 19 16 C18.75 17.875 18.75 17.875 18 20 C13.85722112 22.582393 9.74493154 22.82234515 5 22 C1.45033029 20.04880735 -0.75989575 17.36015637 -3 14 C-3.46706347 8.30182562 -3.00943022 5.01571703 0 0 Z " fill="#F2F2F2" transform="translate(2290,655)"/>
<path d="M0 0 C1.60875 -0.020625 3.2175 -0.04125 4.875 -0.0625 C5.77992188 -0.07410156 6.68484375 -0.08570313 7.6171875 -0.09765625 C10 0 10 0 12 1 C12.12658228 6.56962025 12.12658228 6.56962025 11.375 9.125 C10.86965523 11.65172384 11.69436803 12.84954734 13 15 C8.16743695 14.58578031 6.17320782 12.53586014 3 9 C3 10.65 3 12.3 3 14 C2.01 14 1.02 14 0 14 C0 9.38 0 4.76 0 0 Z " fill="#171717" transform="translate(2294,657)"/>
<path d="M0 0 C3 1 3 1 5 4 C8.08365871 4.2502157 8.08365871 4.2502157 11 4 C10.75 5.875 10.75 5.875 10 8 C7.10925115 9.83315781 4.83115508 10.2729689 1.4375 10.25 C0.29087891 10.25773438 0.29087891 10.25773438 -0.87890625 10.265625 C-3 10 -3 10 -6 8 C-6 7.01 -6 6.02 -6 5 C-4.02 5 -2.04 5 0 5 C0 3.35 0 1.7 0 0 Z " fill="#E9E9E9" transform="translate(2298,667)"/>
<path d="M0 0 C2.64 0 5.28 0 8 0 C8 5.61 8 11.22 8 17 C7.67 17 7.34 17 7 17 C7 12.05 7 7.1 7 2 C5.02 2 3.04 2 1 2 C1.01571045 2.93851807 1.01571045 2.93851807 1.03173828 3.89599609 C1.07323191 6.7222901 1.09930473 9.54852011 1.125 12.375 C1.14175781 13.35984375 1.15851563 14.3446875 1.17578125 15.359375 C1.18222656 16.30039062 1.18867187 17.24140625 1.1953125 18.2109375 C1.20578613 19.08024902 1.21625977 19.94956055 1.22705078 20.84521484 C1 23 1 23 -1 25 C-1.02886984 21.02084841 -1.04675406 17.04172347 -1.0625 13.0625 C-1.07087891 11.92619141 -1.07925781 10.78988281 -1.08789062 9.61914062 C-1.09111328 8.53955078 -1.09433594 7.45996094 -1.09765625 6.34765625 C-1.10289307 5.34742432 -1.10812988 4.34719238 -1.11352539 3.31665039 C-1 1 -1 1 0 0 Z " fill="#595959" transform="translate(1442,737)"/>
<path d="M0 0 C2.45993942 2.45993942 2.34992473 3.35001885 2.4375 6.75 C2.37369967 10.42915251 2.04213401 12.63472247 -0.3125 15.5 C-4.12414399 19.04571534 -6.04910136 20.2584649 -11.1875 20.125 C-12.08855469 20.10695313 -12.98960937 20.08890625 -13.91796875 20.0703125 C-14.60503906 20.04710937 -15.29210938 20.02390625 -16 20 C-16 19.67 -16 19.34 -16 19 C-15.40832031 18.84144531 -14.81664063 18.68289063 -14.20703125 18.51953125 C-8.90474814 16.95393053 -5.61008638 15.39979278 -2 11 C-0.85185003 8.70370006 -0.69230191 6.92301914 -0.4375 4.375 C-0.35371094 3.55773437 -0.26992187 2.74046875 -0.18359375 1.8984375 C-0.12300781 1.27195312 -0.06242187 0.64546875 0 0 Z " fill="#232323" transform="translate(2313,659)"/>
<path d="M0 0 C6.15181429 -0.43170627 10.14874821 0.03186443 15 4 C18.05471695 6.90815225 19.82060341 9.42452993 20.3046875 13.67578125 C20.31165567 16.13902823 20.22204913 18.54759068 20 21 C19.67 21 19.34 21 19 21 C18.505 16.05 18.505 16.05 18 11 C17.01 10.67 16.02 10.34 15 10 C14.29875 9.195625 13.5975 8.39125 12.875 7.5625 C9.49923455 4.55366557 7.25840529 4.14766429 2.890625 3.5546875 C2.26671875 3.37164063 1.6428125 3.18859375 1 3 C0.67 2.01 0.34 1.02 0 0 Z " fill="#353535" transform="translate(2296,648)"/>
<path d="M0 0 C3.3 0 6.6 0 10 0 C8 2 8 2 5.375 2.125 C4.59125 2.08375 3.8075 2.0425 3 2 C3.33 3.65 3.66 5.3 4 7 C5.32 7.33 6.64 7.66 8 8 C8 8.66 8 9.32 8 10 C6.35 9.67 4.7 9.34 3 9 C3 10.65 3 12.3 3 14 C2.01 14 1.02 14 0 14 C0 9.38 0 4.76 0 0 Z " fill="#0A0A0A" transform="translate(2294,657)"/>
<path d="M0 0 C0 0.33 0 0.66 0 1 C-1.8253125 1.37125 -1.8253125 1.37125 -3.6875 1.75 C-7.61067069 2.74294409 -10.13022122 4.04581596 -13 7 C-14.33298974 9.61818456 -14.33298974 9.61818456 -15 12 C-15.33 11.01 -15.66 10.02 -16 9 C-16.66 9 -17.32 9 -18 9 C-14.30627473 -0.06641657 -8.92258298 -0.70318079 0 0 Z " fill="#292929" transform="translate(2303,649)"/>
<path d="M0 0 C0.66 0 1.32 0 2 0 C0.68 5.61 -0.64 11.22 -2 17 C-2.33 17 -2.66 17 -3 17 C-2.96744792 14.98177083 -2.93489583 12.96354167 -2.90234375 10.9453125 C-2.87350758 8.91814596 -2.87350758 8.91814596 -4 7 C-3.22265625 5.2734375 -3.22265625 5.2734375 -2.0625 3.375 C-1.381875 2.26125 -0.70125 1.1475 0 0 Z " fill="#454545" transform="translate(448,653)"/>
<path d="M0 0 C0.680625 0.309375 1.36125 0.61875 2.0625 0.9375 C5.05539263 2.14460875 5.05539263 2.14460875 8.625 2.4375 C12.18214847 3.03035808 12.74853299 3.44151477 15 6 C3.97553517 6.57798165 3.97553517 6.57798165 0 3 C0 2.01 0 1.02 0 0 Z " fill="#414141" transform="translate(2290,674)"/>
<path d="M0 0 C0.66 0.33 1.32 0.66 2 1 C-2.95 5.95 -7.9 10.9 -13 16 C-13 11.38794096 -10.11229546 9.20006084 -7 6 C-4.7269604 3.92205163 -2.39561112 1.93491668 0 0 Z " fill="#2B2B2B" transform="translate(861,649)"/>
<path d="M0 0 C2.61885488 2.36944013 4.41866551 4.83733102 6 8 C5.67 8.99 5.34 9.98 5 11 C2.36 8.03 -0.28 5.06 -3 2 C-2.01 1.34 -1.02 0.68 0 0 Z " fill="#393939" transform="translate(524,740)"/>
<path d="M0 0 C5.95074431 5.79816112 5.95074431 5.79816112 6.09765625 9.3828125 C6.08605469 10.28773438 6.07445313 11.19265625 6.0625 12.125 C6.05347656 13.03507813 6.04445313 13.94515625 6.03515625 14.8828125 C6.02355469 15.58148437 6.01195313 16.28015625 6 17 C5.67 17 5.34 17 5 17 C4.67 13.7 4.34 10.4 4 7 C3.01 6.67 2.02 6.34 1 6 C0.67 4.02 0.34 2.04 0 0 Z " fill="#4A4A4A" transform="translate(2310,652)"/>
<path d="M0 0 C1.65 0 3.3 0 5 0 C5.5625 1.9375 5.5625 1.9375 6 4 C5 5 5 5 2.4375 5.0625 C1.2309375 5.0315625 1.2309375 5.0315625 0 5 C0 3.35 0 1.7 0 0 Z " fill="#C4C4C4" transform="translate(2297,659)"/>
<path d="M0 0 C0.66 0.33 1.32 0.66 2 1 C-1.96 4.96 -5.92 8.92 -10 13 C-10 8.83248505 -7.76127698 6.85829482 -5 4 C-3.36927384 2.62294236 -1.7133562 1.27277889 0 0 Z " fill="#2E2E2E" transform="translate(1846,681)"/>
<path d="M0 0 C-1.26117725 3.88862987 -2.45264167 5.89375599 -6 8 C-6.66 8 -7.32 8 -8 8 C-6.48291727 4.46014029 -4.24676932 0 0 0 Z " fill="#323232" transform="translate(1975,679)"/>
<path d="M0 0 C1.37562854 1.28965176 2.70766393 2.62689293 4 4 C4 4.66 4 5.32 4 6 C1.625 5.75 1.625 5.75 -1 5 C-2.3125 2.9375 -2.3125 2.9375 -3 1 C-2.01 0.67 -1.02 0.34 0 0 Z " fill="#363636" transform="translate(2303,666)"/>
<path d="M0 0 C0.66 0.33 1.32 0.66 2 1 C-0.85276137 3.93200474 -3.65079784 6.64315404 -7 9 C-5.64978174 4.58110387 -3.73884332 2.65654657 0 0 Z " fill="#C1C1C1" transform="translate(1770,697)"/>
<path d="M0 0 C0 3 0 3 -2.5 5.6875 C-3.325 6.450625 -4.15 7.21375 -5 8 C-5 7.34 -5 6.68 -5 6 C-6.32 5.67 -7.64 5.34 -9 5 C-7.88625 4.54625 -6.7725 4.0925 -5.625 3.625 C-2.03800992 2.27534014 -2.03800992 2.27534014 0 0 Z " fill="#B9B9B9" transform="translate(449,742)"/>
<path d="M0 0 C0.66 0.33 1.32 0.66 2 1 C-0.64 3.64 -3.28 6.28 -6 9 C-6 6 -6 6 -3.5625 3.375 C-2.716875 2.59125 -1.87125 1.8075 -1 1 C-0.67 0.67 -0.34 0.34 0 0 Z " fill="#CBCBCB" transform="translate(1972,703)"/>
<path d="M0 0 C1.32 0.33 2.64 0.66 4 1 C4 1.99 4 2.98 4 4 C1.66666667 4 -0.66666667 4 -3 4 C-2.01 2.68 -1.02 1.36 0 0 Z " fill="#C9C9C9" transform="translate(770,715)"/>
<path d="M0 0 C0.66 0.33 1.32 0.66 2 1 C2 1.66 2 2.32 2 3 C0.46875 4.2890625 0.46875 4.2890625 -1.5 5.625 C-2.1496875 6.07101562 -2.799375 6.51703125 -3.46875 6.9765625 C-3.9740625 7.31429687 -4.479375 7.65203125 -5 8 C-3.8141763 4.62496331 -2.72426311 2.35277269 0 0 Z " fill="#C0C0C0" transform="translate(2237,698)"/>
</svg>
